<?xml version="1.0" encoding="UTF-8" standalone="no"?><svg xmlns="http://www.w3.org/2000/svg" xmlns:xlink="http://www.w3.org/1999/xlink" contentScriptType="application/ecmascript" contentStyleType="text/css" height="249px" preserveAspectRatio="none" style="width:629px;height:249px;background:#FFFFFF;" version="1.1" viewBox="0 0 629 249" width="629px" zoomAndPan="magnify"><defs><filter height="300%" id="f4d4rcrqam0tv" width="300%" x="-1" y="-1"><feGaussianBlur result="blurOut" stdDeviation="2.0"/><feColorMatrix in="blurOut" result="blurOut2" type="matrix" values="0 0 0 0 0 0 0 0 0 0 0 0 0 0 0 0 0 0 .4 0"/><feOffset dx="4.0" dy="4.0" in="blurOut2" result="blurOut3"/><feBlend in="SourceGraphic" in2="blurOut3" mode="normal"/></filter></defs><g><!--MD5=[db8554f2b1c91af4070e9585566a1b26]
class Compressor--><rect codeLine="1" fill="#FEFECE" filter="url(#f4d4rcrqam0tv)" height="228.2754" id="Compressor" style="stroke:#A80036;stroke-width:1.5;" width="149" x="205.5" y="7"/><ellipse cx="241.65" cy="23" fill="#ADD1B2" rx="11" ry="11" style="stroke:#A80036;stroke-width:1.0;"/><path d="M240.2281,28.3594 Q238.3688,28.3594 237.275,26.9688 Q236.1813,25.5781 236.1813,22.5938 Q236.1813,20.0625 237.3453,18.4063 Q238.5094,16.75 240.4938,16.75 Q241.9625,16.75 242.4313,16.875 Q242.9,17.0781 242.9,17.0781 Q242.9,17.0781 242.9,17.0078 Q242.9,16.9375 243.5094,16.0156 L244.5563,19.6719 L243.2281,20.0781 Q242.7594,18.5313 242.0953,17.8672 Q241.4313,17.2031 240.3688,17.2031 Q239.9781,17.2031 239.2125,18.7344 Q238.4469,20.2656 238.4469,22.5156 Q238.4469,24.9844 239.1109,26.375 Q239.775,27.7656 240.3063,27.7656 Q241.3688,27.7656 242.1266,27 Q242.8844,26.2344 243.2281,24.5781 L244.5563,25.1719 Q244.2281,26.5781 243.3297,27.4688 Q242.4313,28.3594 240.2281,28.3594 Z " fill="#000000"/><text fill="#000000" font-family="sans-serif" font-size="12" lengthAdjust="spacing" textLength="70" x="260.35" y="28.5576">Compressor</text><line style="stroke:#A80036;stroke-width:1.5;" x1="206.5" x2="353.5" y1="39" y2="39"/><ellipse cx="216.5" cy="50" rx="3" ry="3" style="stroke:#038048;stroke-width:1.0;fill:none;"/><text fill="#000000" font-family="sans-serif" font-size="11" lengthAdjust="spacing" text-decoration="underline" textLength="58" x="225.5" y="55.606">devtype: str</text><ellipse cx="216.5" cy="65.0229" rx="3" ry="3" style="stroke:#038048;stroke-width:1.0;fill:none;"/><text fill="#000000" font-family="sans-serif" font-size="11" lengthAdjust="spacing" text-decoration="underline" textLength="53" x="225.5" y="70.6289">energy: str</text><ellipse cx="216.5" cy="80.0459" rx="3" ry="3" style="stroke:#038048;stroke-width:1.0;fill:none;"/><text fill="#000000" font-family="sans-serif" font-size="11" lengthAdjust="spacing" textLength="45" x="225.5" y="85.6519">name: str</text><ellipse cx="216.5" cy="95.0688" rx="3" ry="3" style="stroke:#038048;stroke-width:1.0;fill:none;"/><text fill="#000000" font-family="sans-serif" font-size="11" lengthAdjust="spacing" textLength="58" x="225.5" y="100.6748">iPort: Port[1]</text><ellipse cx="216.5" cy="110.0918" rx="3" ry="3" style="stroke:#038048;stroke-width:1.0;fill:none;"/><text fill="#000000" font-family="sans-serif" font-size="11" lengthAdjust="spacing" textLength="62" x="225.5" y="115.6978">oPort: Port[1]</text><ellipse cx="216.5" cy="125.1147" rx="3" ry="3" style="stroke:#038048;stroke-width:1.0;fill:none;"/><text fill="#000000" font-family="sans-serif" font-size="11" lengthAdjust="spacing" textLength="59" x="225.5" y="130.7207">portdict: dict</text><ellipse cx="216.5" cy="140.1377" rx="3" ry="3" style="stroke:#038048;stroke-width:1.0;fill:none;"/><text fill="#000000" font-family="sans-serif" font-size="11" lengthAdjust="spacing" textLength="37" x="225.5" y="145.7437">ef: float</text><ellipse cx="216.5" cy="155.1606" rx="3" ry="3" style="stroke:#038048;stroke-width:1.0;fill:none;"/><text fill="#000000" font-family="sans-serif" font-size="11" lengthAdjust="spacing" textLength="43" x="225.5" y="160.7666">Wc: float</text><line style="stroke:#A80036;stroke-width:1.5;" x1="206.5" x2="353.5" y1="167.1836" y2="167.1836"/><ellipse cx="216.5" cy="178.1836" fill="#84BE84" rx="3" ry="3" style="stroke:#038048;stroke-width:1.0;"/><text fill="#000000" font-family="sans-serif" font-size="11" lengthAdjust="spacing" text-decoration="underline" textLength="123" x="225.5" y="183.7896">Compressor(dictDev:dict)</text><ellipse cx="216.5" cy="193.2065" fill="#84BE84" rx="3" ry="3" style="stroke:#038048;stroke-width:1.0;"/><text fill="#000000" font-family="sans-serif" font-size="11" lengthAdjust="spacing" textLength="46" x="225.5" y="198.8125">balance()</text><ellipse cx="216.5" cy="208.2295" fill="#84BE84" rx="3" ry="3" style="stroke:#038048;stroke-width:1.0;"/><text fill="#000000" font-family="sans-serif" font-size="11" lengthAdjust="spacing" textLength="32" x="225.5" y="213.8354">state()</text><ellipse cx="216.5" cy="223.2524" fill="#84BE84" rx="3" ry="3" style="stroke:#038048;stroke-width:1.0;"/><text fill="#000000" font-family="sans-serif" font-size="11" lengthAdjust="spacing" textLength="61" x="225.5" y="228.8584">__str()__:str</text><path d="M6,26.5 L6,54.2544 A0,0 0 0 0 6,54.2544 L167,54.2544 A0,0 0 0 0 167,54.2544 L167,44.5 L209.5,50.5115 L167,36.5 L167,36.5 L157,26.5 L6,26.5 A0,0 0 0 0 6,26.5 " fill="#FBFB77" filter="url(#f4d4rcrqam0tv)" style="stroke:#A80036;stroke-width:1.0;"/><path d="M157,26.5 L157,36.5 L167,36.5 L157,26.5 " fill="#FBFB77" style="stroke:#A80036;stroke-width:1.0;"/><text fill="#000000" font-family="sans-serif" font-size="13" lengthAdjust="spacing" textLength="140" x="12" y="46.3979">class, the type of device</text><path d="M6,64.2544 L6,92.0088 A0,0 0 0 0 6,92.0088 L170,92.0088 A0,0 0 0 0 170,92.0088 L170,82.2544 L209.5,65.5344 L170,74.2544 L170,74.2544 L160,64.2544 L6,64.2544 A0,0 0 0 0 6,64.2544 " fill="#FBFB77" filter="url(#f4d4rcrqam0tv)" style="stroke:#A80036;stroke-width:1.0;"/><path d="M160,64.2544 L160,74.2544 L170,74.2544 L160,64.2544 " fill="#FBFB77" style="stroke:#A80036;stroke-width:1.0;"/><text fill="#000000" font-family="sans-serif" font-size="13" lengthAdjust="spacing" textLength="143" x="12" y="84.1523">class, the type of energy</text><path d="M6,102.0088 L6,129.7632 A0,0 0 0 0 6,129.7632 L77,129.7632 A0,0 0 0 0 77,129.7632 L77,120.0088 L209.5,95.5803 L77,112.0088 L77,112.0088 L67,102.0088 L6,102.0088 A0,0 0 0 0 6,102.0088 " fill="#FBFB77" filter="url(#f4d4rcrqam0tv)" style="stroke:#A80036;stroke-width:1.0;"/><path d="M67,102.0088 L67,112.0088 L77,112.0088 L67,102.0088 " fill="#FBFB77" style="stroke:#A80036;stroke-width:1.0;"/><text fill="#000000" font-family="sans-serif" font-size="13" lengthAdjust="spacing" textLength="50" x="12" y="121.9067">inlet port</text><path d="M6,139.7632 L6,167.5176 A0,0 0 0 0 6,167.5176 L85,167.5176 A0,0 0 0 0 85,167.5176 L85,157.7632 L209.5,110.6033 L85,149.7632 L85,149.7632 L75,139.7632 L6,139.7632 A0,0 0 0 0 6,139.7632 " fill="#FBFB77" filter="url(#f4d4rcrqam0tv)" style="stroke:#A80036;stroke-width:1.0;"/><path d="M75,139.7632 L75,149.7632 L85,149.7632 L75,139.7632 " fill="#FBFB77" style="stroke:#A80036;stroke-width:1.0;"/><text fill="#000000" font-family="sans-serif" font-size="13" lengthAdjust="spacing" textLength="58" x="12" y="159.6611">outlet port</text><path d="M6,177.5176 L6,205.272 A0,0 0 0 0 6,205.272 L148,205.272 A0,0 0 0 0 148,205.272 L148,195.5176 L209.5,223.7639 L148,187.5176 L148,187.5176 L138,177.5176 L6,177.5176 A0,0 0 0 0 6,177.5176 " fill="#FBFB77" filter="url(#f4d4rcrqam0tv)" style="stroke:#A80036;stroke-width:1.0;"/><path d="M138,177.5176 L138,187.5176 L148,187.5176 L138,177.5176 " fill="#FBFB77" style="stroke:#A80036;stroke-width:1.0;"/><text fill="#000000" font-family="sans-serif" font-size="13" lengthAdjust="spacing" textLength="121" x="12" y="197.4155">string of the instance</text><path d="M389.5,30 L389.5,57.6316 L284.5,125.6262 L389.5,65.6316 L389.5,93.2632 A0,0 0 0 0 389.5,93.2632 L612.5,93.2632 A0,0 0 0 0 612.5,93.2632 L612.5,40 L602.5,30 L389.5,30 A0,0 0 0 0 389.5,30 " fill="#FBFB77" filter="url(#f4d4rcrqam0tv)" style="stroke:#A80036;stroke-width:1.0;"/><path d="M602.5,30 L602.5,40 L612.5,40 L602.5,30 " fill="#FBFB77" style="stroke:#A80036;stroke-width:1.0;"/><text fill="#000000" font-family="sans-serif" font-size="13" font-weight="bold" lengthAdjust="spacing" textLength="202" x="395.5" y="49.8979">map the port name(str) to its obj</text><text fill="#000000" font-family="sans-serif" font-size="13" lengthAdjust="spacing" textLength="104" x="399.5" y="67.6523">{"iPort": self.iPort,</text><text fill="#000000" font-family="sans-serif" font-size="13" lengthAdjust="spacing" textLength="108" x="403.5" y="85.4067">"oPort": self.oPort}</text><path d="M389.5,103.2632 L389.5,148.6492 L348.5,178.6951 L389.5,156.6492 L389.5,202.0352 A0,0 0 0 0 389.5,202.0352 L620.5,202.0352 A0,0 0 0 0 620.5,202.0352 L620.5,113.2632 L610.5,103.2632 L389.5,103.2632 A0,0 0 0 0 389.5,103.2632 " fill="#FBFB77" filter="url(#f4d4rcrqam0tv)" style="stroke:#A80036;stroke-width:1.0;"/><path d="M610.5,103.2632 L610.5,113.2632 L620.5,113.2632 L610.5,103.2632 " fill="#FBFB77" style="stroke:#A80036;stroke-width:1.0;"/><text fill="#000000" font-family="sans-serif" font-size="13" font-weight="bold" lengthAdjust="spacing" textLength="23" x="395.5" y="123.1611">dict</text><text fill="#000000" font-family="sans-serif" font-size="13" lengthAdjust="spacing" textLength="138" x="422.5" y="123.1611">{"name": "Compressor",</text><text fill="#000000" font-family="sans-serif" font-size="13" lengthAdjust="spacing" textLength="170" x="435.5" y="140.9155">"devtype": "COMPRESSOR",</text><text fill="#000000" font-family="sans-serif" font-size="13" lengthAdjust="spacing" textLength="57" x="435.5" y="158.6699">"iPort": {},</text><text fill="#000000" font-family="sans-serif" font-size="13" lengthAdjust="spacing" textLength="61" x="439.5" y="176.4243">"oPort": {},</text><text fill="#000000" font-family="sans-serif" font-size="13" lengthAdjust="spacing" textLength="66" x="439.5" y="194.1787">"ef": 0 ~ 1 }</text><!--MD5=[81b62fe488550473abb48923fefcc844]
link Compressor$$$LEFT to Compressor--><!--MD5=[489a9e202905b512cffa5c57bf901d99]
link Compressor to Compressor$$$RIGHT--><!--MD5=[956a3596fef4542315a85ddbfe24efe8]
@startuml
class Compressor {
 + {static} devtype: str
 + {static} energy: str
 + name: str
 + iPort: Port[1]
 + oPort: Port[1]
 + portdict: dict
 + ef: float
 + Wc: float
 + {static} Compressor(dictDev:dict)
 + balance()
 + state()
 + __str()__:str
}
note left of Compressor::devtype
  class, the type of device
end note
note left of Compressor::energy
  class, the type of energy
end note
note left of Compressor::iPort
  inlet port
end note
note left of Compressor::oPort
  outlet port
end note
note left of Compressor::__str()__
  string of the instance
end note
note right of Compressor::portdict
  **map the port name(str) to its obj**
   {"iPort": self.iPort,
    "oPort": self.oPort}
end note
note right of Compressor::Compressor(dictDev:dict)
  **dict** {"name": "Compressor",
            "devtype": "COMPRESSOR",
            "iPort": {},
             "oPort": {},
             "ef": 0 ~ 1 }
end note
@enduml

PlantUML version 1.2022.0(Wed Jan 12 00:16:42 CST 2022)
(GPL source distribution)
Java Runtime: Java(TM) SE Runtime Environment
JVM: Java HotSpot(TM) 64-Bit Server VM
Default Encoding: GBK
Language: zh
Country: CN
--></g></svg>