<?xml version="1.0" encoding="UTF-8" standalone="no"?><svg xmlns="http://www.w3.org/2000/svg" xmlns:xlink="http://www.w3.org/1999/xlink" contentScriptType="application/ecmascript" contentStyleType="text/css" height="357px" preserveAspectRatio="none" style="width:733px;height:357px;background:#FFFFFF;" version="1.1" viewBox="0 0 733 357" width="733px" zoomAndPan="magnify"><defs><filter height="300%" id="f1eafw74dqmhj4" width="300%" x="-1" y="-1"><feGaussianBlur result="blurOut" stdDeviation="2.0"/><feColorMatrix in="blurOut" result="blurOut2" type="matrix" values="0 0 0 0 0 0 0 0 0 0 0 0 0 0 0 0 0 0 .4 0"/><feOffset dx="4.0" dy="4.0" in="blurOut2" result="blurOut3"/><feBlend in="SourceGraphic" in2="blurOut3" mode="normal"/></filter></defs><g><!--MD5=[db8554f2b1c91af4070e9585566a1b26]
class Compressor--><rect codeLine="1" fill="#FEFECE" filter="url(#f1eafw74dqmhj4)" height="228.2754" id="Compressor" style="stroke:#A80036;stroke-width:1.5;" width="149" x="7" y="7"/><ellipse cx="43.15" cy="23" fill="#ADD1B2" rx="11" ry="11" style="stroke:#A80036;stroke-width:1.0;"/><path d="M41.7281,28.3594 Q39.8688,28.3594 38.775,26.9688 Q37.6813,25.5781 37.6813,22.5938 Q37.6813,20.0625 38.8453,18.4063 Q40.0094,16.75 41.9938,16.75 Q43.4625,16.75 43.9313,16.875 Q44.4,17.0781 44.4,17.0781 Q44.4,17.0781 44.4,17.0078 Q44.4,16.9375 45.0094,16.0156 L46.0563,19.6719 L44.7281,20.0781 Q44.2594,18.5313 43.5953,17.8672 Q42.9313,17.2031 41.8688,17.2031 Q41.4781,17.2031 40.7125,18.7344 Q39.9469,20.2656 39.9469,22.5156 Q39.9469,24.9844 40.6109,26.375 Q41.275,27.7656 41.8063,27.7656 Q42.8688,27.7656 43.6266,27 Q44.3844,26.2344 44.7281,24.5781 L46.0563,25.1719 Q45.7281,26.5781 44.8297,27.4688 Q43.9313,28.3594 41.7281,28.3594 Z " fill="#000000"/><text fill="#000000" font-family="sans-serif" font-size="12" lengthAdjust="spacing" textLength="70" x="61.85" y="28.5576">Compressor</text><line style="stroke:#A80036;stroke-width:1.5;" x1="8" x2="155" y1="39" y2="39"/><ellipse cx="18" cy="50" rx="3" ry="3" style="stroke:#038048;stroke-width:1.0;fill:none;"/><text fill="#000000" font-family="sans-serif" font-size="11" lengthAdjust="spacing" text-decoration="underline" textLength="58" x="27" y="55.606">devtype: str</text><ellipse cx="18" cy="65.0229" rx="3" ry="3" style="stroke:#038048;stroke-width:1.0;fill:none;"/><text fill="#000000" font-family="sans-serif" font-size="11" lengthAdjust="spacing" text-decoration="underline" textLength="53" x="27" y="70.6289">energy: str</text><ellipse cx="18" cy="80.0459" rx="3" ry="3" style="stroke:#038048;stroke-width:1.0;fill:none;"/><text fill="#000000" font-family="sans-serif" font-size="11" lengthAdjust="spacing" textLength="45" x="27" y="85.6519">name: str</text><ellipse cx="18" cy="95.0688" rx="3" ry="3" style="stroke:#038048;stroke-width:1.0;fill:none;"/><text fill="#000000" font-family="sans-serif" font-size="11" lengthAdjust="spacing" textLength="58" x="27" y="100.6748">iPort: Port[1]</text><ellipse cx="18" cy="110.0918" rx="3" ry="3" style="stroke:#038048;stroke-width:1.0;fill:none;"/><text fill="#000000" font-family="sans-serif" font-size="11" lengthAdjust="spacing" textLength="62" x="27" y="115.6978">oPort: Port[1]</text><ellipse cx="18" cy="125.1147" rx="3" ry="3" style="stroke:#038048;stroke-width:1.0;fill:none;"/><text fill="#000000" font-family="sans-serif" font-size="11" lengthAdjust="spacing" textLength="59" x="27" y="130.7207">portdict: dict</text><ellipse cx="18" cy="140.1377" rx="3" ry="3" style="stroke:#038048;stroke-width:1.0;fill:none;"/><text fill="#000000" font-family="sans-serif" font-size="11" lengthAdjust="spacing" textLength="37" x="27" y="145.7437">ef: float</text><ellipse cx="18" cy="155.1606" rx="3" ry="3" style="stroke:#038048;stroke-width:1.0;fill:none;"/><text fill="#000000" font-family="sans-serif" font-size="11" lengthAdjust="spacing" textLength="43" x="27" y="160.7666">Wc: float</text><line style="stroke:#A80036;stroke-width:1.5;" x1="8" x2="155" y1="167.1836" y2="167.1836"/><ellipse cx="18" cy="178.1836" fill="#84BE84" rx="3" ry="3" style="stroke:#038048;stroke-width:1.0;"/><text fill="#000000" font-family="sans-serif" font-size="11" lengthAdjust="spacing" text-decoration="underline" textLength="123" x="27" y="183.7896">Compressor(dictDev:dict)</text><ellipse cx="18" cy="193.2065" fill="#84BE84" rx="3" ry="3" style="stroke:#038048;stroke-width:1.0;"/><text fill="#000000" font-family="sans-serif" font-size="11" lengthAdjust="spacing" textLength="46" x="27" y="198.8125">balance()</text><ellipse cx="18" cy="208.2295" fill="#84BE84" rx="3" ry="3" style="stroke:#038048;stroke-width:1.0;"/><text fill="#000000" font-family="sans-serif" font-size="11" lengthAdjust="spacing" textLength="32" x="27" y="213.8354">state()</text><ellipse cx="18" cy="223.2524" fill="#84BE84" rx="3" ry="3" style="stroke:#038048;stroke-width:1.0;"/><text fill="#000000" font-family="sans-serif" font-size="11" lengthAdjust="spacing" textLength="61" x="27" y="228.8584">__str()__:str</text><!--MD5=[e501cbc99ad27e36fdb550ea4575d438]
class Condenser--><rect codeLine="15" fill="#FEFECE" filter="url(#f1eafw74dqmhj4)" height="213.2524" id="Condenser" style="stroke:#A80036;stroke-width:1.5;" width="143" x="191" y="14.5"/><ellipse cx="228.05" cy="30.5" fill="#ADD1B2" rx="11" ry="11" style="stroke:#A80036;stroke-width:1.0;"/><path d="M226.6281,35.8594 Q224.7688,35.8594 223.675,34.4688 Q222.5813,33.0781 222.5813,30.0938 Q222.5813,27.5625 223.7453,25.9063 Q224.9094,24.25 226.8938,24.25 Q228.3625,24.25 228.8313,24.375 Q229.3,24.5781 229.3,24.5781 Q229.3,24.5781 229.3,24.5078 Q229.3,24.4375 229.9094,23.5156 L230.9563,27.1719 L229.6281,27.5781 Q229.1594,26.0313 228.4953,25.3672 Q227.8313,24.7031 226.7688,24.7031 Q226.3781,24.7031 225.6125,26.2344 Q224.8469,27.7656 224.8469,30.0156 Q224.8469,32.4844 225.5109,33.875 Q226.175,35.2656 226.7063,35.2656 Q227.7688,35.2656 228.5266,34.5 Q229.2844,33.7344 229.6281,32.0781 L230.9563,32.6719 Q230.6281,34.0781 229.7297,34.9688 Q228.8313,35.8594 226.6281,35.8594 Z " fill="#000000"/><text fill="#000000" font-family="sans-serif" font-size="12" lengthAdjust="spacing" textLength="62" x="246.95" y="36.0576">Condenser</text><line style="stroke:#A80036;stroke-width:1.5;" x1="192" x2="333" y1="46.5" y2="46.5"/><ellipse cx="202" cy="57.5" rx="3" ry="3" style="stroke:#038048;stroke-width:1.0;fill:none;"/><text fill="#000000" font-family="sans-serif" font-size="11" lengthAdjust="spacing" text-decoration="underline" textLength="58" x="211" y="63.106">devtype: str</text><ellipse cx="202" cy="72.5229" rx="3" ry="3" style="stroke:#038048;stroke-width:1.0;fill:none;"/><text fill="#000000" font-family="sans-serif" font-size="11" lengthAdjust="spacing" text-decoration="underline" textLength="53" x="211" y="78.1289">energy: str</text><ellipse cx="202" cy="87.5459" rx="3" ry="3" style="stroke:#038048;stroke-width:1.0;fill:none;"/><text fill="#000000" font-family="sans-serif" font-size="11" lengthAdjust="spacing" textLength="45" x="211" y="93.1519">name: str</text><ellipse cx="202" cy="102.5688" rx="3" ry="3" style="stroke:#038048;stroke-width:1.0;fill:none;"/><text fill="#000000" font-family="sans-serif" font-size="11" lengthAdjust="spacing" textLength="58" x="211" y="108.1748">iPort: Port[1]</text><ellipse cx="202" cy="117.5918" rx="3" ry="3" style="stroke:#038048;stroke-width:1.0;fill:none;"/><text fill="#000000" font-family="sans-serif" font-size="11" lengthAdjust="spacing" textLength="62" x="211" y="123.1978">oPort: Port[1]</text><ellipse cx="202" cy="132.6147" rx="3" ry="3" style="stroke:#038048;stroke-width:1.0;fill:none;"/><text fill="#000000" font-family="sans-serif" font-size="11" lengthAdjust="spacing" textLength="59" x="211" y="138.2207">portdict: dict</text><ellipse cx="202" cy="147.6377" rx="3" ry="3" style="stroke:#038048;stroke-width:1.0;fill:none;"/><text fill="#000000" font-family="sans-serif" font-size="11" lengthAdjust="spacing" textLength="50" x="211" y="153.2437">Qout: float</text><line style="stroke:#A80036;stroke-width:1.5;" x1="192" x2="333" y1="159.6606" y2="159.6606"/><ellipse cx="202" cy="170.6606" fill="#84BE84" rx="3" ry="3" style="stroke:#038048;stroke-width:1.0;"/><text fill="#000000" font-family="sans-serif" font-size="11" lengthAdjust="spacing" text-decoration="underline" textLength="117" x="211" y="176.2666">Condenser(dictDev:dict)</text><ellipse cx="202" cy="185.6836" fill="#84BE84" rx="3" ry="3" style="stroke:#038048;stroke-width:1.0;"/><text fill="#000000" font-family="sans-serif" font-size="11" lengthAdjust="spacing" textLength="46" x="211" y="191.2896">balance()</text><ellipse cx="202" cy="200.7065" fill="#84BE84" rx="3" ry="3" style="stroke:#038048;stroke-width:1.0;"/><text fill="#000000" font-family="sans-serif" font-size="11" lengthAdjust="spacing" textLength="32" x="211" y="206.3125">state()</text><ellipse cx="202" cy="215.7295" fill="#84BE84" rx="3" ry="3" style="stroke:#038048;stroke-width:1.0;"/><text fill="#000000" font-family="sans-serif" font-size="11" lengthAdjust="spacing" textLength="61" x="211" y="221.3354">__str()__:str</text><!--MD5=[d55cb724ad6d3b4dba928fddb96ecd4e]
class Evaporator--><rect codeLine="28" fill="#FEFECE" filter="url(#f1eafw74dqmhj4)" height="213.2524" id="Evaporator" style="stroke:#A80036;stroke-width:1.5;" width="147" x="369" y="14.5"/><ellipse cx="409.2" cy="30.5" fill="#ADD1B2" rx="11" ry="11" style="stroke:#A80036;stroke-width:1.0;"/><path d="M407.7781,35.8594 Q405.9188,35.8594 404.825,34.4688 Q403.7313,33.0781 403.7313,30.0938 Q403.7313,27.5625 404.8953,25.9063 Q406.0594,24.25 408.0438,24.25 Q409.5125,24.25 409.9813,24.375 Q410.45,24.5781 410.45,24.5781 Q410.45,24.5781 410.45,24.5078 Q410.45,24.4375 411.0594,23.5156 L412.1063,27.1719 L410.7781,27.5781 Q410.3094,26.0313 409.6453,25.3672 Q408.9813,24.7031 407.9188,24.7031 Q407.5281,24.7031 406.7625,26.2344 Q405.9969,27.7656 405.9969,30.0156 Q405.9969,32.4844 406.6609,33.875 Q407.325,35.2656 407.8563,35.2656 Q408.9188,35.2656 409.6766,34.5 Q410.4344,33.7344 410.7781,32.0781 L412.1063,32.6719 Q411.7781,34.0781 410.8797,34.9688 Q409.9813,35.8594 407.7781,35.8594 Z " fill="#000000"/><text fill="#000000" font-family="sans-serif" font-size="12" lengthAdjust="spacing" textLength="59" x="428.8" y="36.0576">Evaporator</text><line style="stroke:#A80036;stroke-width:1.5;" x1="370" x2="515" y1="46.5" y2="46.5"/><ellipse cx="380" cy="57.5" rx="3" ry="3" style="stroke:#038048;stroke-width:1.0;fill:none;"/><text fill="#000000" font-family="sans-serif" font-size="11" lengthAdjust="spacing" text-decoration="underline" textLength="58" x="389" y="63.106">devtype: str</text><ellipse cx="380" cy="72.5229" rx="3" ry="3" style="stroke:#038048;stroke-width:1.0;fill:none;"/><text fill="#000000" font-family="sans-serif" font-size="11" lengthAdjust="spacing" text-decoration="underline" textLength="53" x="389" y="78.1289">energy: str</text><ellipse cx="380" cy="87.5459" rx="3" ry="3" style="stroke:#038048;stroke-width:1.0;fill:none;"/><text fill="#000000" font-family="sans-serif" font-size="11" lengthAdjust="spacing" textLength="45" x="389" y="93.1519">name: str</text><ellipse cx="380" cy="102.5688" rx="3" ry="3" style="stroke:#038048;stroke-width:1.0;fill:none;"/><text fill="#000000" font-family="sans-serif" font-size="11" lengthAdjust="spacing" textLength="58" x="389" y="108.1748">iPort: Port[1]</text><ellipse cx="380" cy="117.5918" rx="3" ry="3" style="stroke:#038048;stroke-width:1.0;fill:none;"/><text fill="#000000" font-family="sans-serif" font-size="11" lengthAdjust="spacing" textLength="62" x="389" y="123.1978">oPort: Port[1]</text><ellipse cx="380" cy="132.6147" rx="3" ry="3" style="stroke:#038048;stroke-width:1.0;fill:none;"/><text fill="#000000" font-family="sans-serif" font-size="11" lengthAdjust="spacing" textLength="59" x="389" y="138.2207">portdict: dict</text><ellipse cx="380" cy="147.6377" rx="3" ry="3" style="stroke:#038048;stroke-width:1.0;fill:none;"/><text fill="#000000" font-family="sans-serif" font-size="11" lengthAdjust="spacing" textLength="43" x="389" y="153.2437">Qin: float</text><line style="stroke:#A80036;stroke-width:1.5;" x1="370" x2="515" y1="159.6606" y2="159.6606"/><ellipse cx="380" cy="170.6606" fill="#84BE84" rx="3" ry="3" style="stroke:#038048;stroke-width:1.0;"/><text fill="#000000" font-family="sans-serif" font-size="11" lengthAdjust="spacing" text-decoration="underline" textLength="121" x="389" y="176.2666">Evaporatorr(dictDev:dict)</text><ellipse cx="380" cy="185.6836" fill="#84BE84" rx="3" ry="3" style="stroke:#038048;stroke-width:1.0;"/><text fill="#000000" font-family="sans-serif" font-size="11" lengthAdjust="spacing" textLength="46" x="389" y="191.2896">balance()</text><ellipse cx="380" cy="200.7065" fill="#84BE84" rx="3" ry="3" style="stroke:#038048;stroke-width:1.0;"/><text fill="#000000" font-family="sans-serif" font-size="11" lengthAdjust="spacing" textLength="32" x="389" y="206.3125">state()</text><ellipse cx="380" cy="215.7295" fill="#84BE84" rx="3" ry="3" style="stroke:#038048;stroke-width:1.0;"/><text fill="#000000" font-family="sans-serif" font-size="11" lengthAdjust="spacing" textLength="61" x="389" y="221.3354">__str()__:str</text><!--MD5=[7022f0b8ea096adfd271207b1a133ca4]
class ExpansionValve--><rect codeLine="41" fill="#FEFECE" filter="url(#f1eafw74dqmhj4)" height="198.2295" id="ExpansionValve" style="stroke:#A80036;stroke-width:1.5;" width="168" x="551.5" y="22"/><ellipse cx="588.55" cy="38" fill="#ADD1B2" rx="11" ry="11" style="stroke:#A80036;stroke-width:1.0;"/><path d="M587.1281,43.3594 Q585.2688,43.3594 584.175,41.9688 Q583.0813,40.5781 583.0813,37.5938 Q583.0813,35.0625 584.2453,33.4063 Q585.4094,31.75 587.3938,31.75 Q588.8625,31.75 589.3313,31.875 Q589.8,32.0781 589.8,32.0781 Q589.8,32.0781 589.8,32.0078 Q589.8,31.9375 590.4094,31.0156 L591.4563,34.6719 L590.1281,35.0781 Q589.6594,33.5313 588.9953,32.8672 Q588.3313,32.2031 587.2688,32.2031 Q586.8781,32.2031 586.1125,33.7344 Q585.3469,35.2656 585.3469,37.5156 Q585.3469,39.9844 586.0109,41.375 Q586.675,42.7656 587.2063,42.7656 Q588.2688,42.7656 589.0266,42 Q589.7844,41.2344 590.1281,39.5781 L591.4563,40.1719 Q591.1281,41.5781 590.2297,42.4688 Q589.3313,43.3594 587.1281,43.3594 Z " fill="#000000"/><text fill="#000000" font-family="sans-serif" font-size="12" lengthAdjust="spacing" textLength="87" x="607.45" y="43.5576">ExpansionValve</text><line style="stroke:#A80036;stroke-width:1.5;" x1="552.5" x2="718.5" y1="54" y2="54"/><ellipse cx="562.5" cy="65" rx="3" ry="3" style="stroke:#038048;stroke-width:1.0;fill:none;"/><text fill="#000000" font-family="sans-serif" font-size="11" lengthAdjust="spacing" text-decoration="underline" textLength="58" x="571.5" y="70.606">devtype: str</text><ellipse cx="562.5" cy="80.0229" rx="3" ry="3" style="stroke:#038048;stroke-width:1.0;fill:none;"/><text fill="#000000" font-family="sans-serif" font-size="11" lengthAdjust="spacing" text-decoration="underline" textLength="53" x="571.5" y="85.6289">energy: str</text><ellipse cx="562.5" cy="95.0459" rx="3" ry="3" style="stroke:#038048;stroke-width:1.0;fill:none;"/><text fill="#000000" font-family="sans-serif" font-size="11" lengthAdjust="spacing" textLength="45" x="571.5" y="100.6519">name: str</text><ellipse cx="562.5" cy="110.0688" rx="3" ry="3" style="stroke:#038048;stroke-width:1.0;fill:none;"/><text fill="#000000" font-family="sans-serif" font-size="11" lengthAdjust="spacing" textLength="58" x="571.5" y="115.6748">iPort: Port[1]</text><ellipse cx="562.5" cy="125.0918" rx="3" ry="3" style="stroke:#038048;stroke-width:1.0;fill:none;"/><text fill="#000000" font-family="sans-serif" font-size="11" lengthAdjust="spacing" textLength="62" x="571.5" y="130.6978">oPort: Port[1]</text><ellipse cx="562.5" cy="140.1147" rx="3" ry="3" style="stroke:#038048;stroke-width:1.0;fill:none;"/><text fill="#000000" font-family="sans-serif" font-size="11" lengthAdjust="spacing" textLength="59" x="571.5" y="145.7207">portdict: dict</text><line style="stroke:#A80036;stroke-width:1.5;" x1="552.5" x2="718.5" y1="152.1377" y2="152.1377"/><ellipse cx="562.5" cy="163.1377" fill="#84BE84" rx="3" ry="3" style="stroke:#038048;stroke-width:1.0;"/><text fill="#000000" font-family="sans-serif" font-size="11" lengthAdjust="spacing" text-decoration="underline" textLength="142" x="571.5" y="168.7437">ExpansionValve(dictDev:dict)</text><ellipse cx="562.5" cy="178.1606" fill="#84BE84" rx="3" ry="3" style="stroke:#038048;stroke-width:1.0;"/><text fill="#000000" font-family="sans-serif" font-size="11" lengthAdjust="spacing" textLength="46" x="571.5" y="183.7666">balance()</text><ellipse cx="562.5" cy="193.1836" fill="#84BE84" rx="3" ry="3" style="stroke:#038048;stroke-width:1.0;"/><text fill="#000000" font-family="sans-serif" font-size="11" lengthAdjust="spacing" textLength="32" x="571.5" y="198.7896">state()</text><ellipse cx="562.5" cy="208.2065" fill="#84BE84" rx="3" ry="3" style="stroke:#038048;stroke-width:1.0;"/><text fill="#000000" font-family="sans-serif" font-size="11" lengthAdjust="spacing" textLength="61" x="571.5" y="213.8125">__str()__:str</text><!--MD5=[a0bfe97ac0a38e6e74cc1c7c7b744b71]
class Port--><rect fill="#FEFECE" filter="url(#f1eafw74dqmhj4)" height="48" id="Port" style="stroke:#A80036;stroke-width:1.5;" width="54" x="325.5" y="295"/><ellipse cx="340.5" cy="311" fill="#ADD1B2" rx="11" ry="11" style="stroke:#A80036;stroke-width:1.0;"/><path d="M339.0781,316.3594 Q337.2188,316.3594 336.125,314.9688 Q335.0313,313.5781 335.0313,310.5938 Q335.0313,308.0625 336.1953,306.4063 Q337.3594,304.75 339.3438,304.75 Q340.8125,304.75 341.2813,304.875 Q341.75,305.0781 341.75,305.0781 Q341.75,305.0781 341.75,305.0078 Q341.75,304.9375 342.3594,304.0156 L343.4063,307.6719 L342.0781,308.0781 Q341.6094,306.5313 340.9453,305.8672 Q340.2813,305.2031 339.2188,305.2031 Q338.8281,305.2031 338.0625,306.7344 Q337.2969,308.2656 337.2969,310.5156 Q337.2969,312.9844 337.9609,314.375 Q338.625,315.7656 339.1563,315.7656 Q340.2188,315.7656 340.9766,315 Q341.7344,314.2344 342.0781,312.5781 L343.4063,313.1719 Q343.0781,314.5781 342.1797,315.4688 Q341.2813,316.3594 339.0781,316.3594 Z " fill="#000000"/><text fill="#000000" font-family="sans-serif" font-size="12" lengthAdjust="spacing" textLength="22" x="354.5" y="316.5576">Port</text><line style="stroke:#A80036;stroke-width:1.5;" x1="326.5" x2="378.5" y1="327" y2="327"/><line style="stroke:#A80036;stroke-width:1.5;" x1="326.5" x2="378.5" y1="335" y2="335"/><!--MD5=[0d31584b7874b6687f2f44d8fe3fe039]
reverse link Compressor to Port--><path codeLine="53" d="M166.12,228.98 C168.55,231.06 171.01,233.07 173.5,235 C221.23,272.11 288.23,297.5 325.24,309.69 " fill="none" id="Compressor-backto-Port" style="stroke:#A80036;stroke-width:1.0;"/><polygon fill="#A80036" points="156.28,220.09,158.0496,227.0806,165.1831,228.1358,163.4135,221.1452,156.28,220.09" style="stroke:#A80036;stroke-width:1.0;"/><text fill="#000000" font-family="sans-serif" font-size="13" lengthAdjust="spacing" textLength="7" x="163.9857" y="226.929">1</text><text fill="#000000" font-family="sans-serif" font-size="13" lengthAdjust="spacing" textLength="7" x="310.3578" y="303.1208">2</text><!--MD5=[8d5bbae928a54264588ac05cf27ff6c9]
reverse link ExpansionValve to Port--><path codeLine="54" d="M541.98,228.47 C539.18,230.73 536.35,232.91 533.5,235 C484.31,271.11 416.91,296.88 379.79,309.4 " fill="none" id="ExpansionValve-backto-Port" style="stroke:#A80036;stroke-width:1.0;"/><polygon fill="#A80036" points="552.01,220.01,544.8452,220.8256,542.8424,227.753,550.0072,226.9374,552.01,220.01" style="stroke:#A80036;stroke-width:1.0;"/><text fill="#000000" font-family="sans-serif" font-size="13" lengthAdjust="spacing" textLength="7" x="536.4469" y="226.8434">1</text><text fill="#000000" font-family="sans-serif" font-size="13" lengthAdjust="spacing" textLength="7" x="387.6799" y="302.7565">2</text><!--MD5=[4ac2cdaf529f64a8b77244e8eeb71c81]
reverse link Evaporator to Port--><path codeLine="55" d="M388.4,239.83 C378.79,260.75 369.76,280.42 363.16,294.79 " fill="none" id="Evaporator-backto-Port" style="stroke:#A80036;stroke-width:1.0;"/><polygon fill="#A80036" points="393.94,227.74,387.8002,231.5219,388.9297,238.644,395.0695,234.8621,393.94,227.74" style="stroke:#A80036;stroke-width:1.0;"/><text fill="#000000" font-family="sans-serif" font-size="13" lengthAdjust="spacing" textLength="7" x="383.2795" y="250.7584">1</text><text fill="#000000" font-family="sans-serif" font-size="13" lengthAdjust="spacing" textLength="7" x="358.0843" y="283.9985">2</text><!--MD5=[9cf70ca5f93b9adf535e337720b6c44c]
reverse link Condenser to Port--><path codeLine="56" d="M316.6,239.83 C326.21,260.75 335.24,280.42 341.84,294.79 " fill="none" id="Condenser-backto-Port" style="stroke:#A80036;stroke-width:1.0;"/><polygon fill="#A80036" points="311.06,227.74,309.9305,234.8621,316.0703,238.644,317.1998,231.5219,311.06,227.74" style="stroke:#A80036;stroke-width:1.0;"/><text fill="#000000" font-family="sans-serif" font-size="13" lengthAdjust="spacing" textLength="7" x="307.2283" y="250.7584">1</text><text fill="#000000" font-family="sans-serif" font-size="13" lengthAdjust="spacing" textLength="7" x="331.0345" y="283.9985">2</text><!--MD5=[39fdac435de19172ff36608907fc215f]
@startuml
class Compressor {
 + {static} devtype: str
 + {static} energy: str
 + name: str
 + iPort: Port[1]
 + oPort: Port[1]
 + portdict: dict
 + ef: float
 + Wc: float
 + {static} Compressor(dictDev:dict)
 + balance()
 + state()
 + __str()__:str
}
class Condenser {
 + {static} devtype: str
 + {static} energy: str
 + name: str
 + iPort: Port[1]
 + oPort: Port[1]
 + portdict: dict
 + Qout: float
 + {static} Condenser(dictDev:dict)
 + balance()
 + state()
 + __str()__:str
}
class Evaporator {
 + {static} devtype: str
 + {static} energy: str
 + name: str
 + iPort: Port[1]
 + oPort: Port[1]
 + portdict: dict
 + Qin: float
 + {static} Evaporatorr(dictDev:dict)
 + balance()
 + state()
 + __str()__:str
}
class ExpansionValve {
 + {static} devtype: str
 + {static} energy: str
 + name: str
 + iPort: Port[1]
 + oPort: Port[1]
 + portdict: dict
 + {static} ExpansionValve(dictDev:dict)
 + balance()
 + state()
 + __str()__:str
}
Compressor "1" *- - "2" Port
ExpansionValve "1" *- - "2" Port
Evaporator "1" *- - "2" Port
Condenser "1" *- - "2" Port
@enduml

PlantUML version 1.2022.0(Wed Jan 12 00:16:42 CST 2022)
(GPL source distribution)
Java Runtime: Java(TM) SE Runtime Environment
JVM: Java HotSpot(TM) 64-Bit Server VM
Default Encoding: GBK
Language: zh
Country: CN
--></g></svg>