<?xml version="1.0" encoding="UTF-8" standalone="no"?><svg xmlns="http://www.w3.org/2000/svg" xmlns:xlink="http://www.w3.org/1999/xlink" contentScriptType="application/ecmascript" contentStyleType="text/css" height="492px" preserveAspectRatio="none" style="width:333px;height:492px;background:#FFFFFF;" version="1.1" viewBox="0 0 333 492" width="333px" zoomAndPan="magnify"><defs><filter height="300%" id="f1ljcs3ttk8pta" width="300%" x="-1" y="-1"><feGaussianBlur result="blurOut" stdDeviation="2.0"/><feColorMatrix in="blurOut" result="blurOut2" type="matrix" values="0 0 0 0 0 0 0 0 0 0 0 0 0 0 0 0 0 0 .4 0"/><feOffset dx="4.0" dy="4.0" in="blurOut2" result="blurOut3"/><feBlend in="SourceGraphic" in2="blurOut3" mode="normal"/></filter></defs><g><!--MD5=[a0bfe97ac0a38e6e74cc1c7c7b744b71]
class Port--><rect codeLine="1" fill="#FEFECE" filter="url(#f1ljcs3ttk8pta)" height="288.3672" id="Port" style="stroke:#A80036;stroke-width:1.5;" width="168" x="79" y="190"/><ellipse cx="147.75" cy="206" fill="#ADD1B2" rx="11" ry="11" style="stroke:#A80036;stroke-width:1.0;"/><path d="M146.3281,211.3594 Q144.4688,211.3594 143.375,209.9688 Q142.2813,208.5781 142.2813,205.5938 Q142.2813,203.0625 143.4453,201.4063 Q144.6094,199.75 146.5938,199.75 Q148.0625,199.75 148.5313,199.875 Q149,200.0781 149,200.0781 Q149,200.0781 149,200.0078 Q149,199.9375 149.6094,199.0156 L150.6563,202.6719 L149.3281,203.0781 Q148.8594,201.5313 148.1953,200.8672 Q147.5313,200.2031 146.4688,200.2031 Q146.0781,200.2031 145.3125,201.7344 Q144.5469,203.2656 144.5469,205.5156 Q144.5469,207.9844 145.2109,209.375 Q145.875,210.7656 146.4063,210.7656 Q147.4688,210.7656 148.2266,210 Q148.9844,209.2344 149.3281,207.5781 L150.6563,208.1719 Q150.3281,209.5781 149.4297,210.4688 Q148.5313,211.3594 146.3281,211.3594 Z " fill="#000000"/><text fill="#000000" font-family="sans-serif" font-size="12" lengthAdjust="spacing" textLength="22" x="168.25" y="211.5576">Port</text><line style="stroke:#A80036;stroke-width:1.5;" x1="80" x2="246" y1="222" y2="222"/><ellipse cx="90" cy="233" rx="3" ry="3" style="stroke:#038048;stroke-width:1.0;fill:none;"/><text fill="#000000" font-family="sans-serif" font-size="11" lengthAdjust="spacing" text-decoration="underline" textLength="142" x="99" y="238.606">cycle_refrigerant : str=R134a</text><ellipse cx="90" cy="248.0229" rx="3" ry="3" style="stroke:#038048;stroke-width:1.0;fill:none;"/><text fill="#000000" font-family="sans-serif" font-size="11" lengthAdjust="spacing" text-decoration="underline" textLength="30" x="99" y="253.6289">w : int</text><ellipse cx="90" cy="263.0459" rx="3" ry="3" style="stroke:#038048;stroke-width:1.0;fill:none;"/><text fill="#000000" font-family="sans-serif" font-size="11" lengthAdjust="spacing" text-decoration="underline" textLength="38" x="99" y="268.6519">title : str</text><ellipse cx="90" cy="278.0688" rx="3" ry="3" style="stroke:#038048;stroke-width:1.0;fill:none;"/><text fill="#000000" font-family="sans-serif" font-size="11" lengthAdjust="spacing" text-decoration="underline" textLength="50" x="99" y="283.6748">pairs : dict</text><ellipse cx="90" cy="293.0918" rx="3" ry="3" style="stroke:#038048;stroke-width:1.0;fill:none;"/><text fill="#000000" font-family="sans-serif" font-size="11" lengthAdjust="spacing" textLength="73" x="99" y="298.6978">refrigerant : str</text><ellipse cx="90" cy="308.1147" rx="3" ry="3" style="stroke:#038048;stroke-width:1.0;fill:none;"/><text fill="#000000" font-family="sans-serif" font-size="11" lengthAdjust="spacing" textLength="46" x="99" y="313.7207">index : int</text><ellipse cx="90" cy="323.1377" rx="3" ry="3" style="stroke:#038048;stroke-width:1.0;fill:none;"/><text fill="#000000" font-family="sans-serif" font-size="11" lengthAdjust="spacing" textLength="36" x="99" y="328.7437">p : float</text><ellipse cx="90" cy="338.1606" rx="3" ry="3" style="stroke:#038048;stroke-width:1.0;fill:none;"/><text fill="#000000" font-family="sans-serif" font-size="11" lengthAdjust="spacing" textLength="33" x="99" y="343.7666">t : float</text><ellipse cx="90" cy="353.1836" rx="3" ry="3" style="stroke:#038048;stroke-width:1.0;fill:none;"/><text fill="#000000" font-family="sans-serif" font-size="11" lengthAdjust="spacing" textLength="36" x="99" y="358.7896">x : float</text><ellipse cx="90" cy="368.2065" rx="3" ry="3" style="stroke:#038048;stroke-width:1.0;fill:none;"/><text fill="#000000" font-family="sans-serif" font-size="11" lengthAdjust="spacing" textLength="36" x="99" y="373.8125">h : float</text><ellipse cx="90" cy="383.2295" rx="3" ry="3" style="stroke:#038048;stroke-width:1.0;fill:none;"/><text fill="#000000" font-family="sans-serif" font-size="11" lengthAdjust="spacing" textLength="36" x="99" y="388.8354">s : float</text><ellipse cx="90" cy="398.2524" rx="3" ry="3" style="stroke:#038048;stroke-width:1.0;fill:none;"/><text fill="#000000" font-family="sans-serif" font-size="11" lengthAdjust="spacing" textLength="53" x="99" y="403.8584">mdot : float</text><ellipse cx="90" cy="413.2754" rx="3" ry="3" style="stroke:#038048;stroke-width:1.0;fill:none;"/><text fill="#000000" font-family="sans-serif" font-size="11" lengthAdjust="spacing" textLength="58" x="99" y="418.8813">stateok:bool</text><line style="stroke:#A80036;stroke-width:1.5;" x1="80" x2="246" y1="425.2983" y2="425.2983"/><ellipse cx="90" cy="436.2983" fill="#84BE84" rx="3" ry="3" style="stroke:#038048;stroke-width:1.0;"/><text fill="#000000" font-family="sans-serif" font-size="11" lengthAdjust="spacing" text-decoration="underline" textLength="94" x="99" y="441.9043">Port(dictnode : dict)</text><ellipse cx="90" cy="451.3213" fill="#84BE84" rx="3" ry="3" style="stroke:#038048;stroke-width:1.0;"/><text fill="#000000" font-family="sans-serif" font-size="11" lengthAdjust="spacing" textLength="32" x="99" y="456.9272">state()</text><ellipse cx="90" cy="466.3442" fill="#84BE84" rx="3" ry="3" style="stroke:#038048;stroke-width:1.0;"/><text fill="#000000" font-family="sans-serif" font-size="11" lengthAdjust="spacing" textLength="61" x="99" y="471.9502">__str()__:str</text><!--MD5=[2e807730047ae2e9fc9e944cb69597f3]
class Connector--><rect codeLine="19" fill="#FEFECE" filter="url(#f1ljcs3ttk8pta)" height="123.1147" id="Connector" style="stroke:#A80036;stroke-width:1.5;" width="312" x="7" y="7"/><ellipse cx="130.25" cy="23" fill="#ADD1B2" rx="11" ry="11" style="stroke:#A80036;stroke-width:1.0;"/><path d="M128.8281,28.3594 Q126.9688,28.3594 125.875,26.9688 Q124.7813,25.5781 124.7813,22.5938 Q124.7813,20.0625 125.9453,18.4063 Q127.1094,16.75 129.0938,16.75 Q130.5625,16.75 131.0313,16.875 Q131.5,17.0781 131.5,17.0781 Q131.5,17.0781 131.5,17.0078 Q131.5,16.9375 132.1094,16.0156 L133.1563,19.6719 L131.8281,20.0781 Q131.3594,18.5313 130.6953,17.8672 Q130.0313,17.2031 128.9688,17.2031 Q128.5781,17.2031 127.8125,18.7344 Q127.0469,20.2656 127.0469,22.5156 Q127.0469,24.9844 127.7109,26.375 Q128.375,27.7656 128.9063,27.7656 Q129.9688,27.7656 130.7266,27 Q131.4844,26.2344 131.8281,24.5781 L133.1563,25.1719 Q132.8281,26.5781 131.9297,27.4688 Q131.0313,28.3594 128.8281,28.3594 Z " fill="#000000"/><text fill="#000000" font-family="sans-serif" font-size="12" lengthAdjust="spacing" textLength="57" x="150.75" y="28.5576">Connector</text><line style="stroke:#A80036;stroke-width:1.5;" x1="8" x2="318" y1="39" y2="39"/><ellipse cx="18" cy="50" rx="3" ry="3" style="stroke:#038048;stroke-width:1.0;fill:none;"/><text fill="#000000" font-family="sans-serif" font-size="11" lengthAdjust="spacing" textLength="56" x="27" y="55.606">curindex:int</text><ellipse cx="18" cy="65.0229" rx="3" ry="3" style="stroke:#038048;stroke-width:1.0;fill:none;"/><text fill="#000000" font-family="sans-serif" font-size="11" lengthAdjust="spacing" textLength="74" x="27" y="70.6289">nodes:Port[0..*]</text><line style="stroke:#A80036;stroke-width:1.5;" x1="8" x2="318" y1="77.0459" y2="77.0459"/><ellipse cx="18" cy="88.0459" fill="#84BE84" rx="3" ry="3" style="stroke:#038048;stroke-width:1.0;"/><text fill="#000000" font-family="sans-serif" font-size="11" lengthAdjust="spacing" text-decoration="underline" textLength="58" x="27" y="93.6519">Connector()</text><rect fill="#F24D5C" height="6" style="stroke:#C82930;stroke-width:1.0;" width="6" x="15" y="100.0688"/><text fill="#000000" font-family="sans-serif" font-size="11" lengthAdjust="spacing" textLength="227" x="27" y="108.6748">__combined_node_value(node : Port,port: Port)</text><ellipse cx="18" cy="118.0918" fill="#84BE84" rx="3" ry="3" style="stroke:#038048;stroke-width:1.0;"/><text fill="#000000" font-family="sans-serif" font-size="11" lengthAdjust="spacing" textLength="286" x="27" y="123.6978">add_node(tupConnector : tuple,comps : dict of the devices)</text><!--MD5=[95b04b18fdf924c0a271becdd6a1b191]
reverse link Connector to Port--><path codeLine="26" d="M163,143.33 C163,157.94 163,173.73 163,189.75 " fill="none" id="Connector-backto-Port" style="stroke:#A80036;stroke-width:1.0;"/><polygon fill="#A80036" points="163,130.28,159,136.28,163,142.28,167,136.28,163,130.28" style="stroke:#A80036;stroke-width:1.0;"/><text fill="#000000" font-family="sans-serif" font-size="13" lengthAdjust="spacing" textLength="7" x="155.6172" y="152.8998">1</text><text fill="#000000" font-family="sans-serif" font-size="13" lengthAdjust="spacing" textLength="20" x="142.4531" y="179.305">2..*</text><!--MD5=[15c2ac0283c95481a5cb84263e7c7120]
@startuml
class Port {
 + {static} cycle_refrigerant : str=R134a
 + {static} w : int
 + {static} title : str
 + {static} pairs : dict
 + refrigerant : str
 + index : int
 + p : float
 + t : float
 + x : float
 + h : float
 + s : float
 + mdot : float
 + stateok:bool
 + {static} Port(dictnode : dict)
 + state()
 + __str()__:str
}
class Connector {
  + curindex:int
  + nodes:Port[0..*]
  + {static} Connector()
  - __combined_node_value(node : Port,port: Port)
  + add_node(tupConnector : tuple,comps : dict of the devices)
}
Connector"1" *- - "2..*" Port
@enduml

PlantUML version 1.2022.0(Wed Jan 12 00:16:42 CST 2022)
(GPL source distribution)
Java Runtime: Java(TM) SE Runtime Environment
JVM: Java HotSpot(TM) 64-Bit Server VM
Default Encoding: GBK
Language: zh
Country: CN
--></g></svg>