<?xml version="1.0" encoding="UTF-8" standalone="no"?><svg xmlns="http://www.w3.org/2000/svg" xmlns:xlink="http://www.w3.org/1999/xlink" contentScriptType="application/ecmascript" contentStyleType="text/css" height="425px" preserveAspectRatio="none" style="width:420px;height:425px;background:#FFFFFF;" version="1.1" viewBox="0 0 420 425" width="420px" zoomAndPan="magnify"><defs><filter height="300%" id="f1i0zzyc3vrmww" width="300%" x="-1" y="-1"><feGaussianBlur result="blurOut" stdDeviation="2.0"/><feColorMatrix in="blurOut" result="blurOut2" type="matrix" values="0 0 0 0 0 0 0 0 0 0 0 0 0 0 0 0 0 0 .4 0"/><feOffset dx="4.0" dy="4.0" in="blurOut2" result="blurOut3"/><feBlend in="SourceGraphic" in2="blurOut3" mode="normal"/></filter></defs><g><!--MD5=[67a6735b2a5707e03290b64fb931c9ce]
cluster components--><polygon fill="#FFFFFF" filter="url(#f1i0zzyc3vrmww)" points="16,191,109,191,116,216.1201,403,216.1201,403,418,16,418,16,191" style="stroke:#000000;stroke-width:1.5;"/><line style="stroke:#000000;stroke-width:1.5;" x1="16" x2="116" y1="216.1201" y2="216.1201"/><text fill="#000000" font-family="sans-serif" font-size="14" font-weight="bold" lengthAdjust="spacing" textLength="87" x="20" y="209.0439">components</text><!--MD5=[2a2d47382f596aad31b1b6b8254d0d13]
cluster vcc--><polygon fill="#FFFFFF" filter="url(#f1i0zzyc3vrmww)" points="16,6,47,6,54,31.1201,286,31.1201,286,124,16,124,16,6" style="stroke:#000000;stroke-width:1.5;"/><line style="stroke:#000000;stroke-width:1.5;" x1="16" x2="54" y1="31.1201" y2="31.1201"/><text fill="#000000" font-family="sans-serif" font-size="14" font-weight="bold" lengthAdjust="spacing" textLength="25" x="20" y="24.0439">vcc</text><!--MD5=[a0bfe97ac0a38e6e74cc1c7c7b744b71]
class Port--><rect codeLine="2" fill="#FEFECE" filter="url(#f1i0zzyc3vrmww)" height="48" id="Port" style="stroke:#A80036;stroke-width:1.5;" width="54" x="59" y="237"/><ellipse cx="74" cy="253" fill="#ADD1B2" rx="11" ry="11" style="stroke:#A80036;stroke-width:1.0;"/><path d="M72.5781,258.3594 Q70.7188,258.3594 69.625,256.9688 Q68.5313,255.5781 68.5313,252.5938 Q68.5313,250.0625 69.6953,248.4063 Q70.8594,246.75 72.8438,246.75 Q74.3125,246.75 74.7813,246.875 Q75.25,247.0781 75.25,247.0781 Q75.25,247.0781 75.25,247.0078 Q75.25,246.9375 75.8594,246.0156 L76.9063,249.6719 L75.5781,250.0781 Q75.1094,248.5313 74.4453,247.8672 Q73.7813,247.2031 72.7188,247.2031 Q72.3281,247.2031 71.5625,248.7344 Q70.7969,250.2656 70.7969,252.5156 Q70.7969,254.9844 71.4609,256.375 Q72.125,257.7656 72.6563,257.7656 Q73.7188,257.7656 74.4766,257 Q75.2344,256.2344 75.5781,254.5781 L76.9063,255.1719 Q76.5781,256.5781 75.6797,257.4688 Q74.7813,258.3594 72.5781,258.3594 Z " fill="#000000"/><text fill="#000000" font-family="sans-serif" font-size="12" lengthAdjust="spacing" textLength="22" x="88" y="258.5576">Port</text><line style="stroke:#A80036;stroke-width:1.5;" x1="60" x2="112" y1="269" y2="269"/><line style="stroke:#A80036;stroke-width:1.5;" x1="60" x2="112" y1="277" y2="277"/><!--MD5=[db8554f2b1c91af4070e9585566a1b26]
class Compressor--><rect codeLine="3" fill="#FEFECE" filter="url(#f1i0zzyc3vrmww)" height="48" id="Compressor" style="stroke:#A80036;stroke-width:1.5;" width="102" x="148" y="237"/><ellipse cx="163" cy="253" fill="#ADD1B2" rx="11" ry="11" style="stroke:#A80036;stroke-width:1.0;"/><path d="M161.5781,258.3594 Q159.7188,258.3594 158.625,256.9688 Q157.5313,255.5781 157.5313,252.5938 Q157.5313,250.0625 158.6953,248.4063 Q159.8594,246.75 161.8438,246.75 Q163.3125,246.75 163.7813,246.875 Q164.25,247.0781 164.25,247.0781 Q164.25,247.0781 164.25,247.0078 Q164.25,246.9375 164.8594,246.0156 L165.9063,249.6719 L164.5781,250.0781 Q164.1094,248.5313 163.4453,247.8672 Q162.7813,247.2031 161.7188,247.2031 Q161.3281,247.2031 160.5625,248.7344 Q159.7969,250.2656 159.7969,252.5156 Q159.7969,254.9844 160.4609,256.375 Q161.125,257.7656 161.6563,257.7656 Q162.7188,257.7656 163.4766,257 Q164.2344,256.2344 164.5781,254.5781 L165.9063,255.1719 Q165.5781,256.5781 164.6797,257.4688 Q163.7813,258.3594 161.5781,258.3594 Z " fill="#000000"/><text fill="#000000" font-family="sans-serif" font-size="12" lengthAdjust="spacing" textLength="70" x="177" y="258.5576">Compressor</text><line style="stroke:#A80036;stroke-width:1.5;" x1="149" x2="249" y1="269" y2="269"/><line style="stroke:#A80036;stroke-width:1.5;" x1="149" x2="249" y1="277" y2="277"/><!--MD5=[e501cbc99ad27e36fdb550ea4575d438]
class Condenser--><rect codeLine="4" fill="#FEFECE" filter="url(#f1i0zzyc3vrmww)" height="48" id="Condenser" style="stroke:#A80036;stroke-width:1.5;" width="94" x="285" y="237"/><ellipse cx="300" cy="253" fill="#ADD1B2" rx="11" ry="11" style="stroke:#A80036;stroke-width:1.0;"/><path d="M298.5781,258.3594 Q296.7188,258.3594 295.625,256.9688 Q294.5313,255.5781 294.5313,252.5938 Q294.5313,250.0625 295.6953,248.4063 Q296.8594,246.75 298.8438,246.75 Q300.3125,246.75 300.7813,246.875 Q301.25,247.0781 301.25,247.0781 Q301.25,247.0781 301.25,247.0078 Q301.25,246.9375 301.8594,246.0156 L302.9063,249.6719 L301.5781,250.0781 Q301.1094,248.5313 300.4453,247.8672 Q299.7813,247.2031 298.7188,247.2031 Q298.3281,247.2031 297.5625,248.7344 Q296.7969,250.2656 296.7969,252.5156 Q296.7969,254.9844 297.4609,256.375 Q298.125,257.7656 298.6563,257.7656 Q299.7188,257.7656 300.4766,257 Q301.2344,256.2344 301.5781,254.5781 L302.9063,255.1719 Q302.5781,256.5781 301.6797,257.4688 Q300.7813,258.3594 298.5781,258.3594 Z " fill="#000000"/><text fill="#000000" font-family="sans-serif" font-size="12" lengthAdjust="spacing" textLength="62" x="314" y="258.5576">Condenser</text><line style="stroke:#A80036;stroke-width:1.5;" x1="286" x2="378" y1="269" y2="269"/><line style="stroke:#A80036;stroke-width:1.5;" x1="286" x2="378" y1="277" y2="277"/><!--MD5=[d55cb724ad6d3b4dba928fddb96ecd4e]
class Evaporator--><rect codeLine="5" fill="#FEFECE" filter="url(#f1i0zzyc3vrmww)" height="48" id="Evaporator" style="stroke:#A80036;stroke-width:1.5;" width="91" x="59.5" y="346"/><ellipse cx="74.5" cy="362" fill="#ADD1B2" rx="11" ry="11" style="stroke:#A80036;stroke-width:1.0;"/><path d="M73.0781,367.3594 Q71.2188,367.3594 70.125,365.9688 Q69.0313,364.5781 69.0313,361.5938 Q69.0313,359.0625 70.1953,357.4063 Q71.3594,355.75 73.3438,355.75 Q74.8125,355.75 75.2813,355.875 Q75.75,356.0781 75.75,356.0781 Q75.75,356.0781 75.75,356.0078 Q75.75,355.9375 76.3594,355.0156 L77.4063,358.6719 L76.0781,359.0781 Q75.6094,357.5313 74.9453,356.8672 Q74.2813,356.2031 73.2188,356.2031 Q72.8281,356.2031 72.0625,357.7344 Q71.2969,359.2656 71.2969,361.5156 Q71.2969,363.9844 71.9609,365.375 Q72.625,366.7656 73.1563,366.7656 Q74.2188,366.7656 74.9766,366 Q75.7344,365.2344 76.0781,363.5781 L77.4063,364.1719 Q77.0781,365.5781 76.1797,366.4688 Q75.2813,367.3594 73.0781,367.3594 Z " fill="#000000"/><text fill="#000000" font-family="sans-serif" font-size="12" lengthAdjust="spacing" textLength="59" x="88.5" y="367.5576">Evaporator</text><line style="stroke:#A80036;stroke-width:1.5;" x1="60.5" x2="149.5" y1="378" y2="378"/><line style="stroke:#A80036;stroke-width:1.5;" x1="60.5" x2="149.5" y1="386" y2="386"/><!--MD5=[7022f0b8ea096adfd271207b1a133ca4]
class ExpansionValve--><rect codeLine="6" fill="#FEFECE" filter="url(#f1i0zzyc3vrmww)" height="48" id="ExpansionValve" style="stroke:#A80036;stroke-width:1.5;" width="119" x="185.5" y="346"/><ellipse cx="200.5" cy="362" fill="#ADD1B2" rx="11" ry="11" style="stroke:#A80036;stroke-width:1.0;"/><path d="M199.0781,367.3594 Q197.2188,367.3594 196.125,365.9688 Q195.0313,364.5781 195.0313,361.5938 Q195.0313,359.0625 196.1953,357.4063 Q197.3594,355.75 199.3438,355.75 Q200.8125,355.75 201.2813,355.875 Q201.75,356.0781 201.75,356.0781 Q201.75,356.0781 201.75,356.0078 Q201.75,355.9375 202.3594,355.0156 L203.4063,358.6719 L202.0781,359.0781 Q201.6094,357.5313 200.9453,356.8672 Q200.2813,356.2031 199.2188,356.2031 Q198.8281,356.2031 198.0625,357.7344 Q197.2969,359.2656 197.2969,361.5156 Q197.2969,363.9844 197.9609,365.375 Q198.625,366.7656 199.1563,366.7656 Q200.2188,366.7656 200.9766,366 Q201.7344,365.2344 202.0781,363.5781 L203.4063,364.1719 Q203.0781,365.5781 202.1797,366.4688 Q201.2813,367.3594 199.0781,367.3594 Z " fill="#000000"/><text fill="#000000" font-family="sans-serif" font-size="12" lengthAdjust="spacing" textLength="87" x="214.5" y="367.5576">ExpansionValve</text><line style="stroke:#A80036;stroke-width:1.5;" x1="186.5" x2="303.5" y1="378" y2="378"/><line style="stroke:#A80036;stroke-width:1.5;" x1="186.5" x2="303.5" y1="386" y2="386"/><!--MD5=[feb0ce9c8d9562f421c64b2ab713749f]
class VCCycle--><rect codeLine="9" fill="#FEFECE" filter="url(#f1i0zzyc3vrmww)" height="48" id="VCCycle" style="stroke:#A80036;stroke-width:1.5;" width="78" x="184" y="52"/><ellipse cx="199" cy="68" fill="#ADD1B2" rx="11" ry="11" style="stroke:#A80036;stroke-width:1.0;"/><path d="M197.5781,73.3594 Q195.7188,73.3594 194.625,71.9688 Q193.5313,70.5781 193.5313,67.5938 Q193.5313,65.0625 194.6953,63.4063 Q195.8594,61.75 197.8438,61.75 Q199.3125,61.75 199.7813,61.875 Q200.25,62.0781 200.25,62.0781 Q200.25,62.0781 200.25,62.0078 Q200.25,61.9375 200.8594,61.0156 L201.9063,64.6719 L200.5781,65.0781 Q200.1094,63.5313 199.4453,62.8672 Q198.7813,62.2031 197.7188,62.2031 Q197.3281,62.2031 196.5625,63.7344 Q195.7969,65.2656 195.7969,67.5156 Q195.7969,69.9844 196.4609,71.375 Q197.125,72.7656 197.6563,72.7656 Q198.7188,72.7656 199.4766,72 Q200.2344,71.2344 200.5781,69.5781 L201.9063,70.1719 Q201.5781,71.5781 200.6797,72.4688 Q199.7813,73.3594 197.5781,73.3594 Z " fill="#000000"/><text fill="#000000" font-family="sans-serif" font-size="12" lengthAdjust="spacing" textLength="46" x="213" y="73.5576">VCCycle</text><line style="stroke:#A80036;stroke-width:1.5;" x1="185" x2="261" y1="84" y2="84"/><line style="stroke:#A80036;stroke-width:1.5;" x1="185" x2="261" y1="92" y2="92"/><!--MD5=[2e807730047ae2e9fc9e944cb69597f3]
class Connector--><rect codeLine="10" fill="#FEFECE" filter="url(#f1i0zzyc3vrmww)" height="48" id="Connector" style="stroke:#A80036;stroke-width:1.5;" width="89" x="59.5" y="52"/><ellipse cx="74.5" cy="68" fill="#ADD1B2" rx="11" ry="11" style="stroke:#A80036;stroke-width:1.0;"/><path d="M73.0781,73.3594 Q71.2188,73.3594 70.125,71.9688 Q69.0313,70.5781 69.0313,67.5938 Q69.0313,65.0625 70.1953,63.4063 Q71.3594,61.75 73.3438,61.75 Q74.8125,61.75 75.2813,61.875 Q75.75,62.0781 75.75,62.0781 Q75.75,62.0781 75.75,62.0078 Q75.75,61.9375 76.3594,61.0156 L77.4063,64.6719 L76.0781,65.0781 Q75.6094,63.5313 74.9453,62.8672 Q74.2813,62.2031 73.2188,62.2031 Q72.8281,62.2031 72.0625,63.7344 Q71.2969,65.2656 71.2969,67.5156 Q71.2969,69.9844 71.9609,71.375 Q72.625,72.7656 73.1563,72.7656 Q74.2188,72.7656 74.9766,72 Q75.7344,71.2344 76.0781,69.5781 L77.4063,70.1719 Q77.0781,71.5781 76.1797,72.4688 Q75.2813,73.3594 73.0781,73.3594 Z " fill="#000000"/><text fill="#000000" font-family="sans-serif" font-size="12" lengthAdjust="spacing" textLength="57" x="88.5" y="73.5576">Connector</text><line style="stroke:#A80036;stroke-width:1.5;" x1="60.5" x2="147.5" y1="84" y2="84"/><line style="stroke:#A80036;stroke-width:1.5;" x1="60.5" x2="147.5" y1="92" y2="92"/><!--MD5=[70588e164ccd82ad2f6bb9646e36ad01]
link vcc to components--><path d="M24,124.5039 C24,125.7358 24,126.9816 24,128.2402 C24,130.7573 24,133.3251 24,135.9336 C24,146.3674 24,157.4509 24,168.5338 C24,174.0752 24,179.6164 24,185.0761 C24,186.4411 24,187.8009 24,189.1544 C24,189.4928 24,189.8308 24,190.1683 C24,190.3371 24,190.5058 24,190.6743 " fill="none" id="vcc-to-components" style="stroke:#A80036;stroke-width:1.0;stroke-dasharray:7.0,7.0;"/><polygon fill="#A80036" points="24,190.6743,28,181.6743,24,185.6743,20,181.6743,24,190.6743" style="stroke:#A80036;stroke-width:1.0;"/><text fill="#000000" font-family="sans-serif" font-size="13" lengthAdjust="spacing" textLength="50" x="25" y="163.8979">«import»</text><!--MD5=[5ca7c509459147a54dc2572904ab0a39]
link Port to Compressor--><!--MD5=[c985c614f0c8b66a49e0a3d188e83939]
link Compressor to Condenser--><!--MD5=[ed81aff452057c155730ba0b23e0752b]
link Port to Evaporator--><!--MD5=[62b4bc4cb19d0530bd2f6508a0a26d38]
link Evaporator to ExpansionValve--><!--MD5=[53dea1087e4235decb406d8a04d55324]
@startuml
package components {
  class Port
  class Compressor
  class Condenser
  class Evaporator
  class ExpansionValve
}
package vcc {
  class VCCycle  
  class Connector
}
vcc ..> components : <<import>>
@enduml

PlantUML version 1.2022.0(Wed Jan 12 00:16:42 CST 2022)
(GPL source distribution)
Java Runtime: Java(TM) SE Runtime Environment
JVM: Java HotSpot(TM) 64-Bit Server VM
Default Encoding: GBK
Language: zh
Country: CN
--></g></svg>