<?xml version="1.0" encoding="UTF-8" standalone="no"?><svg xmlns="http://www.w3.org/2000/svg" xmlns:xlink="http://www.w3.org/1999/xlink" contentScriptType="application/ecmascript" contentStyleType="text/css" height="480px" preserveAspectRatio="none" style="width:501px;height:480px;background:#FFFFFF;" version="1.1" viewBox="0 0 501 480" width="501px" zoomAndPan="magnify"><defs><filter height="300%" id="f1ty34rcoqs9z8" width="300%" x="-1" y="-1"><feGaussianBlur result="blurOut" stdDeviation="2.0"/><feColorMatrix in="blurOut" result="blurOut2" type="matrix" values="0 0 0 0 0 0 0 0 0 0 0 0 0 0 0 0 0 0 .4 0"/><feOffset dx="4.0" dy="4.0" in="blurOut2" result="blurOut3"/><feBlend in="SourceGraphic" in2="blurOut3" mode="normal"/></filter></defs><g><path d="M280,22.8286 L280,41.583 L260,45.583 L280,49.583 L280,68.3374 A0,0 0 0 0 280,68.3374 L489,68.3374 A0,0 0 0 0 489,68.3374 L489,32.8286 L479,22.8286 L280,22.8286 A0,0 0 0 0 280,22.8286 " fill="#FBFB77" filter="url(#f1ty34rcoqs9z8)" style="stroke:#A80036;stroke-width:1.0;"/><path d="M479,22.8286 L479,32.8286 L489,32.8286 L479,22.8286 " fill="#FBFB77" style="stroke:#A80036;stroke-width:1.0;"/><text fill="#000000" font-family="sans-serif" font-size="13" lengthAdjust="spacing" textLength="151" x="286" y="42.7266">get the port state: pt/px/tx</text><text fill="#000000" font-family="sans-serif" font-size="13" lengthAdjust="spacing" textLength="30" x="294" y="60.481">when</text><text fill="#000000" font-family="sans-serif" font-size="13" font-weight="bold" lengthAdjust="spacing" textLength="40" x="328" y="60.481">create</text><text fill="#000000" font-family="sans-serif" font-size="13" lengthAdjust="spacing" textLength="98" x="372" y="60.481">the port of device</text><rect fill="#FEFECE" filter="url(#f1ty34rcoqs9z8)" height="69.166" rx="12.5" ry="12.5" style="stroke:#A80036;stroke-width:1.5;" width="249" x="11" y="11"/><text fill="#000000" font-family="sans-serif" font-size="12" lengthAdjust="spacing" textLength="226" x="24" y="34.752">Instancing the cycle using the dict of cycle</text><text fill="#000000" font-family="sans-serif" font-size="12" lengthAdjust="spacing" textLength="90" x="39" y="51.1406">1 the instance of</text><text fill="#000000" font-family="sans-serif" font-size="12" font-weight="bold" lengthAdjust="spacing" textLength="44" x="132" y="51.1406">devices</text><text fill="#000000" font-family="sans-serif" font-size="12" lengthAdjust="spacing" textLength="0" x="188" y="51.1406"/><text fill="#000000" font-family="sans-serif" font-size="12" lengthAdjust="spacing" textLength="90" x="39" y="67.5293">2 the instance of</text><text fill="#000000" font-family="sans-serif" font-size="12" font-weight="bold" lengthAdjust="spacing" textLength="58" x="132" y="67.5293">connector</text><path d="M274,155.9946 L274,174.749 L254,178.749 L274,182.749 L274,201.5034 A0,0 0 0 0 274,201.5034 L394,201.5034 A0,0 0 0 0 394,201.5034 L394,165.9946 L384,155.9946 L274,155.9946 A0,0 0 0 0 274,155.9946 " fill="#FBFB77" filter="url(#f1ty34rcoqs9z8)" style="stroke:#A80036;stroke-width:1.0;"/><path d="M384,155.9946 L384,165.9946 L394,165.9946 L384,155.9946 " fill="#FBFB77" style="stroke:#A80036;stroke-width:1.0;"/><text fill="#000000" font-family="sans-serif" font-size="13" lengthAdjust="spacing" textLength="99" x="280" y="175.8926">1 comps[].state()</text><text fill="#000000" font-family="sans-serif" font-size="13" lengthAdjust="spacing" textLength="88" x="280" y="193.647">2 node[].state()</text><rect fill="#FEFECE" filter="url(#f1ty34rcoqs9z8)" height="69.166" rx="12.5" ry="12.5" style="stroke:#A80036;stroke-width:1.5;" width="237" x="17" y="144.166"/><text fill="#000000" font-family="sans-serif" font-size="12" lengthAdjust="spacing" textLength="133" x="27" y="167.918">The port state of devices</text><text fill="#000000" font-family="sans-serif" font-size="12" lengthAdjust="spacing" textLength="52" x="39" y="184.3066">1 state by</text><text fill="#000000" font-family="sans-serif" font-size="12" font-weight="bold" lengthAdjust="spacing" textLength="147" x="94" y="184.3066">thermal process in device</text><text fill="#000000" font-family="sans-serif" font-size="12" lengthAdjust="spacing" textLength="0" x="244" y="184.3066"/><text fill="#000000" font-family="sans-serif" font-size="12" lengthAdjust="spacing" textLength="52" x="39" y="200.6953">2 state by</text><text fill="#000000" font-family="sans-serif" font-size="12" font-weight="bold" lengthAdjust="spacing" textLength="124" x="94" y="200.6953">combined data of port</text><path d="M249,244.4434 L249,263.1978 L229,267.1978 L249,271.1978 L249,289.9521 A0,0 0 0 0 249,289.9521 L374,289.9521 A0,0 0 0 0 374,289.9521 L374,254.4434 L364,244.4434 L249,244.4434 A0,0 0 0 0 249,244.4434 " fill="#FBFB77" filter="url(#f1ty34rcoqs9z8)" style="stroke:#A80036;stroke-width:1.0;"/><path d="M364,244.4434 L364,254.4434 L374,254.4434 L364,244.4434 " fill="#FBFB77" style="stroke:#A80036;stroke-width:1.0;"/><text fill="#000000" font-family="sans-serif" font-size="13" lengthAdjust="spacing" textLength="104" x="255" y="264.3413">comps[].balance()</text><text fill="#000000" font-family="sans-serif" font-size="13" lengthAdjust="spacing" textLength="84" x="255" y="282.0957">Qin, Qout, Wc</text><rect fill="#FEFECE" filter="url(#f1ty34rcoqs9z8)" height="36.3887" rx="12.5" ry="12.5" style="stroke:#A80036;stroke-width:1.5;" width="187" x="42" y="249.0034"/><text fill="#000000" font-family="sans-serif" font-size="12" lengthAdjust="spacing" textLength="167" x="52" y="272.7554">The mass and energy balance</text><polygon fill="#FEFECE" filter="url(#f1ty34rcoqs9z8)" points="135.5,100.166,147.5,112.166,135.5,124.166,123.5,112.166,135.5,100.166" style="stroke:#A80036;stroke-width:1.5;"/><polygon fill="#FEFECE" filter="url(#f1ty34rcoqs9z8)" points="103,309.9521,168,309.9521,180,321.9521,168,333.9521,103,333.9521,91,321.9521,103,309.9521" style="stroke:#A80036;stroke-width:1.5;"/><text fill="#000000" font-family="sans-serif" font-size="11" lengthAdjust="spacing" textLength="65" x="103" y="327.0466">more devices</text><path d="M269.5,358.2693 L269.5,368.1465 L249.5,372.1465 L269.5,376.1465 L269.5,386.0237 A0,0 0 0 0 269.5,386.0237 L357.5,386.0237 A0,0 0 0 0 357.5,386.0237 L357.5,368.2693 L347.5,358.2693 L269.5,358.2693 A0,0 0 0 0 269.5,358.2693 " fill="#FBFB77" filter="url(#f1ty34rcoqs9z8)" style="stroke:#A80036;stroke-width:1.0;"/><path d="M347.5,358.2693 L347.5,368.2693 L357.5,368.2693 L347.5,358.2693 " fill="#FBFB77" style="stroke:#A80036;stroke-width:1.0;"/><text fill="#000000" font-family="sans-serif" font-size="13" lengthAdjust="spacing" textLength="67" x="275.5" y="378.1672">cop,cop_hp</text><rect fill="#FEFECE" filter="url(#f1ty34rcoqs9z8)" height="36.3887" rx="12.5" ry="12.5" style="stroke:#A80036;stroke-width:1.5;" width="228" x="21.5" y="353.9521"/><text fill="#000000" font-family="sans-serif" font-size="12" lengthAdjust="spacing" textLength="208" x="31.5" y="377.7041">The performance of cycle  on the mdot</text><rect fill="#FEFECE" filter="url(#f1ty34rcoqs9z8)" height="52.7773" rx="12.5" ry="12.5" style="stroke:#A80036;stroke-width:1.5;" width="155" x="58" y="410.3408"/><text fill="#000000" font-family="sans-serif" font-size="12" lengthAdjust="spacing" textLength="83" x="71" y="434.0928">Print results on</text><text fill="#000000" font-family="sans-serif" font-size="12" font-weight="bold" lengthAdjust="spacing" textLength="45" x="157" y="434.0928">console</text><text fill="#000000" font-family="sans-serif" font-size="12" lengthAdjust="spacing" textLength="84" x="74" y="450.4814">Save  results to</text><text fill="#000000" font-family="sans-serif" font-size="12" font-weight="bold" lengthAdjust="spacing" textLength="42" x="161" y="450.4814">text file</text><line style="stroke:#A80036;stroke-width:1.5;" x1="135.5" x2="135.5" y1="213.332" y2="249.0034"/><polygon fill="#A80036" points="131.5,239.0034,135.5,249.0034,139.5,239.0034,135.5,243.0034" style="stroke:#A80036;stroke-width:1.0;"/><line style="stroke:#A80036;stroke-width:1.5;" x1="135.5" x2="135.5" y1="124.166" y2="144.166"/><polygon fill="#A80036" points="131.5,134.166,135.5,144.166,139.5,134.166,135.5,138.166" style="stroke:#A80036;stroke-width:1.0;"/><line style="stroke:#A80036;stroke-width:1.5;" x1="180" x2="406" y1="321.9521" y2="321.9521"/><polygon fill="#A80036" points="402,229.0034,406,219.0034,410,229.0034,406,225.0034" style="stroke:#A80036;stroke-width:1.5;"/><line style="stroke:#A80036;stroke-width:1.5;" x1="406" x2="406" y1="112.166" y2="321.9521"/><line style="stroke:#A80036;stroke-width:1.5;" x1="406" x2="147.5" y1="112.166" y2="112.166"/><polygon fill="#A80036" points="157.5,108.166,147.5,112.166,157.5,116.166,153.5,112.166" style="stroke:#A80036;stroke-width:1.0;"/><line style="stroke:#A80036;stroke-width:1.5;" x1="135.5" x2="135.5" y1="285.3921" y2="309.9521"/><polygon fill="#A80036" points="131.5,299.9521,135.5,309.9521,139.5,299.9521,135.5,303.9521" style="stroke:#A80036;stroke-width:1.0;"/><line style="stroke:#A80036;stroke-width:1.5;" x1="135.5" x2="135.5" y1="80.166" y2="100.166"/><polygon fill="#A80036" points="131.5,90.166,135.5,100.166,139.5,90.166,135.5,94.166" style="stroke:#A80036;stroke-width:1.0;"/><line style="stroke:#A80036;stroke-width:1.5;" x1="135.5" x2="135.5" y1="333.9521" y2="353.9521"/><polygon fill="#A80036" points="131.5,343.9521,135.5,353.9521,139.5,343.9521,135.5,347.9521" style="stroke:#A80036;stroke-width:1.0;"/><line style="stroke:#A80036;stroke-width:1.5;" x1="135.5" x2="135.5" y1="390.3408" y2="410.3408"/><polygon fill="#A80036" points="131.5,400.3408,135.5,410.3408,139.5,400.3408,135.5,404.3408" style="stroke:#A80036;stroke-width:1.0;"/><!--MD5=[d37a6034ac6995a56d1486793d4c38b7]
@startuml
: Instancing the cycle using the dict of cycle 
      1 the instance of **devices**    
      2 the instance of **connector**;
note right
    get the port state: pt/px/tx 
      when **create** the port of device 
end note
repeat
:The port state of devices
    1 state by **thermal process in device** 
    2 state by **combined data of port**;
note right
    1 comps[].state()
    2 node[].state()
end note
:The mass and energy balance;
note right
    comps[].balance()
    Qin, Qout, Wc
end note
repeat while (more devices)
:The performance of cycle  on the mdot;
note right
    cop,cop_hp
end note
: Print results on **console**  
  Save  results to **text file**;
@enduml

PlantUML version 1.2022.0(Wed Jan 12 00:16:42 CST 2022)
(GPL source distribution)
Java Runtime: Java(TM) SE Runtime Environment
JVM: Java HotSpot(TM) 64-Bit Server VM
Default Encoding: GBK
Language: zh
Country: CN
--></g></svg>