<?xml version="1.0" encoding="UTF-8" standalone="no"?><svg xmlns="http://www.w3.org/2000/svg" xmlns:xlink="http://www.w3.org/1999/xlink" contentScriptType="application/ecmascript" contentStyleType="text/css" height="387px" preserveAspectRatio="none" style="width:657px;height:387px;background:#FFFFFF;" version="1.1" viewBox="0 0 657 387" width="657px" zoomAndPan="magnify"><defs><filter height="300%" id="f16ufroeirmaf" width="300%" x="-1" y="-1"><feGaussianBlur result="blurOut" stdDeviation="2.0"/><feColorMatrix in="blurOut" result="blurOut2" type="matrix" values="0 0 0 0 0 0 0 0 0 0 0 0 0 0 0 0 0 0 .4 0"/><feOffset dx="4.0" dy="4.0" in="blurOut2" result="blurOut3"/><feBlend in="SourceGraphic" in2="blurOut3" mode="normal"/></filter></defs><g><!--MD5=[feb0ce9c8d9562f421c64b2ab713749f]
class VCCycle--><rect codeLine="1" fill="#FEFECE" filter="url(#f16ufroeirmaf)" height="258.3213" id="VCCycle" style="stroke:#A80036;stroke-width:1.5;" width="242" x="194.5" y="7"/><ellipse cx="288.25" cy="23" fill="#ADD1B2" rx="11" ry="11" style="stroke:#A80036;stroke-width:1.0;"/><path d="M286.8281,28.3594 Q284.9688,28.3594 283.875,26.9688 Q282.7813,25.5781 282.7813,22.5938 Q282.7813,20.0625 283.9453,18.4063 Q285.1094,16.75 287.0938,16.75 Q288.5625,16.75 289.0313,16.875 Q289.5,17.0781 289.5,17.0781 Q289.5,17.0781 289.5,17.0078 Q289.5,16.9375 290.1094,16.0156 L291.1563,19.6719 L289.8281,20.0781 Q289.3594,18.5313 288.6953,17.8672 Q288.0313,17.2031 286.9688,17.2031 Q286.5781,17.2031 285.8125,18.7344 Q285.0469,20.2656 285.0469,22.5156 Q285.0469,24.9844 285.7109,26.375 Q286.375,27.7656 286.9063,27.7656 Q287.9688,27.7656 288.7266,27 Q289.4844,26.2344 289.8281,24.5781 L291.1563,25.1719 Q290.8281,26.5781 289.9297,27.4688 Q289.0313,28.3594 286.8281,28.3594 Z " fill="#000000"/><text fill="#000000" font-family="sans-serif" font-size="12" lengthAdjust="spacing" textLength="46" x="308.75" y="28.5576">VCCycle</text><line style="stroke:#A80036;stroke-width:1.5;" x1="195.5" x2="435.5" y1="39" y2="39"/><ellipse cx="205.5" cy="50" rx="3" ry="3" style="stroke:#038048;stroke-width:1.0;fill:none;"/><text fill="#000000" font-family="sans-serif" font-size="11" lengthAdjust="spacing" textLength="42" x="214.5" y="55.606">name:str</text><ellipse cx="205.5" cy="65.0229" rx="3" ry="3" style="stroke:#038048;stroke-width:1.0;fill:none;"/><text fill="#000000" font-family="sans-serif" font-size="11" lengthAdjust="spacing" textLength="67" x="214.5" y="70.6289">refrigerant:str</text><ellipse cx="205.5" cy="80.0459" rx="3" ry="3" style="stroke:#038048;stroke-width:1.0;fill:none;"/><text fill="#000000" font-family="sans-serif" font-size="11" lengthAdjust="spacing" textLength="87" x="214.5" y="85.6519">comps : dict cycle</text><ellipse cx="205.5" cy="95.0688" rx="3" ry="3" style="stroke:#038048;stroke-width:1.0;fill:none;"/><text fill="#000000" font-family="sans-serif" font-size="11" lengthAdjust="spacing" textLength="86" x="214.5" y="100.6748">conns: Connector</text><ellipse cx="205.5" cy="110.0918" rx="3" ry="3" style="stroke:#038048;stroke-width:1.0;fill:none;"/><text fill="#000000" font-family="sans-serif" font-size="11" lengthAdjust="spacing" textLength="46" x="214.5" y="115.6978">Qin : float</text><ellipse cx="205.5" cy="125.1147" rx="3" ry="3" style="stroke:#038048;stroke-width:1.0;fill:none;"/><text fill="#000000" font-family="sans-serif" font-size="11" lengthAdjust="spacing" textLength="53" x="214.5" y="130.7207">Qout : float</text><ellipse cx="205.5" cy="140.1377" rx="3" ry="3" style="stroke:#038048;stroke-width:1.0;fill:none;"/><text fill="#000000" font-family="sans-serif" font-size="11" lengthAdjust="spacing" textLength="46" x="214.5" y="145.7437">Wc : float</text><ellipse cx="205.5" cy="155.1606" rx="3" ry="3" style="stroke:#038048;stroke-width:1.0;fill:none;"/><text fill="#000000" font-family="sans-serif" font-size="11" lengthAdjust="spacing" textLength="48" x="214.5" y="160.7666">cop : float</text><ellipse cx="205.5" cy="170.1836" rx="3" ry="3" style="stroke:#038048;stroke-width:1.0;fill:none;"/><text fill="#000000" font-family="sans-serif" font-size="11" lengthAdjust="spacing" textLength="66" x="214.5" y="175.7896">cop_hp : float</text><line style="stroke:#A80036;stroke-width:1.5;" x1="195.5" x2="435.5" y1="182.2065" y2="182.2065"/><ellipse cx="205.5" cy="193.2065" fill="#84BE84" rx="3" ry="3" style="stroke:#038048;stroke-width:1.0;"/><text fill="#000000" font-family="sans-serif" font-size="11" lengthAdjust="spacing" text-decoration="underline" textLength="113" x="214.5" y="198.8125">VCCycle(dictcycle:dict)</text><rect fill="#F24D5C" height="6" style="stroke:#C82930;stroke-width:1.0;" width="6" x="202.5" y="205.2295"/><text fill="#000000" font-family="sans-serif" font-size="11" lengthAdjust="spacing" textLength="110" x="214.5" y="213.8354">component_simulator()</text><ellipse cx="205.5" cy="223.2524" fill="#84BE84" rx="3" ry="3" style="stroke:#038048;stroke-width:1.0;"/><text fill="#000000" font-family="sans-serif" font-size="11" lengthAdjust="spacing" textLength="51" x="214.5" y="228.8584">simulator()</text><rect fill="#F24D5C" height="6" style="stroke:#C82930;stroke-width:1.0;" width="6" x="202.5" y="235.2754"/><text fill="#000000" font-family="sans-serif" font-size="11" lengthAdjust="spacing" textLength="216" x="214.5" y="243.8813">__setformatstr(formatstr : str, result : str):str</text><ellipse cx="205.5" cy="253.2983" fill="#84BE84" rx="3" ry="3" style="stroke:#038048;stroke-width:1.0;"/><text fill="#000000" font-family="sans-serif" font-size="11" lengthAdjust="spacing" textLength="61" x="214.5" y="258.9043">__str__():str</text><!--MD5=[2e807730047ae2e9fc9e944cb69597f3]
class Connector--><rect fill="#FEFECE" filter="url(#f16ufroeirmaf)" height="48" id="Connector" style="stroke:#A80036;stroke-width:1.5;" width="89" x="7" y="325"/><ellipse cx="22" cy="341" fill="#ADD1B2" rx="11" ry="11" style="stroke:#A80036;stroke-width:1.0;"/><path d="M20.5781,346.3594 Q18.7188,346.3594 17.625,344.9688 Q16.5313,343.5781 16.5313,340.5938 Q16.5313,338.0625 17.6953,336.4063 Q18.8594,334.75 20.8438,334.75 Q22.3125,334.75 22.7813,334.875 Q23.25,335.0781 23.25,335.0781 Q23.25,335.0781 23.25,335.0078 Q23.25,334.9375 23.8594,334.0156 L24.9063,337.6719 L23.5781,338.0781 Q23.1094,336.5313 22.4453,335.8672 Q21.7813,335.2031 20.7188,335.2031 Q20.3281,335.2031 19.5625,336.7344 Q18.7969,338.2656 18.7969,340.5156 Q18.7969,342.9844 19.4609,344.375 Q20.125,345.7656 20.6563,345.7656 Q21.7188,345.7656 22.4766,345 Q23.2344,344.2344 23.5781,342.5781 L24.9063,343.1719 Q24.5781,344.5781 23.6797,345.4688 Q22.7813,346.3594 20.5781,346.3594 Z " fill="#000000"/><text fill="#000000" font-family="sans-serif" font-size="12" lengthAdjust="spacing" textLength="57" x="36" y="346.5576">Connector</text><line style="stroke:#A80036;stroke-width:1.5;" x1="8" x2="95" y1="357" y2="357"/><line style="stroke:#A80036;stroke-width:1.5;" x1="8" x2="95" y1="365" y2="365"/><!--MD5=[db8554f2b1c91af4070e9585566a1b26]
class Compressor--><rect fill="#FEFECE" filter="url(#f16ufroeirmaf)" height="48" id="Compressor" style="stroke:#A80036;stroke-width:1.5;" width="102" x="131.5" y="325"/><ellipse cx="146.5" cy="341" fill="#ADD1B2" rx="11" ry="11" style="stroke:#A80036;stroke-width:1.0;"/><path d="M145.0781,346.3594 Q143.2188,346.3594 142.125,344.9688 Q141.0313,343.5781 141.0313,340.5938 Q141.0313,338.0625 142.1953,336.4063 Q143.3594,334.75 145.3438,334.75 Q146.8125,334.75 147.2813,334.875 Q147.75,335.0781 147.75,335.0781 Q147.75,335.0781 147.75,335.0078 Q147.75,334.9375 148.3594,334.0156 L149.4063,337.6719 L148.0781,338.0781 Q147.6094,336.5313 146.9453,335.8672 Q146.2813,335.2031 145.2188,335.2031 Q144.8281,335.2031 144.0625,336.7344 Q143.2969,338.2656 143.2969,340.5156 Q143.2969,342.9844 143.9609,344.375 Q144.625,345.7656 145.1563,345.7656 Q146.2188,345.7656 146.9766,345 Q147.7344,344.2344 148.0781,342.5781 L149.4063,343.1719 Q149.0781,344.5781 148.1797,345.4688 Q147.2813,346.3594 145.0781,346.3594 Z " fill="#000000"/><text fill="#000000" font-family="sans-serif" font-size="12" lengthAdjust="spacing" textLength="70" x="160.5" y="346.5576">Compressor</text><line style="stroke:#A80036;stroke-width:1.5;" x1="132.5" x2="232.5" y1="357" y2="357"/><line style="stroke:#A80036;stroke-width:1.5;" x1="132.5" x2="232.5" y1="365" y2="365"/><!--MD5=[e501cbc99ad27e36fdb550ea4575d438]
class Condenser--><rect fill="#FEFECE" filter="url(#f16ufroeirmaf)" height="48" id="Condenser" style="stroke:#A80036;stroke-width:1.5;" width="94" x="268.5" y="325"/><ellipse cx="283.5" cy="341" fill="#ADD1B2" rx="11" ry="11" style="stroke:#A80036;stroke-width:1.0;"/><path d="M282.0781,346.3594 Q280.2188,346.3594 279.125,344.9688 Q278.0313,343.5781 278.0313,340.5938 Q278.0313,338.0625 279.1953,336.4063 Q280.3594,334.75 282.3438,334.75 Q283.8125,334.75 284.2813,334.875 Q284.75,335.0781 284.75,335.0781 Q284.75,335.0781 284.75,335.0078 Q284.75,334.9375 285.3594,334.0156 L286.4063,337.6719 L285.0781,338.0781 Q284.6094,336.5313 283.9453,335.8672 Q283.2813,335.2031 282.2188,335.2031 Q281.8281,335.2031 281.0625,336.7344 Q280.2969,338.2656 280.2969,340.5156 Q280.2969,342.9844 280.9609,344.375 Q281.625,345.7656 282.1563,345.7656 Q283.2188,345.7656 283.9766,345 Q284.7344,344.2344 285.0781,342.5781 L286.4063,343.1719 Q286.0781,344.5781 285.1797,345.4688 Q284.2813,346.3594 282.0781,346.3594 Z " fill="#000000"/><text fill="#000000" font-family="sans-serif" font-size="12" lengthAdjust="spacing" textLength="62" x="297.5" y="346.5576">Condenser</text><line style="stroke:#A80036;stroke-width:1.5;" x1="269.5" x2="361.5" y1="357" y2="357"/><line style="stroke:#A80036;stroke-width:1.5;" x1="269.5" x2="361.5" y1="365" y2="365"/><!--MD5=[d55cb724ad6d3b4dba928fddb96ecd4e]
class Evaporator--><rect fill="#FEFECE" filter="url(#f16ufroeirmaf)" height="48" id="Evaporator" style="stroke:#A80036;stroke-width:1.5;" width="91" x="398" y="325"/><ellipse cx="413" cy="341" fill="#ADD1B2" rx="11" ry="11" style="stroke:#A80036;stroke-width:1.0;"/><path d="M411.5781,346.3594 Q409.7188,346.3594 408.625,344.9688 Q407.5313,343.5781 407.5313,340.5938 Q407.5313,338.0625 408.6953,336.4063 Q409.8594,334.75 411.8438,334.75 Q413.3125,334.75 413.7813,334.875 Q414.25,335.0781 414.25,335.0781 Q414.25,335.0781 414.25,335.0078 Q414.25,334.9375 414.8594,334.0156 L415.9063,337.6719 L414.5781,338.0781 Q414.1094,336.5313 413.4453,335.8672 Q412.7813,335.2031 411.7188,335.2031 Q411.3281,335.2031 410.5625,336.7344 Q409.7969,338.2656 409.7969,340.5156 Q409.7969,342.9844 410.4609,344.375 Q411.125,345.7656 411.6563,345.7656 Q412.7188,345.7656 413.4766,345 Q414.2344,344.2344 414.5781,342.5781 L415.9063,343.1719 Q415.5781,344.5781 414.6797,345.4688 Q413.7813,346.3594 411.5781,346.3594 Z " fill="#000000"/><text fill="#000000" font-family="sans-serif" font-size="12" lengthAdjust="spacing" textLength="59" x="427" y="346.5576">Evaporator</text><line style="stroke:#A80036;stroke-width:1.5;" x1="399" x2="488" y1="357" y2="357"/><line style="stroke:#A80036;stroke-width:1.5;" x1="399" x2="488" y1="365" y2="365"/><!--MD5=[7022f0b8ea096adfd271207b1a133ca4]
class ExpansionValve--><rect fill="#FEFECE" filter="url(#f16ufroeirmaf)" height="48" id="ExpansionValve" style="stroke:#A80036;stroke-width:1.5;" width="119" x="524" y="325"/><ellipse cx="539" cy="341" fill="#ADD1B2" rx="11" ry="11" style="stroke:#A80036;stroke-width:1.0;"/><path d="M537.5781,346.3594 Q535.7188,346.3594 534.625,344.9688 Q533.5313,343.5781 533.5313,340.5938 Q533.5313,338.0625 534.6953,336.4063 Q535.8594,334.75 537.8438,334.75 Q539.3125,334.75 539.7813,334.875 Q540.25,335.0781 540.25,335.0781 Q540.25,335.0781 540.25,335.0078 Q540.25,334.9375 540.8594,334.0156 L541.9063,337.6719 L540.5781,338.0781 Q540.1094,336.5313 539.4453,335.8672 Q538.7813,335.2031 537.7188,335.2031 Q537.3281,335.2031 536.5625,336.7344 Q535.7969,338.2656 535.7969,340.5156 Q535.7969,342.9844 536.4609,344.375 Q537.125,345.7656 537.6563,345.7656 Q538.7188,345.7656 539.4766,345 Q540.2344,344.2344 540.5781,342.5781 L541.9063,343.1719 Q541.5781,344.5781 540.6797,345.4688 Q539.7813,346.3594 537.5781,346.3594 Z " fill="#000000"/><text fill="#000000" font-family="sans-serif" font-size="12" lengthAdjust="spacing" textLength="87" x="553" y="346.5576">ExpansionValve</text><line style="stroke:#A80036;stroke-width:1.5;" x1="525" x2="642" y1="357" y2="357"/><line style="stroke:#A80036;stroke-width:1.5;" x1="525" x2="642" y1="365" y2="365"/><!--MD5=[20d166a14d831e8b9fd943c464c18791]
reverse link VCCycle to Connector--><path codeLine="17" d="M183.89,242.19 C144.95,273.31 105.97,304.47 80.49,324.83 " fill="none" id="VCCycle-backto-Connector" style="stroke:#0000FF;stroke-width:1.0;"/><polygon fill="#0000FF" points="194.32,233.85,187.136,234.4747,184.9496,241.3463,192.1336,240.7216,194.32,233.85" style="stroke:#0000FF;stroke-width:1.0;"/><text fill="#000000" font-family="sans-serif" font-size="13" lengthAdjust="spacing" textLength="7" x="179.3327" y="237.4858">1</text><text fill="#000000" font-family="sans-serif" font-size="13" lengthAdjust="spacing" textLength="7" x="80.3404" y="314.0493">1</text><!--MD5=[eba365be2e1847f6123ee203ea9b7e5f]
reverse link VCCycle to Compressor--><path codeLine="18" d="M227.65,276.37 C215.88,295.04 205.11,312.13 197.04,324.93 " fill="none" id="VCCycle-backto-Compressor" style="stroke:#A80036;stroke-width:1.0;"/><polygon fill="#FFFFFF" points="234.68,265.21,228.0949,268.1489,228.2751,275.3577,234.8601,272.4189,234.68,265.21" style="stroke:#A80036;stroke-width:1.0;"/><text fill="#000000" font-family="sans-serif" font-size="13" lengthAdjust="spacing" textLength="7" x="222.8053" y="288.0818">1</text><text fill="#000000" font-family="sans-serif" font-size="13" lengthAdjust="spacing" textLength="20" x="178.2601" y="314.1761">1..*</text><!--MD5=[1814f539eebf7bb136f2d7f4bab5d1da]
reverse link VCCycle to Condenser--><path codeLine="19" d="M315.5,278.46 C315.5,296.31 315.5,312.61 315.5,324.93 " fill="none" id="VCCycle-backto-Condenser" style="stroke:#A80036;stroke-width:1.0;"/><polygon fill="#FFFFFF" points="315.5,265.21,311.5,271.21,315.5,277.21,319.5,271.21,315.5,265.21" style="stroke:#A80036;stroke-width:1.0;"/><text fill="#000000" font-family="sans-serif" font-size="13" lengthAdjust="spacing" textLength="7" x="308.2977" y="288.0818">1</text><text fill="#000000" font-family="sans-serif" font-size="13" lengthAdjust="spacing" textLength="20" x="292.8125" y="314.1761">1..*</text><!--MD5=[f414bbec5f20f73bc260de51296f495a]
reverse link VCCycle to Evaporator--><path codeLine="20" d="M400.05,276.37 C411.37,295.04 421.74,312.13 429.5,324.93 " fill="none" id="VCCycle-backto-Evaporator" style="stroke:#A80036;stroke-width:1.0;"/><polygon fill="#FFFFFF" points="393.28,265.21,392.9723,272.4145,399.5043,275.4695,399.812,268.265,393.28,265.21" style="stroke:#A80036;stroke-width:1.0;"/><text fill="#000000" font-family="sans-serif" font-size="13" lengthAdjust="spacing" textLength="7" x="390.5743" y="288.0818">1</text><text fill="#000000" font-family="sans-serif" font-size="13" lengthAdjust="spacing" textLength="20" x="403.05" y="314.1761">1..*</text><!--MD5=[fa4d56d917b83806a3dc5fc021206d81]
reverse link VCCycle to ExpansionValve--><path codeLine="21" d="M446.8,240.37 C487.11,272.11 527.75,304.11 554.11,324.86 " fill="none" id="VCCycle-backto-ExpansionValve" style="stroke:#A80036;stroke-width:1.0;"/><polygon fill="#FFFFFF" points="436.56,232.31,438.7994,239.1646,445.988,239.7338,443.7486,232.8792,436.56,232.31" style="stroke:#A80036;stroke-width:1.0;"/><text fill="#000000" font-family="sans-serif" font-size="13" lengthAdjust="spacing" textLength="7" x="444.5396" y="235.8472">1</text><text fill="#000000" font-family="sans-serif" font-size="13" lengthAdjust="spacing" textLength="20" x="523.5239" y="314.0873">1..*</text><!--MD5=[9285caa0e64f718134b7405dcd300377]
@startuml
class VCCycle {
       + name:str 
       + refrigerant:str
       + comps : dict cycle 
       + conns: Connector
       + Qin : float 
       + Qout : float 
       + Wc : float
       + cop : float
       + cop_hp : float
       + {static} VCCycle(dictcycle:dict)
       - component_simulator() 
       + simulator() 
       - __setformatstr(formatstr : str, result : str):str
       + __str__():str
 }
VCCycle "1" *-[#blue]- "1" Connector 
VCCycle "1" o- - "1..*" Compressor 
VCCycle "1" o- - "1..*" Condenser
VCCycle "1" o- - "1..*" Evaporator
VCCycle "1" o- - "1..*" ExpansionValve


@enduml

PlantUML version 1.2022.0(Wed Jan 12 00:16:42 CST 2022)
(GPL source distribution)
Java Runtime: Java(TM) SE Runtime Environment
JVM: Java HotSpot(TM) 64-Bit Server VM
Default Encoding: GBK
Language: zh
Country: CN
--></g></svg>