<?xml version="1.0" encoding="UTF-8" standalone="no"?>
<!DOCTYPE svg PUBLIC "-//W3C//DTD SVG 1.1//EN" "http://www.w3.org/Graphics/SVG/1.1/DTD/svg11.dtd">
<!-- 由 Microsoft Visio, SVG Export 生成 uml-components-classes.svg 页-1 -->
<svg xmlns="http://www.w3.org/2000/svg" xmlns:xlink="http://www.w3.org/1999/xlink" xmlns:ev="http://www.w3.org/2001/xml-events"
		xmlns:v="http://schemas.microsoft.com/visio/2003/SVGExtensions/" width="18.7769in" height="4.65278in"
		viewBox="0 0 1351.94 335" xml:space="preserve" color-interpolation-filters="sRGB" class="st9">
	<v:documentProperties v:langID="2052"/>

	<style type="text/css">
	<![CDATA[
		.st1 {fill:#ffffff;stroke:none;stroke-linecap:butt;stroke-width:0.999998}
		.st2 {fill:none;stroke:#000000;stroke-linecap:butt;stroke-width:0.999998}
		.st3 {fill:none;stroke:none;stroke-linecap:butt;stroke-width:0.749998}
		.st4 {fill:#000000;font-family:Times New Roman;font-size:1.16666em}
		.st5 {fill:none;stroke:none;stroke-width:0.999998}
		.st6 {fill:none}
		.st7 {stroke:#000000;stroke-linecap:butt;stroke-width:0.999998}
		.st8 {font-size:1em;text-decoration:underline}
		.st9 {fill:none;fill-rule:evenodd;font-size:12px;overflow:visible;stroke-linecap:square;stroke-miterlimit:3}
	]]>
	</style>

	<g v:mID="0" v:index="1" v:groupContext="foregroundPage">
		<title>页-1</title>
		<v:pageProperties v:drawingScale="1" v:pageScale="1" v:drawingUnits="19" v:shadowOffsetX="8.99998"
				v:shadowOffsetY="-8.99998"/>
		<g id="group1-1" transform="translate(0.749998,-1.00047)" v:mID="1" v:groupContext="group">
			<title>classes</title>
			<g id="shape2-2" v:mID="2" v:groupContext="shape" transform="translate(0.549181,0)">
				<title>工作表.2</title>
				<path d="M0 335 L0 2 L1087.38 2 L1087.38 335 L0 335 Z" class="st1"/>
			</g>
			<g id="group3-4" transform="translate(2.94165E-12,-49.4999)" v:mID="3" v:groupContext="group">
				<v:userDefs/>
				<title>components.compressor.Compressor</title>
				<g id="shape4-5" v:mID="4" v:groupContext="shape" transform="translate(4.94262,4.54747E-13)">
					<title>工作表.4</title>
					<path d="M0 335 L0 101 L143.89 101 L143.89 335 L0 335 Z" class="st2"/>
				</g>
				<g id="shape5-7" v:mID="5" v:groupContext="shape" transform="translate(2.09432E-12,-214.599)">
					<title>工作表.5</title>
					<desc>Compressor</desc>
					<v:userDefs/>
					<v:textBlock v:margins="rect(0,0,0,0)"/>
					<v:textRect cx="76.8852" cy="326.6" width="153.78" height="16.8"/>
					<rect x="0" y="318.2" width="153.771" height="16.8" class="st3"/>
					<text x="43.05" y="330.8" class="st4" v:langID="2052"><v:paragraph v:horizAlign="1"/><v:tabList/>Compressor</text>				</g>
				<g id="group6-10" transform="translate(4.94262,-211)" v:mID="6" v:groupContext="group">
					<title>工作表.6</title>
					<g id="shape7-11" v:mID="7" v:groupContext="shape">
						<title>工作表.7</title>
						<path d="M0 335 L143.89 335 L0 335 Z" class="st5"/>
					</g>
					<g id="shape8-13" v:mID="8" v:groupContext="shape">
						<title>工作表.8</title>
						<path d="M0 335 L143.89 335 L0 335 Z" class="st6"/>
						<path d="M0 335 L143.89 335" class="st7"/>
					</g>
				</g>
				<g id="shape9-16" v:mID="9" v:groupContext="shape" transform="translate(13.7295,-191.6)">
					<title>工作表.7</title>
					<desc>+ devtype: str</desc>
					<v:userDefs/>
					<v:textBlock v:margins="rect(0,0,0,0)"/>
					<v:textRect cx="107.64" cy="326.6" width="215.28" height="16.8"/>
					<rect x="0" y="318.2" width="215.278" height="16.8" class="st3"/>
					<text x="0" y="330.8" class="st4" v:langID="2052"><v:paragraph/><v:tabList/><tspan class="st8">+ devtype: str</tspan></text>				</g>
				<g id="shape10-20" v:mID="10" v:groupContext="shape" transform="translate(13.7295,-176.6)">
					<title>工作表.8</title>
					<desc>+ energy: str</desc>
					<v:userDefs/>
					<v:textBlock v:margins="rect(0,0,0,0)"/>
					<v:textRect cx="99.9508" cy="326.6" width="199.91" height="16.8"/>
					<rect x="0" y="318.2" width="199.902" height="16.8" class="st3"/>
					<text x="-0" y="330.8" class="st4" v:langID="2052"><v:paragraph/><v:tabList/><tspan class="st8">+ energy: str</tspan></text>				</g>
				<g id="shape11-24" v:mID="11" v:groupContext="shape" transform="translate(13.7295,-161.6)">
					<title>工作表.9</title>
					<desc>+ name:str</desc>
					<v:userDefs/>
					<v:textBlock v:margins="rect(0,0,0,0)"/>
					<v:textRect cx="76.8852" cy="326.6" width="153.78" height="16.8"/>
					<rect x="0" y="318.2" width="153.771" height="16.8" class="st3"/>
					<text x="-0" y="330.8" class="st4" v:langID="2052"><v:paragraph/><v:tabList/>+ name:str</text>				</g>
				<g id="shape12-27" v:mID="12" v:groupContext="shape" transform="translate(13.7295,-146.6)">
					<title>工作表.10</title>
					<desc>+ iPort: Port[1]</desc>
					<v:userDefs/>
					<v:textBlock v:margins="rect(0,0,0,0)"/>
					<v:textRect cx="123.017" cy="326.6" width="246.04" height="16.8"/>
					<rect x="0" y="318.2" width="246.032" height="16.8" class="st3"/>
					<text x="-0" y="330.8" class="st4" v:langID="2052"><v:paragraph/><v:tabList/>+ iPort: Port[1]</text>				</g>
				<g id="shape13-30" v:mID="13" v:groupContext="shape" transform="translate(13.7295,-131.6)">
					<title>工作表.11</title>
					<desc>+ oPort: Port[1]</desc>
					<v:userDefs/>
					<v:textBlock v:margins="rect(0,0,0,0)"/>
					<v:textRect cx="123.017" cy="326.6" width="246.04" height="16.8"/>
					<rect x="0" y="318.2" width="246.032" height="16.8" class="st3"/>
					<text x="-0" y="330.8" class="st4" v:langID="2052"><v:paragraph/><v:tabList/>+ oPort: Port[1]</text>				</g>
				<g id="shape14-33" v:mID="14" v:groupContext="shape" transform="translate(13.7295,-116.6)">
					<title>工作表.12</title>
					<desc>+ portdict: dict port</desc>
					<v:userDefs/>
					<v:textBlock v:margins="rect(0,0,0,0)"/>
					<v:textRect cx="161.459" cy="326.6" width="322.92" height="16.8"/>
					<rect x="0" y="318.2" width="322.918" height="16.8" class="st3"/>
					<text x="-0" y="330.8" class="st4" v:langID="2052"><v:paragraph/><v:tabList/>+ portdict: dict port</text>				</g>
				<g id="shape15-36" v:mID="15" v:groupContext="shape" transform="translate(13.7295,-101.6)">
					<title>工作表.13</title>
					<desc>+ ef: float</desc>
					<v:userDefs/>
					<v:textBlock v:margins="rect(0,0,0,0)"/>
					<v:textRect cx="84.5738" cy="326.6" width="169.15" height="16.8"/>
					<rect x="0" y="318.2" width="169.148" height="16.8" class="st3"/>
					<text x="-0" y="330.8" class="st4" v:langID="2052"><v:paragraph/><v:tabList/>+ ef: float</text>				</g>
				<g id="shape16-39" v:mID="16" v:groupContext="shape" transform="translate(13.7295,-86.5998)">
					<title>工作表.14</title>
					<desc>+ Wc: float</desc>
					<v:userDefs/>
					<v:textBlock v:margins="rect(0,0,0,0)"/>
					<v:textRect cx="84.5738" cy="326.6" width="169.15" height="16.8"/>
					<rect x="0" y="318.2" width="169.148" height="16.8" class="st3"/>
					<text x="-0" y="330.8" class="st4" v:langID="2052"><v:paragraph/><v:tabList/>+ Wc: float</text>				</g>
				<g id="shape17-42" v:mID="17" v:groupContext="shape" transform="translate(13.7295,-71.5998)">
					<title>工作表.15</title>
					<desc>+ isos: float</desc>
					<v:userDefs/>
					<v:textBlock v:margins="rect(0,0,0,0)"/>
					<v:textRect cx="99.9508" cy="326.6" width="199.91" height="16.8"/>
					<rect x="0" y="318.2" width="199.902" height="16.8" class="st3"/>
					<text x="-0" y="330.8" class="st4" v:langID="2052"><v:paragraph/><v:tabList/>+ isos: float</text>				</g>
				<g id="group18-45" transform="translate(4.94262,-67.9998)" v:mID="18" v:groupContext="group">
					<title>工作表.16</title>
					<g id="shape19-46" v:mID="19" v:groupContext="shape">
						<title>工作表.19</title>
						<path d="M0 335 L143.89 335 L0 335 Z" class="st5"/>
					</g>
					<g id="shape20-48" v:mID="20" v:groupContext="shape">
						<title>工作表.20</title>
						<path d="M0 335 L143.89 335 L0 335 Z" class="st6"/>
						<path d="M0 335 L143.89 335" class="st7"/>
					</g>
				</g>
				<g id="shape21-51" v:mID="21" v:groupContext="shape" transform="translate(13.7295,-48.5999)">
					<title>工作表.17</title>
					<desc>+ __init__(dictDev)</desc>
					<v:userDefs/>
					<v:textBlock v:margins="rect(0,0,0,0)"/>
					<v:textRect cx="146.082" cy="326.6" width="292.17" height="16.8"/>
					<rect x="0" y="318.2" width="292.164" height="16.8" class="st3"/>
					<text x="-0" y="330.8" class="st4" v:langID="2052"><v:paragraph/><v:tabList/>+ __init__(dictDev)</text>				</g>
				<g id="shape22-54" v:mID="22" v:groupContext="shape" transform="translate(13.7295,-33.5999)">
					<title>工作表.18</title>
					<desc>+ balance()</desc>
					<v:userDefs/>
					<v:textBlock v:margins="rect(0,0,0,0)"/>
					<v:textRect cx="84.5738" cy="326.6" width="169.15" height="16.8"/>
					<rect x="0" y="318.2" width="169.148" height="16.8" class="st3"/>
					<text x="-0" y="330.8" class="st4" v:langID="2052"><v:paragraph/><v:tabList/>+ balance()</text>				</g>
				<g id="shape23-57" v:mID="23" v:groupContext="shape" transform="translate(13.7295,-18.6)">
					<title>工作表.19</title>
					<desc>+ state()</desc>
					<v:userDefs/>
					<v:textBlock v:margins="rect(0,0,0,0)"/>
					<v:textRect cx="69.1967" cy="326.6" width="138.4" height="16.8"/>
					<rect x="0" y="318.2" width="138.394" height="16.8" class="st3"/>
					<text x="-0" y="330.8" class="st4" v:langID="2052"><v:paragraph/><v:tabList/>+ state()</text>				</g>
				<g id="shape24-60" v:mID="24" v:groupContext="shape" transform="translate(13.7295,-3.59999)">
					<title>工作表.20</title>
					<desc>+ __str__()</desc>
					<v:userDefs/>
					<v:textBlock v:margins="rect(0,0,0,0)"/>
					<v:textRect cx="84.5738" cy="326.6" width="169.15" height="16.8"/>
					<rect x="0" y="318.2" width="169.148" height="16.8" class="st3"/>
					<text x="-0" y="330.8" class="st4" v:langID="2052"><v:paragraph/><v:tabList/>+ __str__()</text>				</g>
			</g>
			<g id="group25-63" transform="translate(168.599,-64.4998)" v:mID="25" v:groupContext="group">
				<title>components.condenser.Condenser</title>
				<g id="shape26-64" v:mID="26" v:groupContext="shape">
					<title>工作表.22</title>
					<path d="M0 335 L0 131 L143.89 131 L143.89 335 L0 335 Z" class="st2"/>
				</g>
				<g id="shape27-66" v:mID="27" v:groupContext="shape" transform="translate(2.7459,-184.6)">
					<title>工作表.23</title>
					<desc>Condenser</desc>
					<v:userDefs/>
					<v:textBlock v:margins="rect(0,0,0,0)"/>
					<v:textRect cx="69.1967" cy="326.6" width="138.4" height="16.8"/>
					<rect x="0" y="318.2" width="138.394" height="16.8" class="st3"/>
					<text x="39.26" y="330.8" class="st4" v:langID="2052"><v:paragraph v:horizAlign="1"/><v:tabList/>Condenser</text>				</g>
				<g id="group28-69" transform="translate(-2.11031E-12,-181)" v:mID="28" v:groupContext="group">
					<title>工作表.24</title>
					<g id="shape29-70" v:mID="29" v:groupContext="shape">
						<title>工作表.29</title>
						<path d="M0 335 L143.89 335 L0 335 Z" class="st5"/>
					</g>
					<g id="shape30-72" v:mID="30" v:groupContext="shape">
						<title>工作表.30</title>
						<path d="M0 335 L143.89 335 L0 335 Z" class="st6"/>
						<path d="M0 335 L143.89 335" class="st7"/>
					</g>
				</g>
				<g id="shape31-75" v:mID="31" v:groupContext="shape" transform="translate(8.78689,-161.6)">
					<title>工作表.25</title>
					<desc>+ devtype: str</desc>
					<v:userDefs/>
					<v:textBlock v:margins="rect(0,0,0,0)"/>
					<v:textRect cx="107.64" cy="326.6" width="215.28" height="16.8"/>
					<rect x="0" y="318.2" width="215.278" height="16.8" class="st3"/>
					<text x="0" y="330.8" class="st4" v:langID="2052"><v:paragraph/><v:tabList/><tspan class="st8">+ devtype: str</tspan></text>				</g>
				<g id="shape32-79" v:mID="32" v:groupContext="shape" transform="translate(8.78689,-146.6)">
					<title>工作表.26</title>
					<desc>+ energy: str</desc>
					<v:userDefs/>
					<v:textBlock v:margins="rect(0,0,0,0)"/>
					<v:textRect cx="99.9508" cy="326.6" width="199.91" height="16.8"/>
					<rect x="0" y="318.2" width="199.902" height="16.8" class="st3"/>
					<text x="-0" y="330.8" class="st4" v:langID="2052"><v:paragraph/><v:tabList/><tspan class="st8">+ energy: str</tspan></text>				</g>
				<g id="shape33-83" v:mID="33" v:groupContext="shape" transform="translate(8.78689,-131.6)">
					<title>工作表.27</title>
					<desc>+ name: str</desc>
					<v:userDefs/>
					<v:textBlock v:margins="rect(0,0,0,0)"/>
					<v:textRect cx="84.5738" cy="326.6" width="169.15" height="16.8"/>
					<rect x="0" y="318.2" width="169.148" height="16.8" class="st3"/>
					<text x="-0" y="330.8" class="st4" v:langID="2052"><v:paragraph/><v:tabList/>+ name: str</text>				</g>
				<g id="shape34-86" v:mID="34" v:groupContext="shape" transform="translate(8.78689,-116.6)">
					<title>工作表.28</title>
					<desc>+ iPort : Port[1]</desc>
					<v:userDefs/>
					<v:textBlock v:margins="rect(0,0,0,0)"/>
					<v:textRect cx="130.705" cy="326.6" width="261.42" height="16.8"/>
					<rect x="0" y="318.2" width="261.409" height="16.8" class="st3"/>
					<text x="-0" y="330.8" class="st4" v:langID="2052"><v:paragraph/><v:tabList/>+ iPort : Port[1]</text>				</g>
				<g id="shape35-89" v:mID="35" v:groupContext="shape" transform="translate(8.78689,-101.6)">
					<title>工作表.29</title>
					<desc>+ oPort : Port[1]</desc>
					<v:userDefs/>
					<v:textBlock v:margins="rect(0,0,0,0)"/>
					<v:textRect cx="130.705" cy="326.6" width="261.42" height="16.8"/>
					<rect x="0" y="318.2" width="261.409" height="16.8" class="st3"/>
					<text x="-0" y="330.8" class="st4" v:langID="2052"><v:paragraph/><v:tabList/>+ oPort : Port[1]</text>				</g>
				<g id="shape36-92" v:mID="36" v:groupContext="shape" transform="translate(8.78689,-86.5998)">
					<title>工作表.30</title>
					<desc>+ portdict: dict port</desc>
					<v:userDefs/>
					<v:textBlock v:margins="rect(0,0,0,0)"/>
					<v:textRect cx="161.459" cy="326.6" width="322.92" height="16.8"/>
					<rect x="0" y="318.2" width="322.918" height="16.8" class="st3"/>
					<text x="-0" y="330.8" class="st4" v:langID="2052"><v:paragraph/><v:tabList/>+ portdict: dict port</text>				</g>
				<g id="shape37-95" v:mID="37" v:groupContext="shape" transform="translate(8.78689,-71.5998)">
					<title>工作表.31</title>
					<desc>+ Qout: float</desc>
					<v:userDefs/>
					<v:textBlock v:margins="rect(0,0,0,0)"/>
					<v:textRect cx="99.9508" cy="326.6" width="199.91" height="16.8"/>
					<rect x="0" y="318.2" width="199.902" height="16.8" class="st3"/>
					<text x="-0" y="330.8" class="st4" v:langID="2052"><v:paragraph/><v:tabList/>+ Qout: float</text>				</g>
				<g id="group38-98" transform="translate(-2.11031E-12,-67.9998)" v:mID="38" v:groupContext="group">
					<title>工作表.32</title>
					<g id="shape39-99" v:mID="39" v:groupContext="shape">
						<title>工作表.39</title>
						<path d="M0 335 L143.89 335 L0 335 Z" class="st5"/>
					</g>
					<g id="shape40-101" v:mID="40" v:groupContext="shape">
						<title>工作表.40</title>
						<path d="M0 335 L143.89 335 L0 335 Z" class="st6"/>
						<path d="M0 335 L143.89 335" class="st7"/>
					</g>
				</g>
				<g id="shape41-104" v:mID="41" v:groupContext="shape" transform="translate(8.78689,-48.5999)">
					<title>工作表.33</title>
					<desc>+ __init__(dictDev)</desc>
					<v:userDefs/>
					<v:textBlock v:margins="rect(0,0,0,0)"/>
					<v:textRect cx="146.082" cy="326.6" width="292.17" height="16.8"/>
					<rect x="0" y="318.2" width="292.164" height="16.8" class="st3"/>
					<text x="-0" y="330.8" class="st4" v:langID="2052"><v:paragraph/><v:tabList/>+ __init__(dictDev)</text>				</g>
				<g id="shape42-107" v:mID="42" v:groupContext="shape" transform="translate(8.78689,-33.5999)">
					<title>工作表.34</title>
					<desc>+ balance()</desc>
					<v:userDefs/>
					<v:textBlock v:margins="rect(0,0,0,0)"/>
					<v:textRect cx="84.5738" cy="326.6" width="169.15" height="16.8"/>
					<rect x="0" y="318.2" width="169.148" height="16.8" class="st3"/>
					<text x="-0" y="330.8" class="st4" v:langID="2052"><v:paragraph/><v:tabList/>+ balance()</text>				</g>
				<g id="shape43-110" v:mID="43" v:groupContext="shape" transform="translate(8.78689,-18.6)">
					<title>工作表.35</title>
					<desc>+ state()</desc>
					<v:userDefs/>
					<v:textBlock v:margins="rect(0,0,0,0)"/>
					<v:textRect cx="69.1967" cy="326.6" width="138.4" height="16.8"/>
					<rect x="0" y="318.2" width="138.394" height="16.8" class="st3"/>
					<text x="-0" y="330.8" class="st4" v:langID="2052"><v:paragraph/><v:tabList/>+ state()</text>				</g>
				<g id="shape44-113" v:mID="44" v:groupContext="shape" transform="translate(8.78689,-3.59999)">
					<title>工作表.36</title>
					<desc>+ __str__()</desc>
					<v:userDefs/>
					<v:textBlock v:margins="rect(0,0,0,0)"/>
					<v:textRect cx="84.5738" cy="326.6" width="169.15" height="16.8"/>
					<rect x="0" y="318.2" width="169.148" height="16.8" class="st3"/>
					<text x="-0" y="330.8" class="st4" v:langID="2052"><v:paragraph/><v:tabList/>+ __str__()</text>				</g>
			</g>
			<g id="group45-116" transform="translate(329.508,-64.4998)" v:mID="45" v:groupContext="group">
				<v:userDefs/>
				<title>components.evaporator.Evaporator</title>
				<g id="shape46-117" v:mID="46" v:groupContext="shape" transform="translate(2.7459,4.54747E-13)">
					<title>工作表.38</title>
					<path d="M0 335 L0 131 L148.28 131 L148.28 335 L0 335 Z" class="st2"/>
				</g>
				<g id="shape47-119" v:mID="47" v:groupContext="shape" transform="translate(-1.43885E-13,-184.6)">
					<title>工作表.39</title>
					<desc>Evaporator</desc>
					<v:userDefs/>
					<v:textBlock v:margins="rect(0,0,0,0)"/>
					<v:textRect cx="76.8852" cy="326.6" width="153.78" height="16.8"/>
					<rect x="0" y="318.2" width="153.771" height="16.8" class="st3"/>
					<text x="45.79" y="330.8" class="st4" v:langID="2052"><v:paragraph v:horizAlign="1"/><v:tabList/>Evaporator</text>				</g>
				<g id="group48-122" transform="translate(2.7459,-181)" v:mID="48" v:groupContext="group">
					<title>工作表.40</title>
					<g id="shape49-123" v:mID="49" v:groupContext="shape">
						<title>工作表.49</title>
						<path d="M0 335 L148.28 335 L0 335 Z" class="st5"/>
					</g>
					<g id="shape50-125" v:mID="50" v:groupContext="shape">
						<title>工作表.50</title>
						<path d="M0 335 L148.28 335 L0 335 Z" class="st6"/>
						<path d="M0 335 L148.28 335" class="st7"/>
					</g>
				</g>
				<g id="shape51-128" v:mID="51" v:groupContext="shape" transform="translate(11.5328,-161.6)">
					<title>工作表.41</title>
					<desc>+ devtype : str</desc>
					<v:userDefs/>
					<v:textBlock v:margins="rect(0,0,0,0)"/>
					<v:textRect cx="115.328" cy="326.6" width="230.66" height="16.8"/>
					<rect x="0" y="318.2" width="230.655" height="16.8" class="st3"/>
					<text x="-0" y="330.8" class="st4" v:langID="2052"><v:paragraph/><v:tabList/><tspan class="st8">+ devtype : str</tspan></text>				</g>
				<g id="shape52-132" v:mID="52" v:groupContext="shape" transform="translate(11.5328,-146.6)">
					<title>工作表.42</title>
					<desc>+ energy : str</desc>
					<v:userDefs/>
					<v:textBlock v:margins="rect(0,0,0,0)"/>
					<v:textRect cx="107.64" cy="326.6" width="215.28" height="16.8"/>
					<rect x="0" y="318.2" width="215.278" height="16.8" class="st3"/>
					<text x="0" y="330.8" class="st4" v:langID="2052"><v:paragraph/><v:tabList/><tspan class="st8">+ energy : str</tspan></text>				</g>
				<g id="shape53-136" v:mID="53" v:groupContext="shape" transform="translate(11.5328,-131.6)">
					<title>工作表.43</title>
					<desc>+ name: str</desc>
					<v:userDefs/>
					<v:textBlock v:margins="rect(0,0,0,0)"/>
					<v:textRect cx="84.5738" cy="326.6" width="169.15" height="16.8"/>
					<rect x="0" y="318.2" width="169.148" height="16.8" class="st3"/>
					<text x="-0" y="330.8" class="st4" v:langID="2052"><v:paragraph/><v:tabList/>+ name: str</text>				</g>
				<g id="shape54-139" v:mID="54" v:groupContext="shape" transform="translate(11.5328,-116.6)">
					<title>工作表.44</title>
					<desc>+ iPort : Port[1]</desc>
					<v:userDefs/>
					<v:textBlock v:margins="rect(0,0,0,0)"/>
					<v:textRect cx="130.705" cy="326.6" width="261.42" height="16.8"/>
					<rect x="0" y="318.2" width="261.409" height="16.8" class="st3"/>
					<text x="-0" y="330.8" class="st4" v:langID="2052"><v:paragraph/><v:tabList/>+ iPort : Port[1]</text>				</g>
				<g id="shape55-142" v:mID="55" v:groupContext="shape" transform="translate(11.5328,-101.6)">
					<title>工作表.45</title>
					<desc>+ oPort : Port[1]</desc>
					<v:userDefs/>
					<v:textBlock v:margins="rect(0,0,0,0)"/>
					<v:textRect cx="130.705" cy="326.6" width="261.42" height="16.8"/>
					<rect x="0" y="318.2" width="261.409" height="16.8" class="st3"/>
					<text x="-0" y="330.8" class="st4" v:langID="2052"><v:paragraph/><v:tabList/>+ oPort : Port[1]</text>				</g>
				<g id="shape56-145" v:mID="56" v:groupContext="shape" transform="translate(11.5328,-86.5998)">
					<title>工作表.46</title>
					<desc>+ portdict : dict port</desc>
					<v:userDefs/>
					<v:textBlock v:margins="rect(0,0,0,0)"/>
					<v:textRect cx="169.148" cy="326.6" width="338.3" height="16.8"/>
					<rect x="0" y="318.2" width="338.295" height="16.8" class="st3"/>
					<text x="-0" y="330.8" class="st4" v:langID="2052"><v:paragraph/><v:tabList/>+ portdict : dict port</text>				</g>
				<g id="shape57-148" v:mID="57" v:groupContext="shape" transform="translate(11.5328,-71.5998)">
					<title>工作表.47</title>
					<desc>+ Qin: float</desc>
					<v:userDefs/>
					<v:textBlock v:margins="rect(0,0,0,0)"/>
					<v:textRect cx="92.2623" cy="326.6" width="184.53" height="16.8"/>
					<rect x="0" y="318.2" width="184.525" height="16.8" class="st3"/>
					<text x="-0" y="330.8" class="st4" v:langID="2052"><v:paragraph/><v:tabList/>+ Qin: float</text>				</g>
				<g id="group58-151" transform="translate(2.7459,-67.9998)" v:mID="58" v:groupContext="group">
					<title>工作表.48</title>
					<g id="shape59-152" v:mID="59" v:groupContext="shape">
						<title>工作表.59</title>
						<path d="M0 335 L148.28 335 L0 335 Z" class="st5"/>
					</g>
					<g id="shape60-154" v:mID="60" v:groupContext="shape">
						<title>工作表.60</title>
						<path d="M0 335 L148.28 335 L0 335 Z" class="st6"/>
						<path d="M0 335 L148.28 335" class="st7"/>
					</g>
				</g>
				<g id="shape61-157" v:mID="61" v:groupContext="shape" transform="translate(11.5328,-48.5999)">
					<title>工作表.49</title>
					<desc>+ __init__(dictDev)</desc>
					<v:userDefs/>
					<v:textBlock v:margins="rect(0,0,0,0)"/>
					<v:textRect cx="146.082" cy="326.6" width="292.17" height="16.8"/>
					<rect x="0" y="318.2" width="292.164" height="16.8" class="st3"/>
					<text x="-0" y="330.8" class="st4" v:langID="2052"><v:paragraph/><v:tabList/>+ __init__(dictDev)</text>				</g>
				<g id="shape62-160" v:mID="62" v:groupContext="shape" transform="translate(11.5328,-33.5999)">
					<title>工作表.50</title>
					<desc>+ balance()</desc>
					<v:userDefs/>
					<v:textBlock v:margins="rect(0,0,0,0)"/>
					<v:textRect cx="84.5738" cy="326.6" width="169.15" height="16.8"/>
					<rect x="0" y="318.2" width="169.148" height="16.8" class="st3"/>
					<text x="-0" y="330.8" class="st4" v:langID="2052"><v:paragraph/><v:tabList/>+ balance()</text>				</g>
				<g id="shape63-163" v:mID="63" v:groupContext="shape" transform="translate(11.5328,-18.6)">
					<title>工作表.51</title>
					<desc>+ state()</desc>
					<v:userDefs/>
					<v:textBlock v:margins="rect(0,0,0,0)"/>
					<v:textRect cx="69.1967" cy="326.6" width="138.4" height="16.8"/>
					<rect x="0" y="318.2" width="138.394" height="16.8" class="st3"/>
					<text x="-0" y="330.8" class="st4" v:langID="2052"><v:paragraph/><v:tabList/>+ state()</text>				</g>
				<g id="shape64-166" v:mID="64" v:groupContext="shape" transform="translate(11.5328,-3.59999)">
					<title>工作表.52</title>
					<desc>+ __str__()</desc>
					<v:userDefs/>
					<v:textBlock v:margins="rect(0,0,0,0)"/>
					<v:textRect cx="84.5738" cy="326.6" width="169.15" height="16.8"/>
					<rect x="0" y="318.2" width="169.148" height="16.8" class="st3"/>
					<text x="-0" y="330.8" class="st4" v:langID="2052"><v:paragraph/><v:tabList/>+ __str__()</text>				</g>
			</g>
			<g id="group65-169" transform="translate(466.803,-71.9998)" v:mID="65" v:groupContext="group">
				<v:userDefs/>
				<title>components.expansionvalve.ExpansionValve</title>
				<g id="shape66-170" v:mID="66" v:groupContext="shape" transform="translate(33.5,-3.97904E-13)">
					<title>工作表.54</title>
					<path d="M0 335 L0 146 L148.28 146 L148.28 335 L0 335 Z" class="st2"/>
				</g>
				<g id="shape67-172" v:mID="67" v:groupContext="shape" transform="translate(1.15108E-12,-169.6)">
					<title>工作表.55</title>
					<desc>ExpansionValve</desc>
					<v:userDefs/>
					<v:textBlock v:margins="rect(0,0,0,0)"/>
					<v:textRect cx="107.64" cy="326.6" width="215.28" height="16.8"/>
					<rect x="0" y="318.2" width="215.278" height="16.8" class="st3"/>
					<text x="61.37" y="330.8" class="st4" v:langID="2052"><v:paragraph v:horizAlign="1"/><v:tabList/>ExpansionValve</text>				</g>
				<g id="group68-175" transform="translate(33.5,-166)" v:mID="68" v:groupContext="group">
					<title>工作表.56</title>
					<g id="shape69-176" v:mID="69" v:groupContext="shape">
						<title>工作表.69</title>
						<path d="M0 335 L148.28 335 L0 335 Z" class="st5"/>
					</g>
					<g id="shape70-178" v:mID="70" v:groupContext="shape">
						<title>工作表.70</title>
						<path d="M0 335 L148.28 335 L0 335 Z" class="st6"/>
						<path d="M0 335 L148.28 335" class="st7"/>
					</g>
				</g>
				<g id="shape71-181" v:mID="71" v:groupContext="shape" transform="translate(42.2869,-146.6)">
					<title>工作表.57</title>
					<desc>+ devtype : str</desc>
					<v:userDefs/>
					<v:textBlock v:margins="rect(0,0,0,0)"/>
					<v:textRect cx="115.328" cy="326.6" width="230.66" height="16.8"/>
					<rect x="0" y="318.2" width="230.655" height="16.8" class="st3"/>
					<text x="-0" y="330.8" class="st4" v:langID="2052"><v:paragraph/><v:tabList/><tspan class="st8">+ devtype : str</tspan></text>				</g>
				<g id="shape72-185" v:mID="72" v:groupContext="shape" transform="translate(42.2869,-131.6)">
					<title>工作表.58</title>
					<desc>+ energy : str</desc>
					<v:userDefs/>
					<v:textBlock v:margins="rect(0,0,0,0)"/>
					<v:textRect cx="107.64" cy="326.6" width="215.28" height="16.8"/>
					<rect x="0" y="318.2" width="215.278" height="16.8" class="st3"/>
					<text x="0" y="330.8" class="st4" v:langID="2052"><v:paragraph/><v:tabList/><tspan class="st8">+ energy : str</tspan></text>				</g>
				<g id="shape73-189" v:mID="73" v:groupContext="shape" transform="translate(42.2869,-116.6)">
					<title>工作表.59</title>
					<desc>+ name: str</desc>
					<v:userDefs/>
					<v:textBlock v:margins="rect(0,0,0,0)"/>
					<v:textRect cx="84.5738" cy="326.6" width="169.15" height="16.8"/>
					<rect x="0" y="318.2" width="169.148" height="16.8" class="st3"/>
					<text x="-0" y="330.8" class="st4" v:langID="2052"><v:paragraph/><v:tabList/>+ name: str</text>				</g>
				<g id="shape74-192" v:mID="74" v:groupContext="shape" transform="translate(42.2869,-101.6)">
					<title>工作表.60</title>
					<desc>+ iPort : Port[1]</desc>
					<v:userDefs/>
					<v:textBlock v:margins="rect(0,0,0,0)"/>
					<v:textRect cx="130.705" cy="326.6" width="261.42" height="16.8"/>
					<rect x="0" y="318.2" width="261.409" height="16.8" class="st3"/>
					<text x="-0" y="330.8" class="st4" v:langID="2052"><v:paragraph/><v:tabList/>+ iPort : Port[1]</text>				</g>
				<g id="shape75-195" v:mID="75" v:groupContext="shape" transform="translate(42.2869,-86.5998)">
					<title>工作表.61</title>
					<desc>+ oPort : Port[1]</desc>
					<v:userDefs/>
					<v:textBlock v:margins="rect(0,0,0,0)"/>
					<v:textRect cx="130.705" cy="326.6" width="261.42" height="16.8"/>
					<rect x="0" y="318.2" width="261.409" height="16.8" class="st3"/>
					<text x="-0" y="330.8" class="st4" v:langID="2052"><v:paragraph/><v:tabList/>+ oPort : Port[1]</text>				</g>
				<g id="shape76-198" v:mID="76" v:groupContext="shape" transform="translate(42.2869,-71.5998)">
					<title>工作表.62</title>
					<desc>+ portdict : dict port</desc>
					<v:userDefs/>
					<v:textBlock v:margins="rect(0,0,0,0)"/>
					<v:textRect cx="169.148" cy="326.6" width="338.3" height="16.8"/>
					<rect x="0" y="318.2" width="338.295" height="16.8" class="st3"/>
					<text x="-0" y="330.8" class="st4" v:langID="2052"><v:paragraph/><v:tabList/>+ portdict : dict port</text>				</g>
				<g id="group77-201" transform="translate(33.5,-67.9998)" v:mID="77" v:groupContext="group">
					<title>工作表.63</title>
					<g id="shape78-202" v:mID="78" v:groupContext="shape">
						<title>工作表.78</title>
						<path d="M0 335 L148.28 335 L0 335 Z" class="st5"/>
					</g>
					<g id="shape79-204" v:mID="79" v:groupContext="shape">
						<title>工作表.79</title>
						<path d="M0 335 L148.28 335 L0 335 Z" class="st6"/>
						<path d="M0 335 L148.28 335" class="st7"/>
					</g>
				</g>
				<g id="shape80-207" v:mID="80" v:groupContext="shape" transform="translate(42.2869,-48.5999)">
					<title>工作表.64</title>
					<desc>+ __init__(dictDev)</desc>
					<v:userDefs/>
					<v:textBlock v:margins="rect(0,0,0,0)"/>
					<v:textRect cx="146.082" cy="326.6" width="292.17" height="16.8"/>
					<rect x="0" y="318.2" width="292.164" height="16.8" class="st3"/>
					<text x="-0" y="330.8" class="st4" v:langID="2052"><v:paragraph/><v:tabList/>+ __init__(dictDev)</text>				</g>
				<g id="shape81-210" v:mID="81" v:groupContext="shape" transform="translate(42.2869,-33.5999)">
					<title>工作表.65</title>
					<desc>+ balance()</desc>
					<v:userDefs/>
					<v:textBlock v:margins="rect(0,0,0,0)"/>
					<v:textRect cx="84.5738" cy="326.6" width="169.15" height="16.8"/>
					<rect x="0" y="318.2" width="169.148" height="16.8" class="st3"/>
					<text x="-0" y="330.8" class="st4" v:langID="2052"><v:paragraph/><v:tabList/>+ balance()</text>				</g>
				<g id="shape82-213" v:mID="82" v:groupContext="shape" transform="translate(42.2869,-18.6)">
					<title>工作表.66</title>
					<desc>+ state()</desc>
					<v:userDefs/>
					<v:textBlock v:margins="rect(0,0,0,0)"/>
					<v:textRect cx="69.1967" cy="326.6" width="138.4" height="16.8"/>
					<rect x="0" y="318.2" width="138.394" height="16.8" class="st3"/>
					<text x="-0" y="330.8" class="st4" v:langID="2052"><v:paragraph/><v:tabList/>+ state()</text>				</g>
				<g id="shape83-216" v:mID="83" v:groupContext="shape" transform="translate(42.2869,-3.59999)">
					<title>工作表.67</title>
					<desc>+ __str__()</desc>
					<v:userDefs/>
					<v:textBlock v:margins="rect(0,0,0,0)"/>
					<v:textRect cx="84.5738" cy="326.6" width="169.15" height="16.8"/>
					<rect x="0" y="318.2" width="169.148" height="16.8" class="st3"/>
					<text x="-0" y="330.8" class="st4" v:langID="2052"><v:paragraph/><v:tabList/>+ __str__()</text>				</g>
			</g>
			<g id="group84-219" transform="translate(668.352,-4.49999)" v:mID="84" v:groupContext="group">
				<title>components.port.Port</title>
				<g id="shape85-220" v:mID="85" v:groupContext="shape">
					<title>工作表.69</title>
					<path d="M0 335 L0 11 L146.08 11 L146.08 335 L0 335 Z" class="st2"/>
				</g>
				<g id="shape86-222" v:mID="86" v:groupContext="shape" transform="translate(42.2869,-304.599)">
					<title>工作表.70</title>
					<desc>Port</desc>
					<v:userDefs/>
					<v:textBlock v:margins="rect(0,0,0,0)"/>
					<v:textRect cx="30.7541" cy="326.6" width="61.51" height="16.8"/>
					<rect x="0" y="318.2" width="61.5082" height="16.8" class="st3"/>
					<text x="19.09" y="330.8" class="st4" v:langID="2052"><v:paragraph v:horizAlign="1"/><v:tabList/>Port</text>				</g>
				<g id="group87-225" transform="translate(-1.43885E-13,-300.999)" v:mID="87" v:groupContext="group">
					<title>工作表.71</title>
					<g id="shape88-226" v:mID="88" v:groupContext="shape">
						<title>工作表.88</title>
						<path d="M0 335 L146.08 335 L0 335 Z" class="st5"/>
					</g>
					<g id="shape89-228" v:mID="89" v:groupContext="shape">
						<title>工作表.89</title>
						<path d="M0 335 L146.08 335 L0 335 Z" class="st6"/>
						<path d="M0 335 L146.08 335" class="st7"/>
					</g>
				</g>
				<g id="shape90-231" v:mID="90" v:groupContext="shape" transform="translate(8.78689,-281.599)">
					<title>工作表.72</title>
					<desc>+ title : str</desc>
					<v:userDefs/>
					<v:textBlock v:margins="rect(0,0,0,0)"/>
					<v:textRect cx="99.9508" cy="326.6" width="199.91" height="16.8"/>
					<rect x="0" y="318.2" width="199.902" height="16.8" class="st3"/>
					<text x="-0" y="330.8" class="st4" v:langID="2052"><v:paragraph/><v:tabList/><tspan class="st8">+ title : str</tspan></text>				</g>
				<g id="shape91-235" v:mID="91" v:groupContext="shape" transform="translate(8.78689,-266.599)">
					<title>工作表.73</title>
					<desc>+ coolant : str</desc>
					<v:userDefs/>
					<v:textBlock v:margins="rect(0,0,0,0)"/>
					<v:textRect cx="115.328" cy="326.6" width="230.66" height="16.8"/>
					<rect x="0" y="318.2" width="230.655" height="16.8" class="st3"/>
					<text x="-0" y="330.8" class="st4" v:langID="2052"><v:paragraph/><v:tabList/><tspan class="st8">+ coolant : str</tspan></text>				</g>
				<g id="shape92-239" v:mID="92" v:groupContext="shape" transform="translate(8.78689,-251.599)">
					<title>工作表.74</title>
					<desc>+ coolant : str</desc>
					<v:userDefs/>
					<v:textBlock v:margins="rect(0,0,0,0)"/>
					<v:textRect cx="115.328" cy="326.6" width="230.66" height="16.8"/>
					<rect x="0" y="318.2" width="230.655" height="16.8" class="st3"/>
					<text x="-0" y="330.8" class="st4" v:langID="2052"><v:paragraph/><v:tabList/>+ coolant : str</text>				</g>
				<g id="shape93-242" v:mID="93" v:groupContext="shape" transform="translate(8.78689,-236.599)">
					<title>工作表.75</title>
					<desc>+ index : int</desc>
					<v:userDefs/>
					<v:textBlock v:margins="rect(0,0,0,0)"/>
					<v:textRect cx="99.9508" cy="326.6" width="199.91" height="16.8"/>
					<rect x="0" y="318.2" width="199.902" height="16.8" class="st3"/>
					<text x="-0" y="330.8" class="st4" v:langID="2052"><v:paragraph/><v:tabList/>+ index : int</text>				</g>
				<g id="shape94-245" v:mID="94" v:groupContext="shape" transform="translate(8.78689,-221.599)">
					<title>工作表.76</title>
					<desc>+ p : float</desc>
					<v:userDefs/>
					<v:textBlock v:margins="rect(0,0,0,0)"/>
					<v:textRect cx="84.5738" cy="326.6" width="169.15" height="16.8"/>
					<rect x="0" y="318.2" width="169.148" height="16.8" class="st3"/>
					<text x="-0" y="330.8" class="st4" v:langID="2052"><v:paragraph/><v:tabList/>+ p : float</text>				</g>
				<g id="shape95-248" v:mID="95" v:groupContext="shape" transform="translate(8.78689,-206.6)">
					<title>工作表.77</title>
					<desc>+ t : float</desc>
					<v:userDefs/>
					<v:textBlock v:margins="rect(0,0,0,0)"/>
					<v:textRect cx="84.5738" cy="326.6" width="169.15" height="16.8"/>
					<rect x="0" y="318.2" width="169.148" height="16.8" class="st3"/>
					<text x="-0" y="330.8" class="st4" v:langID="2052"><v:paragraph/><v:tabList/>+ t : float</text>				</g>
				<g id="shape96-251" v:mID="96" v:groupContext="shape" transform="translate(8.78689,-191.6)">
					<title>工作表.78</title>
					<desc>+ x : float</desc>
					<v:userDefs/>
					<v:textBlock v:margins="rect(0,0,0,0)"/>
					<v:textRect cx="84.5738" cy="326.6" width="169.15" height="16.8"/>
					<rect x="0" y="318.2" width="169.148" height="16.8" class="st3"/>
					<text x="-0" y="330.8" class="st4" v:langID="2052"><v:paragraph/><v:tabList/>+ x : float</text>				</g>
				<g id="shape97-254" v:mID="97" v:groupContext="shape" transform="translate(8.78689,-176.6)">
					<title>工作表.79</title>
					<desc>+ h : float</desc>
					<v:userDefs/>
					<v:textBlock v:margins="rect(0,0,0,0)"/>
					<v:textRect cx="84.5738" cy="326.6" width="169.15" height="16.8"/>
					<rect x="0" y="318.2" width="169.148" height="16.8" class="st3"/>
					<text x="-0" y="330.8" class="st4" v:langID="2052"><v:paragraph/><v:tabList/>+ h : float</text>				</g>
				<g id="shape98-257" v:mID="98" v:groupContext="shape" transform="translate(8.78689,-161.6)">
					<title>工作表.80</title>
					<desc>+ s : float</desc>
					<v:userDefs/>
					<v:textBlock v:margins="rect(0,0,0,0)"/>
					<v:textRect cx="84.5738" cy="326.6" width="169.15" height="16.8"/>
					<rect x="0" y="318.2" width="169.148" height="16.8" class="st3"/>
					<text x="-0" y="330.8" class="st4" v:langID="2052"><v:paragraph/><v:tabList/>+ s : float</text>				</g>
				<g id="shape99-260" v:mID="99" v:groupContext="shape" transform="translate(8.78689,-146.6)">
					<title>工作表.81</title>
					<desc>+ mdot : float</desc>
					<v:userDefs/>
					<v:textBlock v:margins="rect(0,0,0,0)"/>
					<v:textRect cx="107.64" cy="326.6" width="215.28" height="16.8"/>
					<rect x="0" y="318.2" width="215.278" height="16.8" class="st3"/>
					<text x="0" y="330.8" class="st4" v:langID="2052"><v:paragraph/><v:tabList/>+ mdot : float</text>				</g>
				<g id="shape100-263" v:mID="100" v:groupContext="shape" transform="translate(8.78689,-131.6)">
					<title>工作表.82</title>
					<desc>+ stateok : bool</desc>
					<v:userDefs/>
					<v:textBlock v:margins="rect(0,0,0,0)"/>
					<v:textRect cx="123.017" cy="326.6" width="246.04" height="16.8"/>
					<rect x="0" y="318.2" width="246.032" height="16.8" class="st3"/>
					<text x="-0" y="330.8" class="st4" v:langID="2052"><v:paragraph/><v:tabList/>+ stateok : bool</text>				</g>
				<g id="group101-266" transform="translate(-1.43885E-13,-128)" v:mID="101" v:groupContext="group">
					<title>工作表.83</title>
					<g id="shape102-267" v:mID="102" v:groupContext="shape">
						<title>工作表.102</title>
						<path d="M0 335 L146.08 335 L0 335 Z" class="st5"/>
					</g>
					<g id="shape103-269" v:mID="103" v:groupContext="shape">
						<title>工作表.103</title>
						<path d="M0 335 L146.08 335 L0 335 Z" class="st6"/>
						<path d="M0 335 L146.08 335" class="st7"/>
					</g>
				</g>
				<g id="shape104-272" v:mID="104" v:groupContext="shape" transform="translate(8.78689,-108.6)">
					<title>工作表.84</title>
					<desc>+ __init__(dictnode)</desc>
					<v:userDefs/>
					<v:textBlock v:margins="rect(0,0,0,0)"/>
					<v:textRect cx="153.771" cy="326.6" width="307.55" height="16.8"/>
					<rect x="0" y="318.2" width="307.541" height="16.8" class="st3"/>
					<text x="-0" y="330.8" class="st4" v:langID="2052"><v:paragraph/><v:tabList/>+ __init__(dictnode)</text>				</g>
				<g id="shape105-275" v:mID="105" v:groupContext="shape" transform="translate(8.78689,-93.5998)">
					<title>工作表.85</title>
					<desc>+ ph()</desc>
					<v:userDefs/>
					<v:textBlock v:margins="rect(0,0,0,0)"/>
					<v:textRect cx="46.1312" cy="326.6" width="92.27" height="16.8"/>
					<rect x="0" y="318.2" width="92.2623" height="16.8" class="st3"/>
					<text x="-0" y="330.8" class="st4" v:langID="2052"><v:paragraph/><v:tabList/>+ ph()</text>				</g>
				<g id="shape106-278" v:mID="106" v:groupContext="shape" transform="translate(8.78689,-78.5998)">
					<title>工作表.86</title>
					<desc>+ ps()</desc>
					<v:userDefs/>
					<v:textBlock v:margins="rect(0,0,0,0)"/>
					<v:textRect cx="46.1312" cy="326.6" width="92.27" height="16.8"/>
					<rect x="0" y="318.2" width="92.2623" height="16.8" class="st3"/>
					<text x="-0" y="330.8" class="st4" v:langID="2052"><v:paragraph/><v:tabList/>+ ps()</text>				</g>
				<g id="shape107-281" v:mID="107" v:groupContext="shape" transform="translate(8.78689,-63.5998)">
					<title>工作表.87</title>
					<desc>+ pt()</desc>
					<v:userDefs/>
					<v:textBlock v:margins="rect(0,0,0,0)"/>
					<v:textRect cx="46.1312" cy="326.6" width="92.27" height="16.8"/>
					<rect x="0" y="318.2" width="92.2623" height="16.8" class="st3"/>
					<text x="-0" y="330.8" class="st4" v:langID="2052"><v:paragraph/><v:tabList/>+ pt()</text>				</g>
				<g id="shape108-284" v:mID="108" v:groupContext="shape" transform="translate(8.78689,-48.5999)">
					<title>工作表.88</title>
					<desc>+ px()</desc>
					<v:userDefs/>
					<v:textBlock v:margins="rect(0,0,0,0)"/>
					<v:textRect cx="46.1312" cy="326.6" width="92.27" height="16.8"/>
					<rect x="0" y="318.2" width="92.2623" height="16.8" class="st3"/>
					<text x="-0" y="330.8" class="st4" v:langID="2052"><v:paragraph/><v:tabList/>+ px()</text>				</g>
				<g id="shape109-287" v:mID="109" v:groupContext="shape" transform="translate(8.78689,-33.5999)">
					<title>工作表.89</title>
					<desc>+ tx()</desc>
					<v:userDefs/>
					<v:textBlock v:margins="rect(0,0,0,0)"/>
					<v:textRect cx="46.1312" cy="326.6" width="92.27" height="16.8"/>
					<rect x="0" y="318.2" width="92.2623" height="16.8" class="st3"/>
					<text x="-0" y="330.8" class="st4" v:langID="2052"><v:paragraph/><v:tabList/>+ tx()</text>				</g>
				<g id="shape110-290" v:mID="110" v:groupContext="shape" transform="translate(8.78689,-18.6)">
					<title>工作表.90</title>
					<desc>+ state()</desc>
					<v:userDefs/>
					<v:textBlock v:margins="rect(0,0,0,0)"/>
					<v:textRect cx="69.1967" cy="326.6" width="138.4" height="16.8"/>
					<rect x="0" y="318.2" width="138.394" height="16.8" class="st3"/>
					<text x="-0" y="330.8" class="st4" v:langID="2052"><v:paragraph/><v:tabList/>+ state()</text>				</g>
				<g id="shape111-293" v:mID="111" v:groupContext="shape" transform="translate(8.78689,-3.59999)">
					<title>工作表.91</title>
					<desc>+ __str__()</desc>
					<v:userDefs/>
					<v:textBlock v:margins="rect(0,0,0,0)"/>
					<v:textRect cx="84.5738" cy="326.6" width="169.15" height="16.8"/>
					<rect x="0" y="318.2" width="169.148" height="16.8" class="st3"/>
					<text x="-0" y="330.8" class="st4" v:langID="2052"><v:paragraph/><v:tabList/>+ __str__()</text>				</g>
			</g>
			<g id="group112-296" transform="translate(834.205,-109.5)" v:mID="112" v:groupContext="group">
				<title>components.connector.Connector</title>
				<g id="shape113-297" v:mID="113" v:groupContext="shape">
					<title>工作表.93</title>
					<path d="M0 335 L0 221 L249.33 221 L249.33 335 L0 335 Z" class="st2"/>
				</g>
				<g id="shape114-299" v:mID="114" v:groupContext="shape" transform="translate(55.4672,-94.5998)">
					<title>工作表.94</title>
					<desc>Connector</desc>
					<v:userDefs/>
					<v:textBlock v:margins="rect(0,0,0,0)"/>
					<v:textRect cx="69.1967" cy="326.6" width="138.4" height="16.8"/>
					<rect x="0" y="318.2" width="138.394" height="16.8" class="st3"/>
					<text x="40.04" y="330.8" class="st4" v:langID="2052"><v:paragraph v:horizAlign="1"/><v:tabList/>Connector</text>				</g>
				<g id="group115-302" transform="translate(1.35891E-12,-90.9998)" v:mID="115" v:groupContext="group">
					<title>工作表.95</title>
					<g id="shape116-303" v:mID="116" v:groupContext="shape">
						<title>工作表.116</title>
						<path d="M0 335 L249.33 335 L0 335 Z" class="st5"/>
					</g>
					<g id="shape117-305" v:mID="117" v:groupContext="shape">
						<title>工作表.117</title>
						<path d="M0 335 L249.33 335 L0 335 Z" class="st6"/>
						<path d="M0 335 L249.33 335" class="st7"/>
					</g>
				</g>
				<g id="shape118-308" v:mID="118" v:groupContext="shape" transform="translate(8.78689,-71.5998)">
					<title>工作表.96</title>
					<desc>+ curindex : int</desc>
					<v:userDefs/>
					<v:textBlock v:margins="rect(0,0,0,0)"/>
					<v:textRect cx="123.017" cy="326.6" width="246.04" height="16.8"/>
					<rect x="0" y="318.2" width="246.032" height="16.8" class="st3"/>
					<text x="-0" y="330.8" class="st4" v:langID="2052"><v:paragraph/><v:tabList/>+ curindex : int</text>				</g>
				<g id="shape119-311" v:mID="119" v:groupContext="shape" transform="translate(8.78689,-56.5999)">
					<title>工作表.97</title>
					<desc>+ nodes : Port[0..*]</desc>
					<v:userDefs/>
					<v:textBlock v:margins="rect(0,0,0,0)"/>
					<v:textRect cx="153.771" cy="326.6" width="307.55" height="16.8"/>
					<rect x="0" y="318.2" width="307.541" height="16.8" class="st3"/>
					<text x="-0" y="330.8" class="st4" v:langID="2052"><v:paragraph/><v:tabList/>+ nodes : Port[0..*]</text>				</g>
				<g id="group120-314" transform="translate(1.35891E-12,-52.9999)" v:mID="120" v:groupContext="group">
					<title>工作表.98</title>
					<g id="shape121-315" v:mID="121" v:groupContext="shape">
						<title>工作表.121</title>
						<path d="M0 335 L249.33 335 L0 335 Z" class="st5"/>
					</g>
					<g id="shape122-317" v:mID="122" v:groupContext="shape">
						<title>工作表.122</title>
						<path d="M0 335 L249.33 335 L0 335 Z" class="st6"/>
						<path d="M0 335 L249.33 335" class="st7"/>
					</g>
				</g>
				<g id="shape123-320" v:mID="123" v:groupContext="shape" transform="translate(8.78689,-33.5999)">
					<title>工作表.99</title>
					<desc>+ __init__()</desc>
					<v:userDefs/>
					<v:textBlock v:margins="rect(0,0,0,0)"/>
					<v:textRect cx="92.2623" cy="326.6" width="184.53" height="16.8"/>
					<rect x="0" y="318.2" width="184.525" height="16.8" class="st3"/>
					<text x="-0" y="330.8" class="st4" v:langID="2052"><v:paragraph/><v:tabList/>+ __init__()</text>				</g>
				<g id="shape124-323" v:mID="124" v:groupContext="shape" transform="translate(8.78689,-18.6)">
					<title>工作表.100</title>
					<desc>+ add_node(tupConnector, comps)</desc>
					<v:userDefs/>
					<v:textBlock v:margins="rect(0,0,0,0)"/>
					<v:textRect cx="238.344" cy="326.6" width="476.69" height="16.8"/>
					<rect x="0" y="318.2" width="476.689" height="16.8" class="st3"/>
					<text x="0" y="330.8" class="st4" v:langID="2052"><v:paragraph/><v:tabList/>+ add_node(tupConnector, comps)</text>				</g>
				<g id="shape125-326" v:mID="125" v:groupContext="shape" transform="translate(8.78689,-3.59999)">
					<title>工作表.101</title>
					<desc>+ combined_node_value(node, port)</desc>
					<v:userDefs/>
					<v:textBlock v:margins="rect(0,0,0,0)"/>
					<v:textRect cx="253.721" cy="326.6" width="507.45" height="16.8"/>
					<rect x="0" y="318.2" width="507.443" height="16.8" class="st3"/>
					<text x="-0" y="330.8" class="st4" v:langID="2052"><v:paragraph/><v:tabList/>+ combined_node_value(node, port)</text>				</g>
			</g>
		</g>
	</g>
</svg>
