<?xml version="1.0" encoding="UTF-8" standalone="no"?><svg xmlns="http://www.w3.org/2000/svg" xmlns:xlink="http://www.w3.org/1999/xlink" contentScriptType="application/ecmascript" contentStyleType="text/css" height="207px" preserveAspectRatio="none" style="width:123px;height:207px;background:#FFFFFF;" version="1.1" viewBox="0 0 123 207" width="123px" zoomAndPan="magnify"><defs><filter height="300%" id="f130z1dhn914zj" width="300%" x="-1" y="-1"><feGaussianBlur result="blurOut" stdDeviation="2.0"/><feColorMatrix in="blurOut" result="blurOut2" type="matrix" values="0 0 0 0 0 0 0 0 0 0 0 0 0 0 0 0 0 0 .4 0"/><feOffset dx="4.0" dy="4.0" in="blurOut2" result="blurOut3"/><feBlend in="SourceGraphic" in2="blurOut3" mode="normal"/></filter></defs><g><!--MD5=[db8554f2b1c91af4070e9585566a1b26]
class Compressor--><rect codeLine="1" fill="#FEFECE" filter="url(#f130z1dhn914zj)" height="78.0459" id="Compressor" style="stroke:#A80036;stroke-width:1.5;" width="102" x="7" y="7"/><ellipse cx="22" cy="23" fill="#ADD1B2" rx="11" ry="11" style="stroke:#A80036;stroke-width:1.0;"/><path d="M20.5781,28.3594 Q18.7188,28.3594 17.625,26.9688 Q16.5313,25.5781 16.5313,22.5938 Q16.5313,20.0625 17.6953,18.4063 Q18.8594,16.75 20.8438,16.75 Q22.3125,16.75 22.7813,16.875 Q23.25,17.0781 23.25,17.0781 Q23.25,17.0781 23.25,17.0078 Q23.25,16.9375 23.8594,16.0156 L24.9063,19.6719 L23.5781,20.0781 Q23.1094,18.5313 22.4453,17.8672 Q21.7813,17.2031 20.7188,17.2031 Q20.3281,17.2031 19.5625,18.7344 Q18.7969,20.2656 18.7969,22.5156 Q18.7969,24.9844 19.4609,26.375 Q20.125,27.7656 20.6563,27.7656 Q21.7188,27.7656 22.4766,27 Q23.2344,26.2344 23.5781,24.5781 L24.9063,25.1719 Q24.5781,26.5781 23.6797,27.4688 Q22.7813,28.3594 20.5781,28.3594 Z " fill="#000000"/><text fill="#000000" font-family="sans-serif" font-size="12" lengthAdjust="spacing" textLength="70" x="36" y="28.5576">Compressor</text><line style="stroke:#A80036;stroke-width:1.5;" x1="8" x2="108" y1="39" y2="39"/><ellipse cx="18" cy="50" rx="3" ry="3" style="stroke:#038048;stroke-width:1.0;fill:none;"/><text fill="#000000" font-family="sans-serif" font-size="11" lengthAdjust="spacing" textLength="61" x="27" y="55.606">iPort : Port[1]</text><ellipse cx="18" cy="65.0229" rx="3" ry="3" style="stroke:#038048;stroke-width:1.0;fill:none;"/><text fill="#000000" font-family="sans-serif" font-size="11" lengthAdjust="spacing" textLength="65" x="27" y="70.6289">oPort : Port[1]</text><line style="stroke:#A80036;stroke-width:1.5;" x1="8" x2="108" y1="77.0459" y2="77.0459"/><!--MD5=[a0bfe97ac0a38e6e74cc1c7c7b744b71]
class Port--><rect fill="#FEFECE" filter="url(#f130z1dhn914zj)" height="48" id="Port" style="stroke:#A80036;stroke-width:1.5;" width="54" x="31" y="145"/><ellipse cx="46" cy="161" fill="#ADD1B2" rx="11" ry="11" style="stroke:#A80036;stroke-width:1.0;"/><path d="M44.5781,166.3594 Q42.7188,166.3594 41.625,164.9688 Q40.5313,163.5781 40.5313,160.5938 Q40.5313,158.0625 41.6953,156.4063 Q42.8594,154.75 44.8438,154.75 Q46.3125,154.75 46.7813,154.875 Q47.25,155.0781 47.25,155.0781 Q47.25,155.0781 47.25,155.0078 Q47.25,154.9375 47.8594,154.0156 L48.9063,157.6719 L47.5781,158.0781 Q47.1094,156.5313 46.4453,155.8672 Q45.7813,155.2031 44.7188,155.2031 Q44.3281,155.2031 43.5625,156.7344 Q42.7969,158.2656 42.7969,160.5156 Q42.7969,162.9844 43.4609,164.375 Q44.125,165.7656 44.6563,165.7656 Q45.7188,165.7656 46.4766,165 Q47.2344,164.2344 47.5781,162.5781 L48.9063,163.1719 Q48.5781,164.5781 47.6797,165.4688 Q46.7813,166.3594 44.5781,166.3594 Z " fill="#000000"/><text fill="#000000" font-family="sans-serif" font-size="12" lengthAdjust="spacing" textLength="22" x="60" y="166.5576">Port</text><line style="stroke:#A80036;stroke-width:1.5;" x1="32" x2="84" y1="177" y2="177"/><line style="stroke:#A80036;stroke-width:1.5;" x1="32" x2="84" y1="185" y2="185"/><!--MD5=[0d31584b7874b6687f2f44d8fe3fe039]
reverse link Compressor to Port--><path codeLine="5" d="M58,98.51 C58,114.62 58,131.6 58,144.74 " fill="none" id="Compressor-backto-Port" style="stroke:#A80036;stroke-width:1.0;"/><polygon fill="#A80036" points="58,85.29,54,91.29,58,97.29,62,91.29,58,85.29" style="stroke:#A80036;stroke-width:1.0;"/><text fill="#000000" font-family="sans-serif" font-size="13" lengthAdjust="spacing" textLength="7" x="50.4422" y="107.8609">1</text><text fill="#000000" font-family="sans-serif" font-size="13" lengthAdjust="spacing" textLength="7" x="50.1031" y="134.3399">2</text><!--MD5=[013eff38e6037fdeb1882deaa8cfadf5]
@startuml
class Compressor{
  + iPort : Port[1]
  + oPort : Port[1]
}
Compressor "1" *- - "2" Port
@enduml

PlantUML version 1.2021.16(Thu Dec 09 01:25:22 CST 2021)
(GPL source distribution)
Java Runtime: Java(TM) SE Runtime Environment
JVM: Java HotSpot(TM) 64-Bit Server VM
Default Encoding: GBK
Language: zh
Country: CN
--></g></svg>