<?xml version="1.0" encoding="UTF-8" standalone="no"?><svg xmlns="http://www.w3.org/2000/svg" xmlns:xlink="http://www.w3.org/1999/xlink" contentScriptType="application/ecmascript" contentStyleType="text/css" height="372px" preserveAspectRatio="none" style="width:733px;height:372px;background:#FFFFFF;" version="1.1" viewBox="0 0 733 372" width="733px" zoomAndPan="magnify"><defs><filter height="300%" id="f1rh7ul3a0hq9c" width="300%" x="-1" y="-1"><feGaussianBlur result="blurOut" stdDeviation="2.0"/><feColorMatrix in="blurOut" result="blurOut2" type="matrix" values="0 0 0 0 0 0 0 0 0 0 0 0 0 0 0 0 0 0 .4 0"/><feOffset dx="4.0" dy="4.0" in="blurOut2" result="blurOut3"/><feBlend in="SourceGraphic" in2="blurOut3" mode="normal"/></filter></defs><g><!--MD5=[db8554f2b1c91af4070e9585566a1b26]
class Compressor--><rect codeLine="1" fill="#FEFECE" filter="url(#f1rh7ul3a0hq9c)" height="243.2983" id="Compressor" style="stroke:#A80036;stroke-width:1.5;" width="149" x="7" y="7"/><ellipse cx="43.15" cy="23" fill="#ADD1B2" rx="11" ry="11" style="stroke:#A80036;stroke-width:1.0;"/><path d="M41.7281,28.3594 Q39.8688,28.3594 38.775,26.9688 Q37.6813,25.5781 37.6813,22.5938 Q37.6813,20.0625 38.8453,18.4063 Q40.0094,16.75 41.9938,16.75 Q43.4625,16.75 43.9313,16.875 Q44.4,17.0781 44.4,17.0781 Q44.4,17.0781 44.4,17.0078 Q44.4,16.9375 45.0094,16.0156 L46.0563,19.6719 L44.7281,20.0781 Q44.2594,18.5313 43.5953,17.8672 Q42.9313,17.2031 41.8688,17.2031 Q41.4781,17.2031 40.7125,18.7344 Q39.9469,20.2656 39.9469,22.5156 Q39.9469,24.9844 40.6109,26.375 Q41.275,27.7656 41.8063,27.7656 Q42.8688,27.7656 43.6266,27 Q44.3844,26.2344 44.7281,24.5781 L46.0563,25.1719 Q45.7281,26.5781 44.8297,27.4688 Q43.9313,28.3594 41.7281,28.3594 Z " fill="#000000"/><text fill="#000000" font-family="sans-serif" font-size="12" lengthAdjust="spacing" textLength="70" x="61.85" y="28.5576">Compressor</text><line style="stroke:#A80036;stroke-width:1.5;" x1="8" x2="155" y1="39" y2="39"/><ellipse cx="18" cy="50" rx="3" ry="3" style="stroke:#038048;stroke-width:1.0;fill:none;"/><text fill="#000000" font-family="sans-serif" font-size="11" lengthAdjust="spacing" text-decoration="underline" textLength="58" x="27" y="55.606">devtype: str</text><ellipse cx="18" cy="65.0229" rx="3" ry="3" style="stroke:#038048;stroke-width:1.0;fill:none;"/><text fill="#000000" font-family="sans-serif" font-size="11" lengthAdjust="spacing" text-decoration="underline" textLength="53" x="27" y="70.6289">energy: str</text><ellipse cx="18" cy="80.0459" rx="3" ry="3" style="stroke:#038048;stroke-width:1.0;fill:none;"/><text fill="#000000" font-family="sans-serif" font-size="11" lengthAdjust="spacing" textLength="45" x="27" y="85.6519">name: str</text><ellipse cx="18" cy="95.0688" rx="3" ry="3" style="stroke:#038048;stroke-width:1.0;fill:none;"/><text fill="#000000" font-family="sans-serif" font-size="11" lengthAdjust="spacing" textLength="58" x="27" y="100.6748">iPort: Port[1]</text><ellipse cx="18" cy="110.0918" rx="3" ry="3" style="stroke:#038048;stroke-width:1.0;fill:none;"/><text fill="#000000" font-family="sans-serif" font-size="11" lengthAdjust="spacing" textLength="62" x="27" y="115.6978">oPort: Port[1]</text><ellipse cx="18" cy="125.1147" rx="3" ry="3" style="stroke:#038048;stroke-width:1.0;fill:none;"/><text fill="#000000" font-family="sans-serif" font-size="11" lengthAdjust="spacing" textLength="59" x="27" y="130.7207">portdict: dict</text><ellipse cx="18" cy="140.1377" rx="3" ry="3" style="stroke:#038048;stroke-width:1.0;fill:none;"/><text fill="#000000" font-family="sans-serif" font-size="11" lengthAdjust="spacing" textLength="37" x="27" y="145.7437">ef: float</text><ellipse cx="18" cy="155.1606" rx="3" ry="3" style="stroke:#038048;stroke-width:1.0;fill:none;"/><text fill="#000000" font-family="sans-serif" font-size="11" lengthAdjust="spacing" textLength="43" x="27" y="160.7666">Wc: float</text><ellipse cx="18" cy="170.1836" rx="3" ry="3" style="stroke:#038048;stroke-width:1.0;fill:none;"/><text fill="#000000" font-family="sans-serif" font-size="11" lengthAdjust="spacing" textLength="47" x="27" y="175.7896">isos: float</text><line style="stroke:#A80036;stroke-width:1.5;" x1="8" x2="155" y1="182.2065" y2="182.2065"/><ellipse cx="18" cy="193.2065" fill="#84BE84" rx="3" ry="3" style="stroke:#038048;stroke-width:1.0;"/><text fill="#000000" font-family="sans-serif" font-size="11" lengthAdjust="spacing" text-decoration="underline" textLength="123" x="27" y="198.8125">Compressor(dictDev:dict)</text><ellipse cx="18" cy="208.2295" fill="#84BE84" rx="3" ry="3" style="stroke:#038048;stroke-width:1.0;"/><text fill="#000000" font-family="sans-serif" font-size="11" lengthAdjust="spacing" textLength="46" x="27" y="213.8354">balance()</text><ellipse cx="18" cy="223.2524" fill="#84BE84" rx="3" ry="3" style="stroke:#038048;stroke-width:1.0;"/><text fill="#000000" font-family="sans-serif" font-size="11" lengthAdjust="spacing" textLength="32" x="27" y="228.8584">state()</text><ellipse cx="18" cy="238.2754" fill="#84BE84" rx="3" ry="3" style="stroke:#038048;stroke-width:1.0;"/><text fill="#000000" font-family="sans-serif" font-size="11" lengthAdjust="spacing" textLength="61" x="27" y="243.8813">__str()__:str</text><!--MD5=[e501cbc99ad27e36fdb550ea4575d438]
class Condenser--><rect codeLine="16" fill="#FEFECE" filter="url(#f1rh7ul3a0hq9c)" height="213.2524" id="Condenser" style="stroke:#A80036;stroke-width:1.5;" width="143" x="191" y="22"/><ellipse cx="228.05" cy="38" fill="#ADD1B2" rx="11" ry="11" style="stroke:#A80036;stroke-width:1.0;"/><path d="M226.6281,43.3594 Q224.7688,43.3594 223.675,41.9688 Q222.5813,40.5781 222.5813,37.5938 Q222.5813,35.0625 223.7453,33.4063 Q224.9094,31.75 226.8938,31.75 Q228.3625,31.75 228.8313,31.875 Q229.3,32.0781 229.3,32.0781 Q229.3,32.0781 229.3,32.0078 Q229.3,31.9375 229.9094,31.0156 L230.9563,34.6719 L229.6281,35.0781 Q229.1594,33.5313 228.4953,32.8672 Q227.8313,32.2031 226.7688,32.2031 Q226.3781,32.2031 225.6125,33.7344 Q224.8469,35.2656 224.8469,37.5156 Q224.8469,39.9844 225.5109,41.375 Q226.175,42.7656 226.7063,42.7656 Q227.7688,42.7656 228.5266,42 Q229.2844,41.2344 229.6281,39.5781 L230.9563,40.1719 Q230.6281,41.5781 229.7297,42.4688 Q228.8313,43.3594 226.6281,43.3594 Z " fill="#000000"/><text fill="#000000" font-family="sans-serif" font-size="12" lengthAdjust="spacing" textLength="62" x="246.95" y="43.5576">Condenser</text><line style="stroke:#A80036;stroke-width:1.5;" x1="192" x2="333" y1="54" y2="54"/><ellipse cx="202" cy="65" rx="3" ry="3" style="stroke:#038048;stroke-width:1.0;fill:none;"/><text fill="#000000" font-family="sans-serif" font-size="11" lengthAdjust="spacing" text-decoration="underline" textLength="58" x="211" y="70.606">devtype: str</text><ellipse cx="202" cy="80.0229" rx="3" ry="3" style="stroke:#038048;stroke-width:1.0;fill:none;"/><text fill="#000000" font-family="sans-serif" font-size="11" lengthAdjust="spacing" text-decoration="underline" textLength="53" x="211" y="85.6289">energy: str</text><ellipse cx="202" cy="95.0459" rx="3" ry="3" style="stroke:#038048;stroke-width:1.0;fill:none;"/><text fill="#000000" font-family="sans-serif" font-size="11" lengthAdjust="spacing" textLength="45" x="211" y="100.6519">name: str</text><ellipse cx="202" cy="110.0688" rx="3" ry="3" style="stroke:#038048;stroke-width:1.0;fill:none;"/><text fill="#000000" font-family="sans-serif" font-size="11" lengthAdjust="spacing" textLength="58" x="211" y="115.6748">iPort: Port[1]</text><ellipse cx="202" cy="125.0918" rx="3" ry="3" style="stroke:#038048;stroke-width:1.0;fill:none;"/><text fill="#000000" font-family="sans-serif" font-size="11" lengthAdjust="spacing" textLength="62" x="211" y="130.6978">oPort: Port[1]</text><ellipse cx="202" cy="140.1147" rx="3" ry="3" style="stroke:#038048;stroke-width:1.0;fill:none;"/><text fill="#000000" font-family="sans-serif" font-size="11" lengthAdjust="spacing" textLength="59" x="211" y="145.7207">portdict: dict</text><ellipse cx="202" cy="155.1377" rx="3" ry="3" style="stroke:#038048;stroke-width:1.0;fill:none;"/><text fill="#000000" font-family="sans-serif" font-size="11" lengthAdjust="spacing" textLength="50" x="211" y="160.7437">Qout: float</text><line style="stroke:#A80036;stroke-width:1.5;" x1="192" x2="333" y1="167.1606" y2="167.1606"/><ellipse cx="202" cy="178.1606" fill="#84BE84" rx="3" ry="3" style="stroke:#038048;stroke-width:1.0;"/><text fill="#000000" font-family="sans-serif" font-size="11" lengthAdjust="spacing" text-decoration="underline" textLength="117" x="211" y="183.7666">Condenser(dictDev:dict)</text><ellipse cx="202" cy="193.1836" fill="#84BE84" rx="3" ry="3" style="stroke:#038048;stroke-width:1.0;"/><text fill="#000000" font-family="sans-serif" font-size="11" lengthAdjust="spacing" textLength="46" x="211" y="198.7896">balance()</text><ellipse cx="202" cy="208.2065" fill="#84BE84" rx="3" ry="3" style="stroke:#038048;stroke-width:1.0;"/><text fill="#000000" font-family="sans-serif" font-size="11" lengthAdjust="spacing" textLength="32" x="211" y="213.8125">state()</text><ellipse cx="202" cy="223.2295" fill="#84BE84" rx="3" ry="3" style="stroke:#038048;stroke-width:1.0;"/><text fill="#000000" font-family="sans-serif" font-size="11" lengthAdjust="spacing" textLength="61" x="211" y="228.8354">__str()__:str</text><!--MD5=[d55cb724ad6d3b4dba928fddb96ecd4e]
class Evaporator--><rect codeLine="29" fill="#FEFECE" filter="url(#f1rh7ul3a0hq9c)" height="213.2524" id="Evaporator" style="stroke:#A80036;stroke-width:1.5;" width="147" x="369" y="22"/><ellipse cx="409.2" cy="38" fill="#ADD1B2" rx="11" ry="11" style="stroke:#A80036;stroke-width:1.0;"/><path d="M407.7781,43.3594 Q405.9188,43.3594 404.825,41.9688 Q403.7313,40.5781 403.7313,37.5938 Q403.7313,35.0625 404.8953,33.4063 Q406.0594,31.75 408.0438,31.75 Q409.5125,31.75 409.9813,31.875 Q410.45,32.0781 410.45,32.0781 Q410.45,32.0781 410.45,32.0078 Q410.45,31.9375 411.0594,31.0156 L412.1063,34.6719 L410.7781,35.0781 Q410.3094,33.5313 409.6453,32.8672 Q408.9813,32.2031 407.9188,32.2031 Q407.5281,32.2031 406.7625,33.7344 Q405.9969,35.2656 405.9969,37.5156 Q405.9969,39.9844 406.6609,41.375 Q407.325,42.7656 407.8563,42.7656 Q408.9188,42.7656 409.6766,42 Q410.4344,41.2344 410.7781,39.5781 L412.1063,40.1719 Q411.7781,41.5781 410.8797,42.4688 Q409.9813,43.3594 407.7781,43.3594 Z " fill="#000000"/><text fill="#000000" font-family="sans-serif" font-size="12" lengthAdjust="spacing" textLength="59" x="428.8" y="43.5576">Evaporator</text><line style="stroke:#A80036;stroke-width:1.5;" x1="370" x2="515" y1="54" y2="54"/><ellipse cx="380" cy="65" rx="3" ry="3" style="stroke:#038048;stroke-width:1.0;fill:none;"/><text fill="#000000" font-family="sans-serif" font-size="11" lengthAdjust="spacing" text-decoration="underline" textLength="58" x="389" y="70.606">devtype: str</text><ellipse cx="380" cy="80.0229" rx="3" ry="3" style="stroke:#038048;stroke-width:1.0;fill:none;"/><text fill="#000000" font-family="sans-serif" font-size="11" lengthAdjust="spacing" text-decoration="underline" textLength="53" x="389" y="85.6289">energy: str</text><ellipse cx="380" cy="95.0459" rx="3" ry="3" style="stroke:#038048;stroke-width:1.0;fill:none;"/><text fill="#000000" font-family="sans-serif" font-size="11" lengthAdjust="spacing" textLength="45" x="389" y="100.6519">name: str</text><ellipse cx="380" cy="110.0688" rx="3" ry="3" style="stroke:#038048;stroke-width:1.0;fill:none;"/><text fill="#000000" font-family="sans-serif" font-size="11" lengthAdjust="spacing" textLength="58" x="389" y="115.6748">iPort: Port[1]</text><ellipse cx="380" cy="125.0918" rx="3" ry="3" style="stroke:#038048;stroke-width:1.0;fill:none;"/><text fill="#000000" font-family="sans-serif" font-size="11" lengthAdjust="spacing" textLength="62" x="389" y="130.6978">oPort: Port[1]</text><ellipse cx="380" cy="140.1147" rx="3" ry="3" style="stroke:#038048;stroke-width:1.0;fill:none;"/><text fill="#000000" font-family="sans-serif" font-size="11" lengthAdjust="spacing" textLength="59" x="389" y="145.7207">portdict: dict</text><ellipse cx="380" cy="155.1377" rx="3" ry="3" style="stroke:#038048;stroke-width:1.0;fill:none;"/><text fill="#000000" font-family="sans-serif" font-size="11" lengthAdjust="spacing" textLength="43" x="389" y="160.7437">Qin: float</text><line style="stroke:#A80036;stroke-width:1.5;" x1="370" x2="515" y1="167.1606" y2="167.1606"/><ellipse cx="380" cy="178.1606" fill="#84BE84" rx="3" ry="3" style="stroke:#038048;stroke-width:1.0;"/><text fill="#000000" font-family="sans-serif" font-size="11" lengthAdjust="spacing" text-decoration="underline" textLength="121" x="389" y="183.7666">Evaporatorr(dictDev:dict)</text><ellipse cx="380" cy="193.1836" fill="#84BE84" rx="3" ry="3" style="stroke:#038048;stroke-width:1.0;"/><text fill="#000000" font-family="sans-serif" font-size="11" lengthAdjust="spacing" textLength="46" x="389" y="198.7896">balance()</text><ellipse cx="380" cy="208.2065" fill="#84BE84" rx="3" ry="3" style="stroke:#038048;stroke-width:1.0;"/><text fill="#000000" font-family="sans-serif" font-size="11" lengthAdjust="spacing" textLength="32" x="389" y="213.8125">state()</text><ellipse cx="380" cy="223.2295" fill="#84BE84" rx="3" ry="3" style="stroke:#038048;stroke-width:1.0;"/><text fill="#000000" font-family="sans-serif" font-size="11" lengthAdjust="spacing" textLength="61" x="389" y="228.8354">__str()__:str</text><!--MD5=[7022f0b8ea096adfd271207b1a133ca4]
class ExpansionValve--><rect codeLine="42" fill="#FEFECE" filter="url(#f1rh7ul3a0hq9c)" height="198.2295" id="ExpansionValve" style="stroke:#A80036;stroke-width:1.5;" width="168" x="551.5" y="29.5"/><ellipse cx="588.55" cy="45.5" fill="#ADD1B2" rx="11" ry="11" style="stroke:#A80036;stroke-width:1.0;"/><path d="M587.1281,50.8594 Q585.2688,50.8594 584.175,49.4688 Q583.0813,48.0781 583.0813,45.0938 Q583.0813,42.5625 584.2453,40.9063 Q585.4094,39.25 587.3938,39.25 Q588.8625,39.25 589.3313,39.375 Q589.8,39.5781 589.8,39.5781 Q589.8,39.5781 589.8,39.5078 Q589.8,39.4375 590.4094,38.5156 L591.4563,42.1719 L590.1281,42.5781 Q589.6594,41.0313 588.9953,40.3672 Q588.3313,39.7031 587.2688,39.7031 Q586.8781,39.7031 586.1125,41.2344 Q585.3469,42.7656 585.3469,45.0156 Q585.3469,47.4844 586.0109,48.875 Q586.675,50.2656 587.2063,50.2656 Q588.2688,50.2656 589.0266,49.5 Q589.7844,48.7344 590.1281,47.0781 L591.4563,47.6719 Q591.1281,49.0781 590.2297,49.9688 Q589.3313,50.8594 587.1281,50.8594 Z " fill="#000000"/><text fill="#000000" font-family="sans-serif" font-size="12" lengthAdjust="spacing" textLength="87" x="607.45" y="51.0576">ExpansionValve</text><line style="stroke:#A80036;stroke-width:1.5;" x1="552.5" x2="718.5" y1="61.5" y2="61.5"/><ellipse cx="562.5" cy="72.5" rx="3" ry="3" style="stroke:#038048;stroke-width:1.0;fill:none;"/><text fill="#000000" font-family="sans-serif" font-size="11" lengthAdjust="spacing" text-decoration="underline" textLength="58" x="571.5" y="78.106">devtype: str</text><ellipse cx="562.5" cy="87.5229" rx="3" ry="3" style="stroke:#038048;stroke-width:1.0;fill:none;"/><text fill="#000000" font-family="sans-serif" font-size="11" lengthAdjust="spacing" text-decoration="underline" textLength="53" x="571.5" y="93.1289">energy: str</text><ellipse cx="562.5" cy="102.5459" rx="3" ry="3" style="stroke:#038048;stroke-width:1.0;fill:none;"/><text fill="#000000" font-family="sans-serif" font-size="11" lengthAdjust="spacing" textLength="45" x="571.5" y="108.1519">name: str</text><ellipse cx="562.5" cy="117.5688" rx="3" ry="3" style="stroke:#038048;stroke-width:1.0;fill:none;"/><text fill="#000000" font-family="sans-serif" font-size="11" lengthAdjust="spacing" textLength="58" x="571.5" y="123.1748">iPort: Port[1]</text><ellipse cx="562.5" cy="132.5918" rx="3" ry="3" style="stroke:#038048;stroke-width:1.0;fill:none;"/><text fill="#000000" font-family="sans-serif" font-size="11" lengthAdjust="spacing" textLength="62" x="571.5" y="138.1978">oPort: Port[1]</text><ellipse cx="562.5" cy="147.6147" rx="3" ry="3" style="stroke:#038048;stroke-width:1.0;fill:none;"/><text fill="#000000" font-family="sans-serif" font-size="11" lengthAdjust="spacing" textLength="59" x="571.5" y="153.2207">portdict: dict</text><line style="stroke:#A80036;stroke-width:1.5;" x1="552.5" x2="718.5" y1="159.6377" y2="159.6377"/><ellipse cx="562.5" cy="170.6377" fill="#84BE84" rx="3" ry="3" style="stroke:#038048;stroke-width:1.0;"/><text fill="#000000" font-family="sans-serif" font-size="11" lengthAdjust="spacing" text-decoration="underline" textLength="142" x="571.5" y="176.2437">ExpansionValve(dictDev:dict)</text><ellipse cx="562.5" cy="185.6606" fill="#84BE84" rx="3" ry="3" style="stroke:#038048;stroke-width:1.0;"/><text fill="#000000" font-family="sans-serif" font-size="11" lengthAdjust="spacing" textLength="46" x="571.5" y="191.2666">balance()</text><ellipse cx="562.5" cy="200.6836" fill="#84BE84" rx="3" ry="3" style="stroke:#038048;stroke-width:1.0;"/><text fill="#000000" font-family="sans-serif" font-size="11" lengthAdjust="spacing" textLength="32" x="571.5" y="206.2896">state()</text><ellipse cx="562.5" cy="215.7065" fill="#84BE84" rx="3" ry="3" style="stroke:#038048;stroke-width:1.0;"/><text fill="#000000" font-family="sans-serif" font-size="11" lengthAdjust="spacing" textLength="61" x="571.5" y="221.3125">__str()__:str</text><!--MD5=[a0bfe97ac0a38e6e74cc1c7c7b744b71]
class Port--><rect fill="#FEFECE" filter="url(#f1rh7ul3a0hq9c)" height="48" id="Port" style="stroke:#A80036;stroke-width:1.5;" width="54" x="325.5" y="310"/><ellipse cx="340.5" cy="326" fill="#ADD1B2" rx="11" ry="11" style="stroke:#A80036;stroke-width:1.0;"/><path d="M339.0781,331.3594 Q337.2188,331.3594 336.125,329.9688 Q335.0313,328.5781 335.0313,325.5938 Q335.0313,323.0625 336.1953,321.4063 Q337.3594,319.75 339.3438,319.75 Q340.8125,319.75 341.2813,319.875 Q341.75,320.0781 341.75,320.0781 Q341.75,320.0781 341.75,320.0078 Q341.75,319.9375 342.3594,319.0156 L343.4063,322.6719 L342.0781,323.0781 Q341.6094,321.5313 340.9453,320.8672 Q340.2813,320.2031 339.2188,320.2031 Q338.8281,320.2031 338.0625,321.7344 Q337.2969,323.2656 337.2969,325.5156 Q337.2969,327.9844 337.9609,329.375 Q338.625,330.7656 339.1563,330.7656 Q340.2188,330.7656 340.9766,330 Q341.7344,329.2344 342.0781,327.5781 L343.4063,328.1719 Q343.0781,329.5781 342.1797,330.4688 Q341.2813,331.3594 339.0781,331.3594 Z " fill="#000000"/><text fill="#000000" font-family="sans-serif" font-size="12" lengthAdjust="spacing" textLength="22" x="354.5" y="331.5576">Port</text><line style="stroke:#A80036;stroke-width:1.5;" x1="326.5" x2="378.5" y1="342" y2="342"/><line style="stroke:#A80036;stroke-width:1.5;" x1="326.5" x2="378.5" y1="350" y2="350"/><!--MD5=[0d31584b7874b6687f2f44d8fe3fe039]
reverse link Compressor to Port--><path codeLine="54" d="M165.79,243.48 C168.32,245.73 170.9,247.91 173.5,250 C220.78,287.96 288.25,313.1 325.39,325.01 " fill="none" id="Compressor-backto-Port" style="stroke:#A80036;stroke-width:1.0;"/><polygon fill="#A80036" points="156.19,234.44,157.8124,241.4662,164.9222,242.671,163.2998,235.6447,156.19,234.44" style="stroke:#A80036;stroke-width:1.0;"/><text fill="#000000" font-family="sans-serif" font-size="13" lengthAdjust="spacing" textLength="7" x="163.8868" y="241.9521">1</text><text fill="#000000" font-family="sans-serif" font-size="13" lengthAdjust="spacing" textLength="7" x="310.5462" y="318.5228">2</text><!--MD5=[8d5bbae928a54264588ac05cf27ff6c9]
reverse link ExpansionValve to Port--><path codeLine="55" d="M549.36,236.84 C544.19,241.49 538.89,245.91 533.5,250 C484.76,286.99 416.89,312.51 379.65,324.73 " fill="none" id="ExpansionValve-backto-Port" style="stroke:#A80036;stroke-width:1.0;"/><polygon fill="#A80036" points="559.15,227.64,552.0384,228.8337,550.405,235.8574,557.5166,234.6637,559.15,227.64" style="stroke:#A80036;stroke-width:1.0;"/><text fill="#000000" font-family="sans-serif" font-size="13" lengthAdjust="spacing" textLength="7" x="546.286" y="250.462">1</text><text fill="#000000" font-family="sans-serif" font-size="13" lengthAdjust="spacing" textLength="7" x="387.5041" y="318.171">2</text><!--MD5=[4ac2cdaf529f64a8b77244e8eeb71c81]
reverse link Evaporator to Port--><path codeLine="56" d="M390.39,247.33 C379.81,271.25 369.77,293.95 362.69,309.97 " fill="none" id="Evaporator-backto-Port" style="stroke:#A80036;stroke-width:1.0;"/><polygon fill="#A80036" points="395.79,235.12,389.7048,238.9892,390.9359,246.0944,397.0211,242.2252,395.79,235.12" style="stroke:#A80036;stroke-width:1.0;"/><text fill="#000000" font-family="sans-serif" font-size="13" lengthAdjust="spacing" textLength="7" x="385.2596" y="258.13">1</text><text fill="#000000" font-family="sans-serif" font-size="13" lengthAdjust="spacing" textLength="7" x="357.4879" y="299.2269">2</text><!--MD5=[9cf70ca5f93b9adf535e337720b6c44c]
reverse link Condenser to Port--><path codeLine="57" d="M314.61,247.33 C325.19,271.25 335.23,293.95 342.31,309.97 " fill="none" id="Condenser-backto-Port" style="stroke:#A80036;stroke-width:1.0;"/><polygon fill="#A80036" points="309.21,235.12,307.9789,242.2252,314.0641,246.0944,315.2952,238.9892,309.21,235.12" style="stroke:#A80036;stroke-width:1.0;"/><text fill="#000000" font-family="sans-serif" font-size="13" lengthAdjust="spacing" textLength="7" x="305.2482" y="258.13">1</text><text fill="#000000" font-family="sans-serif" font-size="13" lengthAdjust="spacing" textLength="7" x="331.6308" y="299.2269">2</text><!--MD5=[45321f9af897d2a4c659487c3e44ea6d]
@startuml
class Compressor {
 + {static} devtype: str
 + {static} energy: str
 + name: str
 + iPort: Port[1]
 + oPort: Port[1]
 + portdict: dict
 + ef: float
 + Wc: float
 + isos: float
 + {static} Compressor(dictDev:dict)
 + balance()
 + state()
 + __str()__:str
}
class Condenser {
 + {static} devtype: str
 + {static} energy: str
 + name: str
 + iPort: Port[1]
 + oPort: Port[1]
 + portdict: dict
 + Qout: float
 + {static} Condenser(dictDev:dict)
 + balance()
 + state()
 + __str()__:str
}
class Evaporator {
 + {static} devtype: str
 + {static} energy: str
 + name: str
 + iPort: Port[1]
 + oPort: Port[1]
 + portdict: dict
 + Qin: float
 + {static} Evaporatorr(dictDev:dict)
 + balance()
 + state()
 + __str()__:str
}
class ExpansionValve {
 + {static} devtype: str
 + {static} energy: str
 + name: str
 + iPort: Port[1]
 + oPort: Port[1]
 + portdict: dict
 + {static} ExpansionValve(dictDev:dict)
 + balance()
 + state()
 + __str()__:str
}
Compressor "1" *- - "2" Port
ExpansionValve "1" *- - "2" Port
Evaporator "1" *- - "2" Port
Condenser "1" *- - "2" Port
@enduml

PlantUML version 1.2021.16(Thu Dec 09 01:25:22 CST 2021)
(GPL source distribution)
Java Runtime: Java(TM) SE Runtime Environment
JVM: Java HotSpot(TM) 64-Bit Server VM
Default Encoding: GBK
Language: zh
Country: CN
--></g></svg>