<?xml version="1.0" encoding="UTF-8" standalone="no"?><svg xmlns="http://www.w3.org/2000/svg" xmlns:xlink="http://www.w3.org/1999/xlink" contentScriptType="application/ecmascript" contentStyleType="text/css" height="371px" preserveAspectRatio="none" style="width:533px;height:371px;background:#FFFFFF;" version="1.1" viewBox="0 0 533 371" width="533px" zoomAndPan="magnify"><defs><filter height="300%" id="f1d8gu3p3q1y8q" width="300%" x="-1" y="-1"><feGaussianBlur result="blurOut" stdDeviation="2.0"/><feColorMatrix in="blurOut" result="blurOut2" type="matrix" values="0 0 0 0 0 0 0 0 0 0 0 0 0 0 0 0 0 0 .4 0"/><feOffset dx="4.0" dy="4.0" in="blurOut2" result="blurOut3"/><feBlend in="SourceGraphic" in2="blurOut3" mode="normal"/></filter></defs><g><path d="M312,22.8286 L312,41.583 L292,45.583 L312,49.583 L312,68.3374 A0,0 0 0 0 312,68.3374 L521,68.3374 A0,0 0 0 0 521,68.3374 L521,32.8286 L511,22.8286 L312,22.8286 A0,0 0 0 0 312,22.8286 " fill="#FBFB77" filter="url(#f1d8gu3p3q1y8q)" style="stroke:#A80036;stroke-width:1.0;"/><path d="M511,22.8286 L511,32.8286 L521,32.8286 L511,22.8286 " fill="#FBFB77" style="stroke:#A80036;stroke-width:1.0;"/><text fill="#000000" font-family="sans-serif" font-size="13" lengthAdjust="spacing" textLength="151" x="318" y="42.7266">get the port state: pt/px/tx</text><text fill="#000000" font-family="sans-serif" font-size="13" lengthAdjust="spacing" textLength="30" x="326" y="60.481">when</text><text fill="#000000" font-family="sans-serif" font-size="13" font-weight="bold" lengthAdjust="spacing" textLength="40" x="360" y="60.481">create</text><text fill="#000000" font-family="sans-serif" font-size="13" lengthAdjust="spacing" textLength="98" x="404" y="60.481">the port of device</text><rect fill="#FEFECE" filter="url(#f1d8gu3p3q1y8q)" height="69.166" rx="12.5" ry="12.5" style="stroke:#A80036;stroke-width:1.5;" width="249" x="43" y="11"/><text fill="#000000" font-family="sans-serif" font-size="12" lengthAdjust="spacing" textLength="226" x="56" y="34.752">Instancing the cycle using the dict of cycle</text><text fill="#000000" font-family="sans-serif" font-size="12" lengthAdjust="spacing" textLength="90" x="71" y="51.1406">1 the instance of</text><text fill="#000000" font-family="sans-serif" font-size="12" font-weight="bold" lengthAdjust="spacing" textLength="44" x="164" y="51.1406">devices</text><text fill="#000000" font-family="sans-serif" font-size="12" lengthAdjust="spacing" textLength="0" x="220" y="51.1406"/><text fill="#000000" font-family="sans-serif" font-size="12" lengthAdjust="spacing" textLength="90" x="71" y="67.5293">2 the instance of</text><text fill="#000000" font-family="sans-serif" font-size="12" font-weight="bold" lengthAdjust="spacing" textLength="58" x="164" y="67.5293">connector</text><path d="M304.5,111.9946 L304.5,130.749 L284.5,134.749 L304.5,138.749 L304.5,157.5034 A0,0 0 0 0 304.5,157.5034 L424.5,157.5034 A0,0 0 0 0 424.5,157.5034 L424.5,121.9946 L414.5,111.9946 L304.5,111.9946 A0,0 0 0 0 304.5,111.9946 " fill="#FBFB77" filter="url(#f1d8gu3p3q1y8q)" style="stroke:#A80036;stroke-width:1.0;"/><path d="M414.5,111.9946 L414.5,121.9946 L424.5,121.9946 L414.5,111.9946 " fill="#FBFB77" style="stroke:#A80036;stroke-width:1.0;"/><text fill="#000000" font-family="sans-serif" font-size="13" lengthAdjust="spacing" textLength="99" x="310.5" y="131.8926">1 comps[].state()</text><text fill="#000000" font-family="sans-serif" font-size="13" lengthAdjust="spacing" textLength="88" x="310.5" y="149.647">2 node[].state()</text><rect fill="#FEFECE" filter="url(#f1d8gu3p3q1y8q)" height="69.166" rx="12.5" ry="12.5" style="stroke:#A80036;stroke-width:1.5;" width="234" x="50.5" y="100.166"/><text fill="#000000" font-family="sans-serif" font-size="12" lengthAdjust="spacing" textLength="133" x="60.5" y="123.918">The port state of devices</text><text fill="#000000" font-family="sans-serif" font-size="12" lengthAdjust="spacing" textLength="52" x="72.5" y="140.3066">1 state by</text><text fill="#000000" font-family="sans-serif" font-size="12" font-weight="bold" lengthAdjust="spacing" textLength="147" x="127.5" y="140.3066">thermal process in device</text><text fill="#000000" font-family="sans-serif" font-size="12" lengthAdjust="spacing" textLength="52" x="72.5" y="156.6953">2 state by</text><text fill="#000000" font-family="sans-serif" font-size="12" font-weight="bold" lengthAdjust="spacing" textLength="124" x="127.5" y="156.6953">combined data of port</text><path d="M344,193.6492 L344,203.5264 L324,207.5264 L344,211.5264 L344,221.4036 A0,0 0 0 0 344,221.4036 L449,221.4036 A0,0 0 0 0 449,221.4036 L449,203.6492 L439,193.6492 L344,193.6492 A0,0 0 0 0 344,193.6492 " fill="#FBFB77" filter="url(#f1d8gu3p3q1y8q)" style="stroke:#A80036;stroke-width:1.0;"/><path d="M439,193.6492 L439,203.6492 L449,203.6492 L439,193.6492 " fill="#FBFB77" style="stroke:#A80036;stroke-width:1.0;"/><text fill="#000000" font-family="sans-serif" font-size="13" lengthAdjust="spacing" textLength="84" x="350" y="213.5471">Qin, Qout, Wc</text><rect fill="#FEFECE" filter="url(#f1d8gu3p3q1y8q)" height="36.3887" rx="12.5" ry="12.5" style="stroke:#A80036;stroke-width:1.5;" width="313" x="11" y="189.332"/><text fill="#000000" font-family="sans-serif" font-size="12" lengthAdjust="spacing" textLength="293" x="21" y="213.084">The mass and energy balance of devices on the mdot</text><path d="M301.5,250.0378 L301.5,259.915 L281.5,263.915 L301.5,267.915 L301.5,277.7922 A0,0 0 0 0 301.5,277.7922 L389.5,277.7922 A0,0 0 0 0 389.5,277.7922 L389.5,260.0378 L379.5,250.0378 L301.5,250.0378 A0,0 0 0 0 301.5,250.0378 " fill="#FBFB77" filter="url(#f1d8gu3p3q1y8q)" style="stroke:#A80036;stroke-width:1.0;"/><path d="M379.5,250.0378 L379.5,260.0378 L389.5,260.0378 L379.5,250.0378 " fill="#FBFB77" style="stroke:#A80036;stroke-width:1.0;"/><text fill="#000000" font-family="sans-serif" font-size="13" lengthAdjust="spacing" textLength="67" x="307.5" y="269.9358">cop,cop_hp</text><rect fill="#FEFECE" filter="url(#f1d8gu3p3q1y8q)" height="36.3887" rx="12.5" ry="12.5" style="stroke:#A80036;stroke-width:1.5;" width="228" x="53.5" y="245.7207"/><text fill="#000000" font-family="sans-serif" font-size="12" lengthAdjust="spacing" textLength="208" x="63.5" y="269.4727">The performance of cycle  on the mdot</text><rect fill="#FEFECE" filter="url(#f1d8gu3p3q1y8q)" height="52.7773" rx="12.5" ry="12.5" style="stroke:#A80036;stroke-width:1.5;" width="155" x="90" y="302.1094"/><text fill="#000000" font-family="sans-serif" font-size="12" lengthAdjust="spacing" textLength="83" x="103" y="325.8613">Print results on</text><text fill="#000000" font-family="sans-serif" font-size="12" font-weight="bold" lengthAdjust="spacing" textLength="45" x="189" y="325.8613">console</text><text fill="#000000" font-family="sans-serif" font-size="12" lengthAdjust="spacing" textLength="84" x="106" y="342.25">Save  results to</text><text fill="#000000" font-family="sans-serif" font-size="12" font-weight="bold" lengthAdjust="spacing" textLength="42" x="193" y="342.25">text file</text><line style="stroke:#A80036;stroke-width:1.5;" x1="167.5" x2="167.5" y1="80.166" y2="100.166"/><polygon fill="#A80036" points="163.5,90.166,167.5,100.166,171.5,90.166,167.5,94.166" style="stroke:#A80036;stroke-width:1.0;"/><line style="stroke:#A80036;stroke-width:1.5;" x1="167.5" x2="167.5" y1="169.332" y2="189.332"/><polygon fill="#A80036" points="163.5,179.332,167.5,189.332,171.5,179.332,167.5,183.332" style="stroke:#A80036;stroke-width:1.0;"/><line style="stroke:#A80036;stroke-width:1.5;" x1="167.5" x2="167.5" y1="225.7207" y2="245.7207"/><polygon fill="#A80036" points="163.5,235.7207,167.5,245.7207,171.5,235.7207,167.5,239.7207" style="stroke:#A80036;stroke-width:1.0;"/><line style="stroke:#A80036;stroke-width:1.5;" x1="167.5" x2="167.5" y1="282.1094" y2="302.1094"/><polygon fill="#A80036" points="163.5,292.1094,167.5,302.1094,171.5,292.1094,167.5,296.1094" style="stroke:#A80036;stroke-width:1.0;"/><!--MD5=[264c7ecf662263ae1a18f1d2da465fa2]
@startuml
: Instancing the cycle using the dict of cycle 
      1 the instance of **devices**    
      2 the instance of **connector**;
note right
    get the port state: pt/px/tx 
      when **create** the port of device 
end note
:The port state of devices
    1 state by **thermal process in device**
    2 state by **combined data of port**;
note right
    1 comps[].state()
    2 node[].state()
end note
:The mass and energy balance of devices on the mdot;
note right
    Qin, Qout, Wc
end note

:The performance of cycle  on the mdot;
note right
    cop,cop_hp
end note

: Print results on **console**  
  Save  results to **text file**;
@enduml

PlantUML version 1.2022.0(Wed Jan 12 00:16:42 CST 2022)
(GPL source distribution)
Java Runtime: Java(TM) SE Runtime Environment
JVM: Java HotSpot(TM) 64-Bit Server VM
Default Encoding: GBK
Language: zh
Country: CN
--></g></svg>