<?xml version="1.0" encoding="UTF-8" standalone="no"?><svg xmlns="http://www.w3.org/2000/svg" xmlns:xlink="http://www.w3.org/1999/xlink" contentScriptType="application/ecmascript" contentStyleType="text/css" height="223px" preserveAspectRatio="none" style="width:723px;height:223px;background:#FFFFFF;" version="1.1" viewBox="0 0 723 223" width="723px" zoomAndPan="magnify"><defs><filter height="300%" id="f1c1pjnohm1oxy" width="300%" x="-1" y="-1"><feGaussianBlur result="blurOut" stdDeviation="2.0"/><feColorMatrix in="blurOut" result="blurOut2" type="matrix" values="0 0 0 0 0 0 0 0 0 0 0 0 0 0 0 0 0 0 .4 0"/><feOffset dx="4.0" dy="4.0" in="blurOut2" result="blurOut3"/><feBlend in="SourceGraphic" in2="blurOut3" mode="normal"/></filter></defs><g><!--MD5=[2a2d47382f596aad31b1b6b8254d0d13]
cluster vcc--><polygon fill="#FFFFFF" filter="url(#f1c1pjnohm1oxy)" points="16,6,47,6,54,31.1201,138,31.1201,138,216,16,216,16,6" style="stroke:#000000;stroke-width:1.5;"/><line style="stroke:#000000;stroke-width:1.5;" x1="16" x2="54" y1="31.1201" y2="31.1201"/><text fill="#000000" font-family="sans-serif" font-size="14" font-weight="bold" lengthAdjust="spacing" textLength="25" x="20" y="24.0439">vcc</text><!--MD5=[67a6735b2a5707e03290b64fb931c9ce]
cluster components--><polygon fill="#FFFFFF" filter="url(#f1c1pjnohm1oxy)" points="162,114,255,114,262,139.1201,706,139.1201,706,216,162,216,162,114" style="stroke:#000000;stroke-width:1.5;"/><line style="stroke:#000000;stroke-width:1.5;" x1="162" x2="262" y1="139.1201" y2="139.1201"/><text fill="#000000" font-family="sans-serif" font-size="14" font-weight="bold" lengthAdjust="spacing" textLength="87" x="166" y="132.0439">components</text><!--MD5=[8494d56b311620b79d3f400af48997de]
class vcc.VCCycle--><rect fill="#FEFECE" filter="url(#f1c1pjnohm1oxy)" height="48" id="vcc.VCCycle" style="stroke:#A80036;stroke-width:1.5;" width="78" x="44" y="44"/><ellipse cx="59" cy="60" fill="#ADD1B2" rx="11" ry="11" style="stroke:#A80036;stroke-width:1.0;"/><path d="M57.5781,65.3594 Q55.7188,65.3594 54.625,63.9688 Q53.5313,62.5781 53.5313,59.5938 Q53.5313,57.0625 54.6953,55.4063 Q55.8594,53.75 57.8438,53.75 Q59.3125,53.75 59.7813,53.875 Q60.25,54.0781 60.25,54.0781 Q60.25,54.0781 60.25,54.0078 Q60.25,53.9375 60.8594,53.0156 L61.9063,56.6719 L60.5781,57.0781 Q60.1094,55.5313 59.4453,54.8672 Q58.7813,54.2031 57.7188,54.2031 Q57.3281,54.2031 56.5625,55.7344 Q55.7969,57.2656 55.7969,59.5156 Q55.7969,61.9844 56.4609,63.375 Q57.125,64.7656 57.6563,64.7656 Q58.7188,64.7656 59.4766,64 Q60.2344,63.2344 60.5781,61.5781 L61.9063,62.1719 Q61.5781,63.5781 60.6797,64.4688 Q59.7813,65.3594 57.5781,65.3594 Z " fill="#000000"/><text fill="#000000" font-family="sans-serif" font-size="12" lengthAdjust="spacing" textLength="46" x="73" y="65.5576">VCCycle</text><line style="stroke:#A80036;stroke-width:1.5;" x1="45" x2="121" y1="76" y2="76"/><line style="stroke:#A80036;stroke-width:1.5;" x1="45" x2="121" y1="84" y2="84"/><!--MD5=[bb914abfb8d8db1933d3b0d4a8005210]
class vcc.Connector--><rect fill="#FEFECE" filter="url(#f1c1pjnohm1oxy)" height="48" id="vcc.Connector" style="stroke:#A80036;stroke-width:1.5;" width="89" x="32.5" y="152"/><ellipse cx="47.5" cy="168" fill="#ADD1B2" rx="11" ry="11" style="stroke:#A80036;stroke-width:1.0;"/><path d="M46.0781,173.3594 Q44.2188,173.3594 43.125,171.9688 Q42.0313,170.5781 42.0313,167.5938 Q42.0313,165.0625 43.1953,163.4063 Q44.3594,161.75 46.3438,161.75 Q47.8125,161.75 48.2813,161.875 Q48.75,162.0781 48.75,162.0781 Q48.75,162.0781 48.75,162.0078 Q48.75,161.9375 49.3594,161.0156 L50.4063,164.6719 L49.0781,165.0781 Q48.6094,163.5313 47.9453,162.8672 Q47.2813,162.2031 46.2188,162.2031 Q45.8281,162.2031 45.0625,163.7344 Q44.2969,165.2656 44.2969,167.5156 Q44.2969,169.9844 44.9609,171.375 Q45.625,172.7656 46.1563,172.7656 Q47.2188,172.7656 47.9766,172 Q48.7344,171.2344 49.0781,169.5781 L50.4063,170.1719 Q50.0781,171.5781 49.1797,172.4688 Q48.2813,173.3594 46.0781,173.3594 Z " fill="#000000"/><text fill="#000000" font-family="sans-serif" font-size="12" lengthAdjust="spacing" textLength="57" x="61.5" y="173.5576">Connector</text><line style="stroke:#A80036;stroke-width:1.5;" x1="33.5" x2="120.5" y1="184" y2="184"/><line style="stroke:#A80036;stroke-width:1.5;" x1="33.5" x2="120.5" y1="192" y2="192"/><!--MD5=[1425e7638480267501c42c10b353ef69]
class components.Compressor--><rect fill="#FEFECE" filter="url(#f1c1pjnohm1oxy)" height="48" id="components.Compressor" style="stroke:#A80036;stroke-width:1.5;" width="102" x="588" y="152"/><ellipse cx="603" cy="168" fill="#ADD1B2" rx="11" ry="11" style="stroke:#A80036;stroke-width:1.0;"/><path d="M601.5781,173.3594 Q599.7188,173.3594 598.625,171.9688 Q597.5313,170.5781 597.5313,167.5938 Q597.5313,165.0625 598.6953,163.4063 Q599.8594,161.75 601.8438,161.75 Q603.3125,161.75 603.7813,161.875 Q604.25,162.0781 604.25,162.0781 Q604.25,162.0781 604.25,162.0078 Q604.25,161.9375 604.8594,161.0156 L605.9063,164.6719 L604.5781,165.0781 Q604.1094,163.5313 603.4453,162.8672 Q602.7813,162.2031 601.7188,162.2031 Q601.3281,162.2031 600.5625,163.7344 Q599.7969,165.2656 599.7969,167.5156 Q599.7969,169.9844 600.4609,171.375 Q601.125,172.7656 601.6563,172.7656 Q602.7188,172.7656 603.4766,172 Q604.2344,171.2344 604.5781,169.5781 L605.9063,170.1719 Q605.5781,171.5781 604.6797,172.4688 Q603.7813,173.3594 601.5781,173.3594 Z " fill="#000000"/><text fill="#000000" font-family="sans-serif" font-size="12" lengthAdjust="spacing" textLength="70" x="617" y="173.5576">Compressor</text><line style="stroke:#A80036;stroke-width:1.5;" x1="589" x2="689" y1="184" y2="184"/><line style="stroke:#A80036;stroke-width:1.5;" x1="589" x2="689" y1="192" y2="192"/><!--MD5=[3aa28d5a7272b5ceb269ad90a5b62429]
class components.Condenser--><rect fill="#FEFECE" filter="url(#f1c1pjnohm1oxy)" height="48" id="components.Condenser" style="stroke:#A80036;stroke-width:1.5;" width="94" x="459" y="152"/><ellipse cx="474" cy="168" fill="#ADD1B2" rx="11" ry="11" style="stroke:#A80036;stroke-width:1.0;"/><path d="M472.5781,173.3594 Q470.7188,173.3594 469.625,171.9688 Q468.5313,170.5781 468.5313,167.5938 Q468.5313,165.0625 469.6953,163.4063 Q470.8594,161.75 472.8438,161.75 Q474.3125,161.75 474.7813,161.875 Q475.25,162.0781 475.25,162.0781 Q475.25,162.0781 475.25,162.0078 Q475.25,161.9375 475.8594,161.0156 L476.9063,164.6719 L475.5781,165.0781 Q475.1094,163.5313 474.4453,162.8672 Q473.7813,162.2031 472.7188,162.2031 Q472.3281,162.2031 471.5625,163.7344 Q470.7969,165.2656 470.7969,167.5156 Q470.7969,169.9844 471.4609,171.375 Q472.125,172.7656 472.6563,172.7656 Q473.7188,172.7656 474.4766,172 Q475.2344,171.2344 475.5781,169.5781 L476.9063,170.1719 Q476.5781,171.5781 475.6797,172.4688 Q474.7813,173.3594 472.5781,173.3594 Z " fill="#000000"/><text fill="#000000" font-family="sans-serif" font-size="12" lengthAdjust="spacing" textLength="62" x="488" y="173.5576">Condenser</text><line style="stroke:#A80036;stroke-width:1.5;" x1="460" x2="552" y1="184" y2="184"/><line style="stroke:#A80036;stroke-width:1.5;" x1="460" x2="552" y1="192" y2="192"/><!--MD5=[26d3ee9d17a11787c7bcd11a7b3c39bc]
class components.Evaporator--><rect fill="#FEFECE" filter="url(#f1c1pjnohm1oxy)" height="48" id="components.Evaporator" style="stroke:#A80036;stroke-width:1.5;" width="91" x="332.5" y="152"/><ellipse cx="347.5" cy="168" fill="#ADD1B2" rx="11" ry="11" style="stroke:#A80036;stroke-width:1.0;"/><path d="M346.0781,173.3594 Q344.2188,173.3594 343.125,171.9688 Q342.0313,170.5781 342.0313,167.5938 Q342.0313,165.0625 343.1953,163.4063 Q344.3594,161.75 346.3438,161.75 Q347.8125,161.75 348.2813,161.875 Q348.75,162.0781 348.75,162.0781 Q348.75,162.0781 348.75,162.0078 Q348.75,161.9375 349.3594,161.0156 L350.4063,164.6719 L349.0781,165.0781 Q348.6094,163.5313 347.9453,162.8672 Q347.2813,162.2031 346.2188,162.2031 Q345.8281,162.2031 345.0625,163.7344 Q344.2969,165.2656 344.2969,167.5156 Q344.2969,169.9844 344.9609,171.375 Q345.625,172.7656 346.1563,172.7656 Q347.2188,172.7656 347.9766,172 Q348.7344,171.2344 349.0781,169.5781 L350.4063,170.1719 Q350.0781,171.5781 349.1797,172.4688 Q348.2813,173.3594 346.0781,173.3594 Z " fill="#000000"/><text fill="#000000" font-family="sans-serif" font-size="12" lengthAdjust="spacing" textLength="59" x="361.5" y="173.5576">Evaporator</text><line style="stroke:#A80036;stroke-width:1.5;" x1="333.5" x2="422.5" y1="184" y2="184"/><line style="stroke:#A80036;stroke-width:1.5;" x1="333.5" x2="422.5" y1="192" y2="192"/><!--MD5=[aa7a1bd7075337bb3e4dcd7547b94984]
class components.ExpansionValve--><rect fill="#FEFECE" filter="url(#f1c1pjnohm1oxy)" height="48" id="components.ExpansionValve" style="stroke:#A80036;stroke-width:1.5;" width="119" x="178.5" y="152"/><ellipse cx="193.5" cy="168" fill="#ADD1B2" rx="11" ry="11" style="stroke:#A80036;stroke-width:1.0;"/><path d="M192.0781,173.3594 Q190.2188,173.3594 189.125,171.9688 Q188.0313,170.5781 188.0313,167.5938 Q188.0313,165.0625 189.1953,163.4063 Q190.3594,161.75 192.3438,161.75 Q193.8125,161.75 194.2813,161.875 Q194.75,162.0781 194.75,162.0781 Q194.75,162.0781 194.75,162.0078 Q194.75,161.9375 195.3594,161.0156 L196.4063,164.6719 L195.0781,165.0781 Q194.6094,163.5313 193.9453,162.8672 Q193.2813,162.2031 192.2188,162.2031 Q191.8281,162.2031 191.0625,163.7344 Q190.2969,165.2656 190.2969,167.5156 Q190.2969,169.9844 190.9609,171.375 Q191.625,172.7656 192.1563,172.7656 Q193.2188,172.7656 193.9766,172 Q194.7344,171.2344 195.0781,169.5781 L196.4063,170.1719 Q196.0781,171.5781 195.1797,172.4688 Q194.2813,173.3594 192.0781,173.3594 Z " fill="#000000"/><text fill="#000000" font-family="sans-serif" font-size="12" lengthAdjust="spacing" textLength="87" x="207.5" y="173.5576">ExpansionValve</text><line style="stroke:#A80036;stroke-width:1.5;" x1="179.5" x2="296.5" y1="184" y2="184"/><line style="stroke:#A80036;stroke-width:1.5;" x1="179.5" x2="296.5" y1="192" y2="192"/><!--MD5=[1b4e57cf762653a4b8ecce0018a279c2]
reverse link vcc.VCCycle to vcc.Connector--><path codeLine="1" d="M80.94,105.34 C80.07,120.68 79.09,138.1 78.32,151.68 " fill="none" id="vcc.VCCycle-backto-vcc.Connector" style="stroke:#0000FF;stroke-width:1.0;"/><polygon fill="#0000FF" points="81.7,92,77.3639,97.7618,81.0147,103.9804,85.3508,98.2187,81.7,92" style="stroke:#0000FF;stroke-width:1.0;"/><text fill="#000000" font-family="sans-serif" font-size="13" lengthAdjust="spacing" textLength="7" x="73.53" y="114.9118">1</text><text fill="#000000" font-family="sans-serif" font-size="13" lengthAdjust="spacing" textLength="7" x="70.7614" y="141.2645">1</text><!--MD5=[873c7d2d09086c8800befd3e8ad4e8d4]
reverse link vcc.VCCycle to components.Compressor--><path codeLine="2" d="M135.39,68.39 C245.03,67.84 494.77,70.65 571,106 C592.51,115.98 610.96,135.89 623.19,151.78 " fill="none" id="vcc.VCCycle-backto-components.Compressor" style="stroke:#A80036;stroke-width:1.0;"/><polygon fill="#FFFFFF" points="122.12,68.47,128.1462,72.4304,134.1197,68.3909,128.0935,64.4305,122.12,68.47" style="stroke:#A80036;stroke-width:1.0;"/><text fill="#000000" font-family="sans-serif" font-size="13" lengthAdjust="spacing" textLength="7" x="129.9781" y="64.957">1</text><text fill="#000000" font-family="sans-serif" font-size="13" lengthAdjust="spacing" textLength="7" x="611.0004" y="140.9858">1</text><!--MD5=[d2def1a9d0c4718d736723e1d4178850]
reverse link vcc.VCCycle to components.Condenser--><path codeLine="3" d="M135.27,69.96 C221.33,72.28 388.56,80.08 441,106 C461.8,116.28 479.41,136.17 491.03,151.96 " fill="none" id="vcc.VCCycle-backto-components.Condenser" style="stroke:#A80036;stroke-width:1.0;"/><polygon fill="#FFFFFF" points="122.18,69.64,128.077,73.7903,134.1762,69.9432,128.2792,65.7929,122.18,69.64" style="stroke:#A80036;stroke-width:1.0;"/><text fill="#000000" font-family="sans-serif" font-size="13" lengthAdjust="spacing" textLength="7" x="130.0491" y="86.4771">1</text><text fill="#000000" font-family="sans-serif" font-size="13" lengthAdjust="spacing" textLength="7" x="479.0662" y="141.2142">1</text><!--MD5=[1e9ccd66b949dce6cb63264cc652c721]
reverse link vcc.VCCycle to components.Evaporator--><path codeLine="4" d="M135.3,73.31 C193.94,78.84 284.77,89.7 315,106 C334.99,116.78 351.96,136.4 363.23,151.98 " fill="none" id="vcc.VCCycle-backto-components.Evaporator" style="stroke:#A80036;stroke-width:1.0;"/><polygon fill="#FFFFFF" points="122.23,72.11,127.8401,76.6407,134.18,73.2048,128.5699,68.6741,122.23,72.11" style="stroke:#A80036;stroke-width:1.0;"/><text fill="#000000" font-family="sans-serif" font-size="13" lengthAdjust="spacing" textLength="7" x="130.1083" y="89.4025">1</text><text fill="#000000" font-family="sans-serif" font-size="13" lengthAdjust="spacing" textLength="7" x="351.3199" y="141.2396">1</text><!--MD5=[598330af091e5ea286f3d0dfdf3acaa7]
reverse link vcc.VCCycle to components.ExpansionValve--><path codeLine="5" d="M128.41,99.48 C131.66,101.68 134.88,103.87 138,106 C160.31,121.2 185.31,138.45 204.73,151.9 " fill="none" id="vcc.VCCycle-backto-components.ExpansionValve" style="stroke:#A80036;stroke-width:1.0;"/><polygon fill="#FFFFFF" points="117.37,92.03,120.1049,98.7024,127.3159,98.7441,124.581,92.0718,117.37,92.03" style="stroke:#A80036;stroke-width:1.0;"/><text fill="#000000" font-family="sans-serif" font-size="13" lengthAdjust="spacing" textLength="7" x="117.8946" y="114.9491">1</text><text fill="#000000" font-family="sans-serif" font-size="13" lengthAdjust="spacing" textLength="7" x="187.8481" y="141.1381">1</text><!--MD5=[6466495b3ab7968a630704f90059cc14]
@startuml
vcc.VCCycle "1" *-[#blue]- "1" vcc.Connector 
vcc.VCCycle "1" o- - "1" components.Compressor 
vcc.VCCycle "1" o- - "1" components.Condenser
vcc.VCCycle "1" o- - "1" components.Evaporator
vcc.VCCycle "1" o- - "1" components.ExpansionValve
@enduml

PlantUML version 1.2022.0(Wed Jan 12 00:16:42 CST 2022)
(GPL source distribution)
Java Runtime: Java(TM) SE Runtime Environment
JVM: Java HotSpot(TM) 64-Bit Server VM
Default Encoding: GBK
Language: zh
Country: CN
--></g></svg>